<?xml version="1.0" encoding="utf-8"?>
<!-- Generator: Adobe Illustrator 22.1.0, SVG Export Plug-In . SVG Version: 6.00 Build 0)  -->
<svg version="1.1" id="Layer_1" xmlns="http://www.w3.org/2000/svg" xmlns:xlink="http://www.w3.org/1999/xlink" x="0px" y="0px"
	 viewBox="0 0 1243.8 439" style="enable-background:new 0 0 1243.8 439;" xml:space="preserve">
<style type="text/css">
	.st0{fill:none;stroke:#000000;stroke-width:0.25;stroke-miterlimit:10;}
	.st1{opacity:0.11;}
	.st2{fill:#231F20;}
</style>
<g>
	<g>
		<g>
			<rect x="701.8" y="114.9" width="28.5" height="28.5"/>
			<polygon points="673.3,114.9 616.4,114.9 559.5,114.9 616.4,171.8 616.4,228.7 673.3,228.7 730.3,285.7 730.3,228.7 730.3,171.8 
				673.3,171.8 			"/>
		</g>
		<g>
			<line class="st0" x1="730.3" y1="1.1" x2="730.3" y2="399.5"/>
			<line class="st0" x1="673.3" y1="1.1" x2="673.3" y2="399.5"/>
			<line class="st0" x1="701.8" y1="114.9" x2="701.8" y2="171.8"/>
			<line class="st0" x1="673.3" y1="143.4" x2="730.3" y2="143.4"/>
			<line class="st0" x1="616.4" y1="1.1" x2="616.4" y2="399.5"/>
			<line class="st0" x1="559.5" y1="1.1" x2="559.5" y2="399.5"/>
			<line class="st0" x1="445.7" y1="1.1" x2="445.7" y2="399.5"/>
			<line class="st0" x1="844.1" y1="1.1" x2="844.1" y2="399.5"/>
			<line class="st0" x1="445.7" y1="114.9" x2="844.1" y2="114.9"/>
			<line class="st0" x1="730.3" y1="143.4" x2="844.1" y2="143.4"/>
			<line class="st0" x1="445.7" y1="1.1" x2="844.1" y2="1.1"/>
			<line class="st0" x1="445.7" y1="399.5" x2="844.1" y2="399.5"/>
			<line class="st0" x1="445.7" y1="285.7" x2="844.1" y2="285.7"/>
			<line class="st0" x1="445.7" y1="228.7" x2="844.1" y2="228.7"/>
			<line class="st0" x1="445.7" y1="171.8" x2="844.1" y2="171.8"/>
			<line class="st0" x1="673.3" y1="114.9" x2="730.3" y2="171.8"/>
			<line class="st0" x1="673.3" y1="143.4" x2="730.3" y2="200.3"/>
			<path class="st0" d="M559.5,142.9c15.7,0,28.5-12.7,28.5-28.5"/>
			<path class="st0" d="M673.3,257.7c15.7,0,28.5-12.7,28.5-28.5"/>
		</g>
		<g>
			<path d="M574.9,158.9v-1.6H572v-0.6l2.8-4.2h0.6v4.2h0.9v0.6h-0.9v1.6H574.9z M572.7,156.7h2.2v-3.3L572.7,156.7z"/>
			<path d="M578.4,156.1l0.2-3.6h3.5v0.6h-2.9l-0.2,2.4c0.4-0.5,0.9-0.8,1.5-0.8c1.3,0,2,0.9,2,2.2c0,1.4-0.8,2.3-2.1,2.3
				c-1.3,0-2-0.7-2.1-1.9h0.6c0.1,0.8,0.6,1.3,1.5,1.3c0.8,0,1.5-0.5,1.5-1.3v-0.8c0-0.7-0.6-1.2-1.4-1.2c-0.6,0-1.1,0.4-1.4,1
				H578.4z"/>
			<path d="M585.6,152.3c0.7,0,1.3,0.6,1.3,1.3s-0.6,1.3-1.3,1.3c-0.7,0-1.3-0.6-1.3-1.3S584.9,152.3,585.6,152.3z M585.6,154.7
				c0.6,0,1-0.5,1-1s-0.5-1-1-1c-0.6,0-1,0.5-1,1S585.1,154.7,585.6,154.7z"/>
		</g>
		<g>
			<path d="M690.8,275.9v-1.6h-2.9v-0.6l2.8-4.2h0.6v4.2h0.9v0.6h-0.9v1.6H690.8z M688.6,273.7h2.2v-3.3L688.6,273.7z"/>
			<path d="M694.3,273.1l0.2-3.6h3.5v0.6h-2.9l-0.2,2.4c0.4-0.5,0.9-0.8,1.5-0.8c1.3,0,2,0.9,2,2.2c0,1.4-0.8,2.3-2.1,2.3
				c-1.3,0-2-0.7-2.1-1.9h0.6c0.1,0.8,0.6,1.3,1.5,1.3c0.8,0,1.4-0.5,1.4-1.3v-0.8c0-0.7-0.5-1.2-1.4-1.2c-0.6,0-1.1,0.4-1.4,1
				H694.3z"/>
			<path d="M701.6,269.3c0.7,0,1.3,0.6,1.3,1.3c0,0.7-0.6,1.3-1.3,1.3c-0.7,0-1.3-0.6-1.3-1.3C700.2,269.9,700.8,269.3,701.6,269.3z
				 M701.6,271.7c0.6,0,1-0.5,1-1c0-0.6-0.5-1-1-1c-0.6,0-1,0.5-1,1C700.5,271.2,701,271.7,701.6,271.7z"/>
		</g>
		<polyline class="st0" points="730.3,413.3 730.3,420.7 701.8,420.7 701.8,413.3 		"/>
		<polyline class="st0" points="673.3,413.7 673.3,421.1 616.4,421.1 616.4,413.7 		"/>
		<g>
			<path d="M714.7,433.4l0.7,1c0.2,0.3,0.3,0.5,0.5,0.7h0c0.2-0.3,0.3-0.5,0.5-0.8l0.6-1h0.9l-1.6,2.2l1.6,2.4h-0.9l-0.7-1
				c-0.2-0.3-0.3-0.5-0.5-0.8h0c-0.2,0.3-0.3,0.5-0.5,0.8l-0.7,1h-0.9l1.6-2.3l-1.6-2.2H714.7z"/>
		</g>
		<g>
			<path d="M640.2,438v-0.5l0.7-0.6c1.6-1.5,2.3-2.3,2.3-3.2c0-0.6-0.3-1.2-1.2-1.2c-0.6,0-1,0.3-1.3,0.5l-0.3-0.6
				c0.4-0.4,1-0.6,1.7-0.6c1.3,0,1.9,0.9,1.9,1.8c0,1.1-0.8,2.1-2.1,3.3l-0.5,0.5v0h2.8v0.7H640.2z"/>
			<path d="M646.2,433.4l0.7,1c0.2,0.3,0.3,0.5,0.5,0.7h0c0.2-0.3,0.3-0.5,0.5-0.8l0.6-1h0.9l-1.6,2.2l1.6,2.4h-0.9l-0.7-1
				c-0.2-0.3-0.3-0.5-0.5-0.8h0c-0.2,0.3-0.3,0.5-0.5,0.8l-0.7,1h-0.9l1.6-2.3l-1.6-2.2H646.2z"/>
		</g>
	</g>
	<g>
		<g>
			<g class="st1">
				<path d="M905,16.2h-15.1V1.1H905V16.2z M890.9,15.2H904V2.1h-13.1V15.2z"/>
			</g>
			<g class="st1">
				<path d="M919.1,16.2H904V1.1h15.1V16.2z M905,15.2h13.1V2.1H905V15.2z"/>
			</g>
			<g class="st1">
				<path d="M933.1,16.2h-15.1V1.1h15.1V16.2z M919.1,15.2h13.1V2.1h-13.1V15.2z"/>
			</g>
			<g class="st1">
				<path d="M947.2,16.2h-15.1V1.1h15.1V16.2z M933.1,15.2h13.1V2.1h-13.1V15.2z"/>
			</g>
			<g class="st1">
				<path d="M961.3,16.2h-15.1V1.1h15.1V16.2z M947.2,15.2h13.1V2.1h-13.1V15.2z"/>
			</g>
			<g class="st1">
				<path d="M975.3,16.2h-15.1V1.1h15.1V16.2z M961.3,15.2h13.1V2.1h-13.1V15.2z"/>
			</g>
			<g class="st1">
				<path d="M989.4,16.2h-15.1V1.1h15.1V16.2z M975.3,15.2h13.1V2.1h-13.1V15.2z"/>
			</g>
			<g class="st1">
				<path d="M1003.5,16.2h-15.1V1.1h15.1V16.2z M989.4,15.2h13.1V2.1h-13.1V15.2z"/>
			</g>
			<g class="st1">
				<path d="M1017.6,16.2h-15.1V1.1h15.1V16.2z M1003.5,15.2h13.1V2.1h-13.1V15.2z"/>
			</g>
			<g class="st1">
				<path d="M1031.6,16.2h-15.1V1.1h15.1V16.2z M1017.6,15.2h13.1V2.1h-13.1V15.2z"/>
			</g>
			<g class="st1">
				<path d="M1045.7,16.2h-15.1V1.1h15.1V16.2z M1031.6,15.2h13.1V2.1h-13.1V15.2z"/>
			</g>
			<g class="st1">
				<path d="M1059.8,16.2h-15.1V1.1h15.1V16.2z M1045.7,15.2h13.1V2.1h-13.1V15.2z"/>
			</g>
			<g class="st1">
				<path d="M1073.8,16.2h-15.1V1.1h15.1V16.2z M1059.8,15.2h13.1V2.1h-13.1V15.2z"/>
			</g>
			<g class="st1">
				<path d="M1087.9,16.2h-15.1V1.1h15.1V16.2z M1073.8,15.2h13.1V2.1h-13.1V15.2z"/>
			</g>
			<g class="st1">
				<path d="M905,30.3h-15.1V15.2H905V30.3z M890.9,29.3H904V16.2h-13.1V29.3z"/>
			</g>
			<g class="st1">
				<path d="M919.1,30.3H904V15.2h15.1V30.3z M905,29.3h13.1V16.2H905V29.3z"/>
			</g>
			<g class="st1">
				<path d="M933.1,30.3h-15.1V15.2h15.1V30.3z M919.1,29.3h13.1V16.2h-13.1V29.3z"/>
			</g>
			<g class="st1">
				<path d="M947.2,30.3h-15.1V15.2h15.1V30.3z M933.1,29.3h13.1V16.2h-13.1V29.3z"/>
			</g>
			<g class="st1">
				<path d="M961.3,30.3h-15.1V15.2h15.1V30.3z M947.2,29.3h13.1V16.2h-13.1V29.3z"/>
			</g>
			<g class="st1">
				<path d="M975.3,30.3h-15.1V15.2h15.1V30.3z M961.3,29.3h13.1V16.2h-13.1V29.3z"/>
			</g>
			<g class="st1">
				<path d="M989.4,30.3h-15.1V15.2h15.1V30.3z M975.3,29.3h13.1V16.2h-13.1V29.3z"/>
			</g>
			<g class="st1">
				<path d="M1003.5,30.3h-15.1V15.2h15.1V30.3z M989.4,29.3h13.1V16.2h-13.1V29.3z"/>
			</g>
			<g class="st1">
				<path d="M1017.6,30.3h-15.1V15.2h15.1V30.3z M1003.5,29.3h13.1V16.2h-13.1V29.3z"/>
			</g>
			<g class="st1">
				<path d="M1031.6,30.3h-15.1V15.2h15.1V30.3z M1017.6,29.3h13.1V16.2h-13.1V29.3z"/>
			</g>
			<g class="st1">
				<path d="M1045.7,30.3h-15.1V15.2h15.1V30.3z M1031.6,29.3h13.1V16.2h-13.1V29.3z"/>
			</g>
			<g class="st1">
				<path d="M1059.8,30.3h-15.1V15.2h15.1V30.3z M1045.7,29.3h13.1V16.2h-13.1V29.3z"/>
			</g>
			<g class="st1">
				<path d="M1073.8,30.3h-15.1V15.2h15.1V30.3z M1059.8,29.3h13.1V16.2h-13.1V29.3z"/>
			</g>
			<g class="st1">
				<path d="M1087.9,30.3h-15.1V15.2h15.1V30.3z M1073.8,29.3h13.1V16.2h-13.1V29.3z"/>
			</g>
			<g class="st1">
				<path d="M905,44.3h-15.1V29.3H905V44.3z M890.9,43.3H904V30.3h-13.1V43.3z"/>
			</g>
			<g class="st1">
				<path d="M919.1,44.3H904V29.3h15.1V44.3z M905,43.3h13.1V30.3H905V43.3z"/>
			</g>
			<g class="st1">
				<path d="M933.1,44.3h-15.1V29.3h15.1V44.3z M919.1,43.3h13.1V30.3h-13.1V43.3z"/>
			</g>
			<g class="st1">
				<path d="M947.2,44.3h-15.1V29.3h15.1V44.3z M933.1,43.3h13.1V30.3h-13.1V43.3z"/>
			</g>
			<g class="st1">
				<path d="M961.3,44.3h-15.1V29.3h15.1V44.3z M947.2,43.3h13.1V30.3h-13.1V43.3z"/>
			</g>
			<g class="st1">
				<path d="M975.3,44.3h-15.1V29.3h15.1V44.3z M961.3,43.3h13.1V30.3h-13.1V43.3z"/>
			</g>
			<g class="st1">
				<path d="M989.4,44.3h-15.1V29.3h15.1V44.3z M975.3,43.3h13.1V30.3h-13.1V43.3z"/>
			</g>
			<g class="st1">
				<path d="M1003.5,44.3h-15.1V29.3h15.1V44.3z M989.4,43.3h13.1V30.3h-13.1V43.3z"/>
			</g>
			<g class="st1">
				<path d="M1017.6,44.3h-15.1V29.3h15.1V44.3z M1003.5,43.3h13.1V30.3h-13.1V43.3z"/>
			</g>
			<g class="st1">
				<path d="M1031.6,44.3h-15.1V29.3h15.1V44.3z M1017.6,43.3h13.1V30.3h-13.1V43.3z"/>
			</g>
			<g class="st1">
				<path d="M1045.7,44.3h-15.1V29.3h15.1V44.3z M1031.6,43.3h13.1V30.3h-13.1V43.3z"/>
			</g>
			<g class="st1">
				<path d="M1059.8,44.3h-15.1V29.3h15.1V44.3z M1045.7,43.3h13.1V30.3h-13.1V43.3z"/>
			</g>
			<g class="st1">
				<path d="M1073.8,44.3h-15.1V29.3h15.1V44.3z M1059.8,43.3h13.1V30.3h-13.1V43.3z"/>
			</g>
			<g class="st1">
				<path d="M1087.9,44.3h-15.1V29.3h15.1V44.3z M1073.8,43.3h13.1V30.3h-13.1V43.3z"/>
			</g>
			<g class="st1">
				<path d="M905,58.4h-15.1V43.3H905V58.4z M890.9,57.4H904V44.3h-13.1V57.4z"/>
			</g>
			<g class="st1">
				<path d="M919.1,58.4H904V43.3h15.1V58.4z M905,57.4h13.1V44.3H905V57.4z"/>
			</g>
			<g class="st1">
				<path d="M933.1,58.4h-15.1V43.3h15.1V58.4z M919.1,57.4h13.1V44.3h-13.1V57.4z"/>
			</g>
			<g class="st1">
				<path d="M947.2,58.4h-15.1V43.3h15.1V58.4z M933.1,57.4h13.1V44.3h-13.1V57.4z"/>
			</g>
			<g class="st1">
				<path d="M961.3,58.4h-15.1V43.3h15.1V58.4z M947.2,57.4h13.1V44.3h-13.1V57.4z"/>
			</g>
			<g class="st1">
				<path d="M975.3,58.4h-15.1V43.3h15.1V58.4z M961.3,57.4h13.1V44.3h-13.1V57.4z"/>
			</g>
			<g class="st1">
				<path d="M989.4,58.4h-15.1V43.3h15.1V58.4z M975.3,57.4h13.1V44.3h-13.1V57.4z"/>
			</g>
			<g class="st1">
				<path d="M1003.5,58.4h-15.1V43.3h15.1V58.4z M989.4,57.4h13.1V44.3h-13.1V57.4z"/>
			</g>
			<g class="st1">
				<path d="M1017.6,58.4h-15.1V43.3h15.1V58.4z M1003.5,57.4h13.1V44.3h-13.1V57.4z"/>
			</g>
			<g class="st1">
				<path d="M1031.6,58.4h-15.1V43.3h15.1V58.4z M1017.6,57.4h13.1V44.3h-13.1V57.4z"/>
			</g>
			<g class="st1">
				<path d="M1045.7,58.4h-15.1V43.3h15.1V58.4z M1031.6,57.4h13.1V44.3h-13.1V57.4z"/>
			</g>
			<g class="st1">
				<path d="M1059.8,58.4h-15.1V43.3h15.1V58.4z M1045.7,57.4h13.1V44.3h-13.1V57.4z"/>
			</g>
			<g class="st1">
				<path d="M1073.8,58.4h-15.1V43.3h15.1V58.4z M1059.8,57.4h13.1V44.3h-13.1V57.4z"/>
			</g>
			<g class="st1">
				<path d="M1087.9,58.4h-15.1V43.3h15.1V58.4z M1073.8,57.4h13.1V44.3h-13.1V57.4z"/>
			</g>
			<g class="st1">
				<path d="M905,72.5h-15.1V57.4H905V72.5z M890.9,71.5H904V58.4h-13.1V71.5z"/>
			</g>
			<g class="st1">
				<path d="M919.1,72.5H904V57.4h15.1V72.5z M905,71.5h13.1V58.4H905V71.5z"/>
			</g>
			<g class="st1">
				<path d="M933.1,72.5h-15.1V57.4h15.1V72.5z M919.1,71.5h13.1V58.4h-13.1V71.5z"/>
			</g>
			<g class="st1">
				<path d="M947.2,72.5h-15.1V57.4h15.1V72.5z M933.1,71.5h13.1V58.4h-13.1V71.5z"/>
			</g>
			<g class="st1">
				<path d="M961.3,72.5h-15.1V57.4h15.1V72.5z M947.2,71.5h13.1V58.4h-13.1V71.5z"/>
			</g>
			<g class="st1">
				<path d="M975.3,72.5h-15.1V57.4h15.1V72.5z M961.3,71.5h13.1V58.4h-13.1V71.5z"/>
			</g>
			<g class="st1">
				<path d="M989.4,72.5h-15.1V57.4h15.1V72.5z M975.3,71.5h13.1V58.4h-13.1V71.5z"/>
			</g>
			<g class="st1">
				<path d="M1003.5,72.5h-15.1V57.4h15.1V72.5z M989.4,71.5h13.1V58.4h-13.1V71.5z"/>
			</g>
			<g class="st1">
				<path d="M1017.6,72.5h-15.1V57.4h15.1V72.5z M1003.5,71.5h13.1V58.4h-13.1V71.5z"/>
			</g>
			<g class="st1">
				<path d="M1031.6,72.5h-15.1V57.4h15.1V72.5z M1017.6,71.5h13.1V58.4h-13.1V71.5z"/>
			</g>
			<g class="st1">
				<path d="M1045.7,72.5h-15.1V57.4h15.1V72.5z M1031.6,71.5h13.1V58.4h-13.1V71.5z"/>
			</g>
			<g class="st1">
				<path d="M1059.8,72.5h-15.1V57.4h15.1V72.5z M1045.7,71.5h13.1V58.4h-13.1V71.5z"/>
			</g>
			<g class="st1">
				<path d="M1073.8,72.5h-15.1V57.4h15.1V72.5z M1059.8,71.5h13.1V58.4h-13.1V71.5z"/>
			</g>
			<g class="st1">
				<path d="M1087.9,72.5h-15.1V57.4h15.1V72.5z M1073.8,71.5h13.1V58.4h-13.1V71.5z"/>
			</g>
			<g class="st1">
				<path d="M905,86.6h-15.1V71.5H905V86.6z M890.9,85.6H904V72.5h-13.1V85.6z"/>
			</g>
			<g class="st1">
				<path d="M919.1,86.6H904V71.5h15.1V86.6z M905,85.6h13.1V72.5H905V85.6z"/>
			</g>
			<g class="st1">
				<path d="M933.1,86.6h-15.1V71.5h15.1V86.6z M919.1,85.6h13.1V72.5h-13.1V85.6z"/>
			</g>
			<g class="st1">
				<path d="M947.2,86.6h-15.1V71.5h15.1V86.6z M933.1,85.6h13.1V72.5h-13.1V85.6z"/>
			</g>
			<g class="st1">
				<path d="M961.3,86.6h-15.1V71.5h15.1V86.6z M947.2,85.6h13.1V72.5h-13.1V85.6z"/>
			</g>
			<g class="st1">
				<path d="M975.3,86.6h-15.1V71.5h15.1V86.6z M961.3,85.6h13.1V72.5h-13.1V85.6z"/>
			</g>
			<g class="st1">
				<path d="M989.4,86.6h-15.1V71.5h15.1V86.6z M975.3,85.6h13.1V72.5h-13.1V85.6z"/>
			</g>
			<g class="st1">
				<path d="M1003.5,86.6h-15.1V71.5h15.1V86.6z M989.4,85.6h13.1V72.5h-13.1V85.6z"/>
			</g>
			<g class="st1">
				<path d="M1017.6,86.6h-15.1V71.5h15.1V86.6z M1003.5,85.6h13.1V72.5h-13.1V85.6z"/>
			</g>
			<g class="st1">
				<path d="M1031.6,86.6h-15.1V71.5h15.1V86.6z M1017.6,85.6h13.1V72.5h-13.1V85.6z"/>
			</g>
			<g class="st1">
				<path d="M1045.7,86.6h-15.1V71.5h15.1V86.6z M1031.6,85.6h13.1V72.5h-13.1V85.6z"/>
			</g>
			<g class="st1">
				<path d="M1059.8,86.6h-15.1V71.5h15.1V86.6z M1045.7,85.6h13.1V72.5h-13.1V85.6z"/>
			</g>
			<g class="st1">
				<path d="M1073.8,86.6h-15.1V71.5h15.1V86.6z M1059.8,85.6h13.1V72.5h-13.1V85.6z"/>
			</g>
			<g class="st1">
				<path d="M1087.9,86.6h-15.1V71.5h15.1V86.6z M1073.8,85.6h13.1V72.5h-13.1V85.6z"/>
			</g>
			<g class="st1">
				<path d="M905,100.6h-15.1V85.6H905V100.6z M890.9,99.6H904V86.6h-13.1V99.6z"/>
			</g>
			<g class="st1">
				<path d="M919.1,100.6H904V85.6h15.1V100.6z M905,99.6h13.1V86.6H905V99.6z"/>
			</g>
			<g class="st1">
				<path d="M933.1,100.6h-15.1V85.6h15.1V100.6z M919.1,99.6h13.1V86.6h-13.1V99.6z"/>
			</g>
			<g class="st1">
				<path d="M947.2,100.6h-15.1V85.6h15.1V100.6z M933.1,99.6h13.1V86.6h-13.1V99.6z"/>
			</g>
			<g class="st1">
				<path d="M961.3,100.6h-15.1V85.6h15.1V100.6z M947.2,99.6h13.1V86.6h-13.1V99.6z"/>
			</g>
			<g class="st1">
				<path d="M975.3,100.6h-15.1V85.6h15.1V100.6z M961.3,99.6h13.1V86.6h-13.1V99.6z"/>
			</g>
			<g class="st1">
				<path d="M989.4,100.6h-15.1V85.6h15.1V100.6z M975.3,99.6h13.1V86.6h-13.1V99.6z"/>
			</g>
			<g class="st1">
				<path d="M1003.5,100.6h-15.1V85.6h15.1V100.6z M989.4,99.6h13.1V86.6h-13.1V99.6z"/>
			</g>
			<g class="st1">
				<path d="M1017.6,100.6h-15.1V85.6h15.1V100.6z M1003.5,99.6h13.1V86.6h-13.1V99.6z"/>
			</g>
			<g class="st1">
				<path d="M1031.6,100.6h-15.1V85.6h15.1V100.6z M1017.6,99.6h13.1V86.6h-13.1V99.6z"/>
			</g>
			<g class="st1">
				<path d="M1045.7,100.6h-15.1V85.6h15.1V100.6z M1031.6,99.6h13.1V86.6h-13.1V99.6z"/>
			</g>
			<g class="st1">
				<path d="M1059.8,100.6h-15.1V85.6h15.1V100.6z M1045.7,99.6h13.1V86.6h-13.1V99.6z"/>
			</g>
			<g class="st1">
				<path d="M1073.8,100.6h-15.1V85.6h15.1V100.6z M1059.8,99.6h13.1V86.6h-13.1V99.6z"/>
			</g>
			<g class="st1">
				<path d="M1087.9,100.6h-15.1V85.6h15.1V100.6z M1073.8,99.6h13.1V86.6h-13.1V99.6z"/>
			</g>
			<g class="st1">
				<path d="M905,114.7h-15.1V99.6H905V114.7z M890.9,113.7H904v-13.1h-13.1V113.7z"/>
			</g>
			<g class="st1">
				<path d="M919.1,114.7H904V99.6h15.1V114.7z M905,113.7h13.1v-13.1H905V113.7z"/>
			</g>
			<g class="st1">
				<path d="M933.1,114.7h-15.1V99.6h15.1V114.7z M919.1,113.7h13.1v-13.1h-13.1V113.7z"/>
			</g>
			<g class="st1">
				<path d="M947.2,114.7h-15.1V99.6h15.1V114.7z M933.1,113.7h13.1v-13.1h-13.1V113.7z"/>
			</g>
			<g class="st1">
				<path d="M961.3,114.7h-15.1V99.6h15.1V114.7z M947.2,113.7h13.1v-13.1h-13.1V113.7z"/>
			</g>
			<g class="st1">
				<path d="M975.3,114.7h-15.1V99.6h15.1V114.7z M961.3,113.7h13.1v-13.1h-13.1V113.7z"/>
			</g>
			<g class="st1">
				<path d="M989.4,114.7h-15.1V99.6h15.1V114.7z M975.3,113.7h13.1v-13.1h-13.1V113.7z"/>
			</g>
			<g class="st1">
				<path d="M1003.5,114.7h-15.1V99.6h15.1V114.7z M989.4,113.7h13.1v-13.1h-13.1V113.7z"/>
			</g>
			<g class="st1">
				<path d="M1017.6,114.7h-15.1V99.6h15.1V114.7z M1003.5,113.7h13.1v-13.1h-13.1V113.7z"/>
			</g>
			<g class="st1">
				<path d="M1031.6,114.7h-15.1V99.6h15.1V114.7z M1017.6,113.7h13.1v-13.1h-13.1V113.7z"/>
			</g>
			<g class="st1">
				<path d="M1045.7,114.7h-15.1V99.6h15.1V114.7z M1031.6,113.7h13.1v-13.1h-13.1V113.7z"/>
			</g>
			<g class="st1">
				<path d="M1059.8,114.7h-15.1V99.6h15.1V114.7z M1045.7,113.7h13.1v-13.1h-13.1V113.7z"/>
			</g>
			<g class="st1">
				<path d="M1073.8,114.7h-15.1V99.6h15.1V114.7z M1059.8,113.7h13.1v-13.1h-13.1V113.7z"/>
			</g>
			<g class="st1">
				<path d="M1087.9,114.7h-15.1V99.6h15.1V114.7z M1073.8,113.7h13.1v-13.1h-13.1V113.7z"/>
			</g>
			<g class="st1">
				<path d="M905,128.8h-15.1v-15.1H905V128.8z M890.9,127.8H904v-13.1h-13.1V127.8z"/>
			</g>
			<g class="st1">
				<path d="M919.1,128.8H904v-15.1h15.1V128.8z M905,127.8h13.1v-13.1H905V127.8z"/>
			</g>
			<g class="st1">
				<path d="M933.1,128.8h-15.1v-15.1h15.1V128.8z M919.1,127.8h13.1v-13.1h-13.1V127.8z"/>
			</g>
			<g class="st1">
				<path d="M947.2,128.8h-15.1v-15.1h15.1V128.8z M933.1,127.8h13.1v-13.1h-13.1V127.8z"/>
			</g>
			<g class="st1">
				<path d="M961.3,128.8h-15.1v-15.1h15.1V128.8z M947.2,127.8h13.1v-13.1h-13.1V127.8z"/>
			</g>
			<g class="st1">
				<path d="M975.3,128.8h-15.1v-15.1h15.1V128.8z M961.3,127.8h13.1v-13.1h-13.1V127.8z"/>
			</g>
			<g class="st1">
				<path d="M989.4,128.8h-15.1v-15.1h15.1V128.8z M975.3,127.8h13.1v-13.1h-13.1V127.8z"/>
			</g>
			<g class="st1">
				<path d="M1003.5,128.8h-15.1v-15.1h15.1V128.8z M989.4,127.8h13.1v-13.1h-13.1V127.8z"/>
			</g>
			<g class="st1">
				<path d="M1017.6,128.8h-15.1v-15.1h15.1V128.8z M1003.5,127.8h13.1v-13.1h-13.1V127.8z"/>
			</g>
			<g class="st1">
				<path d="M1031.6,128.8h-15.1v-15.1h15.1V128.8z M1017.6,127.8h13.1v-13.1h-13.1V127.8z"/>
			</g>
			<g class="st1">
				<path d="M1045.7,128.8h-15.1v-15.1h15.1V128.8z M1031.6,127.8h13.1v-13.1h-13.1V127.8z"/>
			</g>
			<g class="st1">
				<path d="M1059.8,128.8h-15.1v-15.1h15.1V128.8z M1045.7,127.8h13.1v-13.1h-13.1V127.8z"/>
			</g>
			<g class="st1">
				<path d="M1073.8,128.8h-15.1v-15.1h15.1V128.8z M1059.8,127.8h13.1v-13.1h-13.1V127.8z"/>
			</g>
			<g class="st1">
				<path d="M1087.9,128.8h-15.1v-15.1h15.1V128.8z M1073.8,127.8h13.1v-13.1h-13.1V127.8z"/>
			</g>
			<g class="st1">
				<path d="M905,142.8h-15.1v-15.1H905V142.8z M890.9,141.8H904v-13.1h-13.1V141.8z"/>
			</g>
			<g class="st1">
				<path d="M919.1,142.8H904v-15.1h15.1V142.8z M905,141.8h13.1v-13.1H905V141.8z"/>
			</g>
			<g class="st1">
				<path d="M933.1,142.8h-15.1v-15.1h15.1V142.8z M919.1,141.8h13.1v-13.1h-13.1V141.8z"/>
			</g>
			<g class="st1">
				<path d="M947.2,142.8h-15.1v-15.1h15.1V142.8z M933.1,141.8h13.1v-13.1h-13.1V141.8z"/>
			</g>
			<g class="st1">
				<path d="M961.3,142.8h-15.1v-15.1h15.1V142.8z M947.2,141.8h13.1v-13.1h-13.1V141.8z"/>
			</g>
			<g class="st1">
				<path d="M975.3,142.8h-15.1v-15.1h15.1V142.8z M961.3,141.8h13.1v-13.1h-13.1V141.8z"/>
			</g>
			<g class="st1">
				<path d="M989.4,142.8h-15.1v-15.1h15.1V142.8z M975.3,141.8h13.1v-13.1h-13.1V141.8z"/>
			</g>
			<g class="st1">
				<path d="M1003.5,142.8h-15.1v-15.1h15.1V142.8z M989.4,141.8h13.1v-13.1h-13.1V141.8z"/>
			</g>
			<g class="st1">
				<path d="M1017.6,142.8h-15.1v-15.1h15.1V142.8z M1003.5,141.8h13.1v-13.1h-13.1V141.8z"/>
			</g>
			<g class="st1">
				<path d="M1031.6,142.8h-15.1v-15.1h15.1V142.8z M1017.6,141.8h13.1v-13.1h-13.1V141.8z"/>
			</g>
			<g class="st1">
				<path d="M1045.7,142.8h-15.1v-15.1h15.1V142.8z M1031.6,141.8h13.1v-13.1h-13.1V141.8z"/>
			</g>
			<g class="st1">
				<path d="M1059.8,142.8h-15.1v-15.1h15.1V142.8z M1045.7,141.8h13.1v-13.1h-13.1V141.8z"/>
			</g>
			<g class="st1">
				<path d="M1073.8,142.8h-15.1v-15.1h15.1V142.8z M1059.8,141.8h13.1v-13.1h-13.1V141.8z"/>
			</g>
			<g class="st1">
				<path d="M1087.9,142.8h-15.1v-15.1h15.1V142.8z M1073.8,141.8h13.1v-13.1h-13.1V141.8z"/>
			</g>
			<g class="st1">
				<path d="M905,156.9h-15.1v-15.1H905V156.9z M890.9,155.9H904v-13.1h-13.1V155.9z"/>
			</g>
			<g class="st1">
				<path d="M919.1,156.9H904v-15.1h15.1V156.9z M905,155.9h13.1v-13.1H905V155.9z"/>
			</g>
			<g class="st1">
				<path d="M933.1,156.9h-15.1v-15.1h15.1V156.9z M919.1,155.9h13.1v-13.1h-13.1V155.9z"/>
			</g>
			<g class="st1">
				<path d="M947.2,156.9h-15.1v-15.1h15.1V156.9z M933.1,155.9h13.1v-13.1h-13.1V155.9z"/>
			</g>
			<g class="st1">
				<path d="M961.3,156.9h-15.1v-15.1h15.1V156.9z M947.2,155.9h13.1v-13.1h-13.1V155.9z"/>
			</g>
			<g class="st1">
				<path d="M975.3,156.9h-15.1v-15.1h15.1V156.9z M961.3,155.9h13.1v-13.1h-13.1V155.9z"/>
			</g>
			<g class="st1">
				<path d="M989.4,156.9h-15.1v-15.1h15.1V156.9z M975.3,155.9h13.1v-13.1h-13.1V155.9z"/>
			</g>
			<g class="st1">
				<path d="M1003.5,156.9h-15.1v-15.1h15.1V156.9z M989.4,155.9h13.1v-13.1h-13.1V155.9z"/>
			</g>
			<g class="st1">
				<path d="M1017.6,156.9h-15.1v-15.1h15.1V156.9z M1003.5,155.9h13.1v-13.1h-13.1V155.9z"/>
			</g>
			<g class="st1">
				<path d="M1031.6,156.9h-15.1v-15.1h15.1V156.9z M1017.6,155.9h13.1v-13.1h-13.1V155.9z"/>
			</g>
			<g class="st1">
				<path d="M1045.7,156.9h-15.1v-15.1h15.1V156.9z M1031.6,155.9h13.1v-13.1h-13.1V155.9z"/>
			</g>
			<g class="st1">
				<path d="M1059.8,156.9h-15.1v-15.1h15.1V156.9z M1045.7,155.9h13.1v-13.1h-13.1V155.9z"/>
			</g>
			<g class="st1">
				<path d="M1073.8,156.9h-15.1v-15.1h15.1V156.9z M1059.8,155.9h13.1v-13.1h-13.1V155.9z"/>
			</g>
			<g class="st1">
				<path d="M1087.9,156.9h-15.1v-15.1h15.1V156.9z M1073.8,155.9h13.1v-13.1h-13.1V155.9z"/>
			</g>
			<g class="st1">
				<path d="M905,171h-15.1v-15.1H905V171z M890.9,170H904v-13.1h-13.1V170z"/>
			</g>
			<g class="st1">
				<path d="M919.1,171H904v-15.1h15.1V171z M905,170h13.1v-13.1H905V170z"/>
			</g>
			<g class="st1">
				<path d="M933.1,171h-15.1v-15.1h15.1V171z M919.1,170h13.1v-13.1h-13.1V170z"/>
			</g>
			<g class="st1">
				<path d="M947.2,171h-15.1v-15.1h15.1V171z M933.1,170h13.1v-13.1h-13.1V170z"/>
			</g>
			<g class="st1">
				<path d="M961.3,171h-15.1v-15.1h15.1V171z M947.2,170h13.1v-13.1h-13.1V170z"/>
			</g>
			<g class="st1">
				<path d="M975.3,171h-15.1v-15.1h15.1V171z M961.3,170h13.1v-13.1h-13.1V170z"/>
			</g>
			<g class="st1">
				<path d="M989.4,171h-15.1v-15.1h15.1V171z M975.3,170h13.1v-13.1h-13.1V170z"/>
			</g>
			<g class="st1">
				<path d="M1003.5,171h-15.1v-15.1h15.1V171z M989.4,170h13.1v-13.1h-13.1V170z"/>
			</g>
			<g class="st1">
				<path d="M1017.6,171h-15.1v-15.1h15.1V171z M1003.5,170h13.1v-13.1h-13.1V170z"/>
			</g>
			<g class="st1">
				<path d="M1031.6,171h-15.1v-15.1h15.1V171z M1017.6,170h13.1v-13.1h-13.1V170z"/>
			</g>
			<g class="st1">
				<path d="M1045.7,171h-15.1v-15.1h15.1V171z M1031.6,170h13.1v-13.1h-13.1V170z"/>
			</g>
			<g class="st1">
				<path d="M1059.8,171h-15.1v-15.1h15.1V171z M1045.7,170h13.1v-13.1h-13.1V170z"/>
			</g>
			<g class="st1">
				<path d="M1073.8,171h-15.1v-15.1h15.1V171z M1059.8,170h13.1v-13.1h-13.1V170z"/>
			</g>
			<g class="st1">
				<path d="M1087.9,171h-15.1v-15.1h15.1V171z M1073.8,170h13.1v-13.1h-13.1V170z"/>
			</g>
			<g class="st1">
				<path d="M905,185h-15.1V170H905V185z M890.9,184H904V171h-13.1V184z"/>
			</g>
			<g class="st1">
				<path d="M919.1,185H904V170h15.1V185z M905,184h13.1V171H905V184z"/>
			</g>
			<g class="st1">
				<path d="M933.1,185h-15.1V170h15.1V185z M919.1,184h13.1V171h-13.1V184z"/>
			</g>
			<g class="st1">
				<path d="M947.2,185h-15.1V170h15.1V185z M933.1,184h13.1V171h-13.1V184z"/>
			</g>
			<g class="st1">
				<path d="M961.3,185h-15.1V170h15.1V185z M947.2,184h13.1V171h-13.1V184z"/>
			</g>
			<g class="st1">
				<path d="M975.3,185h-15.1V170h15.1V185z M961.3,184h13.1V171h-13.1V184z"/>
			</g>
			<g class="st1">
				<path d="M989.4,185h-15.1V170h15.1V185z M975.3,184h13.1V171h-13.1V184z"/>
			</g>
			<g class="st1">
				<path d="M1003.5,185h-15.1V170h15.1V185z M989.4,184h13.1V171h-13.1V184z"/>
			</g>
			<g class="st1">
				<path d="M1017.6,185h-15.1V170h15.1V185z M1003.5,184h13.1V171h-13.1V184z"/>
			</g>
			<g class="st1">
				<path d="M1031.6,185h-15.1V170h15.1V185z M1017.6,184h13.1V171h-13.1V184z"/>
			</g>
			<g class="st1">
				<path d="M1045.7,185h-15.1V170h15.1V185z M1031.6,184h13.1V171h-13.1V184z"/>
			</g>
			<g class="st1">
				<path d="M1059.8,185h-15.1V170h15.1V185z M1045.7,184h13.1V171h-13.1V184z"/>
			</g>
			<g class="st1">
				<path d="M1073.8,185h-15.1V170h15.1V185z M1059.8,184h13.1V171h-13.1V184z"/>
			</g>
			<g class="st1">
				<path d="M1087.9,185h-15.1V170h15.1V185z M1073.8,184h13.1V171h-13.1V184z"/>
			</g>
			<g class="st1">
				<path d="M905,199.1h-15.1V184H905V199.1z M890.9,198.1H904V185h-13.1V198.1z"/>
			</g>
			<g class="st1">
				<path d="M919.1,199.1H904V184h15.1V199.1z M905,198.1h13.1V185H905V198.1z"/>
			</g>
			<g class="st1">
				<path d="M933.1,199.1h-15.1V184h15.1V199.1z M919.1,198.1h13.1V185h-13.1V198.1z"/>
			</g>
			<g class="st1">
				<path d="M947.2,199.1h-15.1V184h15.1V199.1z M933.1,198.1h13.1V185h-13.1V198.1z"/>
			</g>
			<g class="st1">
				<path d="M961.3,199.1h-15.1V184h15.1V199.1z M947.2,198.1h13.1V185h-13.1V198.1z"/>
			</g>
			<g class="st1">
				<path d="M975.3,199.1h-15.1V184h15.1V199.1z M961.3,198.1h13.1V185h-13.1V198.1z"/>
			</g>
			<g class="st1">
				<path d="M989.4,199.1h-15.1V184h15.1V199.1z M975.3,198.1h13.1V185h-13.1V198.1z"/>
			</g>
			<g class="st1">
				<path d="M1003.5,199.1h-15.1V184h15.1V199.1z M989.4,198.1h13.1V185h-13.1V198.1z"/>
			</g>
			<g class="st1">
				<path d="M1017.6,199.1h-15.1V184h15.1V199.1z M1003.5,198.1h13.1V185h-13.1V198.1z"/>
			</g>
			<g class="st1">
				<path d="M1031.6,199.1h-15.1V184h15.1V199.1z M1017.6,198.1h13.1V185h-13.1V198.1z"/>
			</g>
			<g class="st1">
				<path d="M1045.7,199.1h-15.1V184h15.1V199.1z M1031.6,198.1h13.1V185h-13.1V198.1z"/>
			</g>
			<g class="st1">
				<path d="M1059.8,199.1h-15.1V184h15.1V199.1z M1045.7,198.1h13.1V185h-13.1V198.1z"/>
			</g>
			<g class="st1">
				<path d="M1073.8,199.1h-15.1V184h15.1V199.1z M1059.8,198.1h13.1V185h-13.1V198.1z"/>
			</g>
			<g class="st1">
				<path d="M1087.9,199.1h-15.1V184h15.1V199.1z M1073.8,198.1h13.1V185h-13.1V198.1z"/>
			</g>
			<g class="st1">
				<path d="M1102,16.2h-15.1V1.1h15.1V16.2z M1087.9,15.2h13.1V2.1h-13.1V15.2z"/>
			</g>
			<g class="st1">
				<path d="M1102,30.3h-15.1V15.2h15.1V30.3z M1087.9,29.3h13.1V16.2h-13.1V29.3z"/>
			</g>
			<g class="st1">
				<path d="M1102,44.3h-15.1V29.3h15.1V44.3z M1087.9,43.3h13.1V30.3h-13.1V43.3z"/>
			</g>
			<g class="st1">
				<path d="M1102,58.4h-15.1V43.3h15.1V58.4z M1087.9,57.4h13.1V44.3h-13.1V57.4z"/>
			</g>
			<g class="st1">
				<path d="M1102,72.5h-15.1V57.4h15.1V72.5z M1087.9,71.5h13.1V58.4h-13.1V71.5z"/>
			</g>
			<g class="st1">
				<path d="M1102,86.6h-15.1V71.5h15.1V86.6z M1087.9,85.6h13.1V72.5h-13.1V85.6z"/>
			</g>
			<g class="st1">
				<path d="M1102,100.6h-15.1V85.6h15.1V100.6z M1087.9,99.6h13.1V86.6h-13.1V99.6z"/>
			</g>
			<g class="st1">
				<path d="M1102,114.7h-15.1V99.6h15.1V114.7z M1087.9,113.7h13.1v-13.1h-13.1V113.7z"/>
			</g>
			<g class="st1">
				<path d="M1102,128.8h-15.1v-15.1h15.1V128.8z M1087.9,127.8h13.1v-13.1h-13.1V127.8z"/>
			</g>
			<g class="st1">
				<path d="M1102,142.8h-15.1v-15.1h15.1V142.8z M1087.9,141.8h13.1v-13.1h-13.1V141.8z"/>
			</g>
			<g class="st1">
				<path d="M1102,156.9h-15.1v-15.1h15.1V156.9z M1087.9,155.9h13.1v-13.1h-13.1V155.9z"/>
			</g>
			<g class="st1">
				<path d="M1102,171h-15.1v-15.1h15.1V171z M1087.9,170h13.1v-13.1h-13.1V170z"/>
			</g>
			<g class="st1">
				<path d="M1102,185h-15.1V170h15.1V185z M1087.9,184h13.1V171h-13.1V184z"/>
			</g>
			<g class="st1">
				<path d="M1102,199.1h-15.1V184h15.1V199.1z M1087.9,198.1h13.1V185h-13.1V198.1z"/>
			</g>
			<g class="st1">
				<path d="M1116.1,16.2H1101V1.1h15.1V16.2z M1102,15.2h13.1V2.1H1102V15.2z"/>
			</g>
			<g class="st1">
				<path d="M1116.1,30.3H1101V15.2h15.1V30.3z M1102,29.3h13.1V16.2H1102V29.3z"/>
			</g>
			<g class="st1">
				<path d="M1116.1,44.3H1101V29.3h15.1V44.3z M1102,43.3h13.1V30.3H1102V43.3z"/>
			</g>
			<g class="st1">
				<path d="M1116.1,58.4H1101V43.3h15.1V58.4z M1102,57.4h13.1V44.3H1102V57.4z"/>
			</g>
			<g class="st1">
				<path d="M1116.1,72.5H1101V57.4h15.1V72.5z M1102,71.5h13.1V58.4H1102V71.5z"/>
			</g>
			<g class="st1">
				<path d="M1116.1,86.6H1101V71.5h15.1V86.6z M1102,85.6h13.1V72.5H1102V85.6z"/>
			</g>
			<g class="st1">
				<path d="M1116.1,100.6H1101V85.6h15.1V100.6z M1102,99.6h13.1V86.6H1102V99.6z"/>
			</g>
			<g class="st1">
				<path d="M1116.1,114.7H1101V99.6h15.1V114.7z M1102,113.7h13.1v-13.1H1102V113.7z"/>
			</g>
			<g class="st1">
				<path d="M1116.1,128.8H1101v-15.1h15.1V128.8z M1102,127.8h13.1v-13.1H1102V127.8z"/>
			</g>
			<g class="st1">
				<path d="M1116.1,142.8H1101v-15.1h15.1V142.8z M1102,141.8h13.1v-13.1H1102V141.8z"/>
			</g>
			<g class="st1">
				<path d="M1116.1,156.9H1101v-15.1h15.1V156.9z M1102,155.9h13.1v-13.1H1102V155.9z"/>
			</g>
			<g class="st1">
				<path d="M1116.1,171H1101v-15.1h15.1V171z M1102,170h13.1v-13.1H1102V170z"/>
			</g>
			<g class="st1">
				<path d="M1116.1,185H1101V170h15.1V185z M1102,184h13.1V171H1102V184z"/>
			</g>
			<g class="st1">
				<path d="M1116.1,199.1H1101V184h15.1V199.1z M1102,198.1h13.1V185H1102V198.1z"/>
			</g>
			<g class="st1">
				<path d="M1130.1,16.2h-15.1V1.1h15.1V16.2z M1116.1,15.2h13.1V2.1h-13.1V15.2z"/>
			</g>
			<g class="st1">
				<path d="M1130.1,30.3h-15.1V15.2h15.1V30.3z M1116.1,29.3h13.1V16.2h-13.1V29.3z"/>
			</g>
			<g class="st1">
				<path d="M1130.1,44.3h-15.1V29.3h15.1V44.3z M1116.1,43.3h13.1V30.3h-13.1V43.3z"/>
			</g>
			<g class="st1">
				<path d="M1130.1,58.4h-15.1V43.3h15.1V58.4z M1116.1,57.4h13.1V44.3h-13.1V57.4z"/>
			</g>
			<g class="st1">
				<path d="M1130.1,72.5h-15.1V57.4h15.1V72.5z M1116.1,71.5h13.1V58.4h-13.1V71.5z"/>
			</g>
			<g class="st1">
				<path d="M1130.1,86.6h-15.1V71.5h15.1V86.6z M1116.1,85.6h13.1V72.5h-13.1V85.6z"/>
			</g>
			<g class="st1">
				<path d="M1130.1,100.6h-15.1V85.6h15.1V100.6z M1116.1,99.6h13.1V86.6h-13.1V99.6z"/>
			</g>
			<g class="st1">
				<path d="M1130.1,114.7h-15.1V99.6h15.1V114.7z M1116.1,113.7h13.1v-13.1h-13.1V113.7z"/>
			</g>
			<g class="st1">
				<path d="M1130.1,128.8h-15.1v-15.1h15.1V128.8z M1116.1,127.8h13.1v-13.1h-13.1V127.8z"/>
			</g>
			<g class="st1">
				<path d="M1130.1,142.8h-15.1v-15.1h15.1V142.8z M1116.1,141.8h13.1v-13.1h-13.1V141.8z"/>
			</g>
			<g class="st1">
				<path d="M1130.1,156.9h-15.1v-15.1h15.1V156.9z M1116.1,155.9h13.1v-13.1h-13.1V155.9z"/>
			</g>
			<g class="st1">
				<path d="M1130.1,171h-15.1v-15.1h15.1V171z M1116.1,170h13.1v-13.1h-13.1V170z"/>
			</g>
			<g class="st1">
				<path d="M1130.1,185h-15.1V170h15.1V185z M1116.1,184h13.1V171h-13.1V184z"/>
			</g>
			<g class="st1">
				<path d="M1130.1,199.1h-15.1V184h15.1V199.1z M1116.1,198.1h13.1V185h-13.1V198.1z"/>
			</g>
			<g class="st1">
				<path d="M1144.2,16.2h-15.1V1.1h15.1V16.2z M1130.1,15.2h13.1V2.1h-13.1V15.2z"/>
			</g>
			<g class="st1">
				<path d="M1144.2,30.3h-15.1V15.2h15.1V30.3z M1130.1,29.3h13.1V16.2h-13.1V29.3z"/>
			</g>
			<g class="st1">
				<path d="M1144.2,44.3h-15.1V29.3h15.1V44.3z M1130.1,43.3h13.1V30.3h-13.1V43.3z"/>
			</g>
			<g class="st1">
				<path d="M1144.2,58.4h-15.1V43.3h15.1V58.4z M1130.1,57.4h13.1V44.3h-13.1V57.4z"/>
			</g>
			<g class="st1">
				<path d="M1144.2,72.5h-15.1V57.4h15.1V72.5z M1130.1,71.5h13.1V58.4h-13.1V71.5z"/>
			</g>
			<g class="st1">
				<path d="M1144.2,86.6h-15.1V71.5h15.1V86.6z M1130.1,85.6h13.1V72.5h-13.1V85.6z"/>
			</g>
			<g class="st1">
				<path d="M1144.2,100.6h-15.1V85.6h15.1V100.6z M1130.1,99.6h13.1V86.6h-13.1V99.6z"/>
			</g>
			<g class="st1">
				<path d="M1144.2,114.7h-15.1V99.6h15.1V114.7z M1130.1,113.7h13.1v-13.1h-13.1V113.7z"/>
			</g>
			<g class="st1">
				<path d="M1144.2,128.8h-15.1v-15.1h15.1V128.8z M1130.1,127.8h13.1v-13.1h-13.1V127.8z"/>
			</g>
			<g class="st1">
				<path d="M1144.2,142.8h-15.1v-15.1h15.1V142.8z M1130.1,141.8h13.1v-13.1h-13.1V141.8z"/>
			</g>
			<g class="st1">
				<path d="M1144.2,156.9h-15.1v-15.1h15.1V156.9z M1130.1,155.9h13.1v-13.1h-13.1V155.9z"/>
			</g>
			<g class="st1">
				<path d="M1144.2,171h-15.1v-15.1h15.1V171z M1130.1,170h13.1v-13.1h-13.1V170z"/>
			</g>
			<g class="st1">
				<path d="M1144.2,185h-15.1V170h15.1V185z M1130.1,184h13.1V171h-13.1V184z"/>
			</g>
			<g class="st1">
				<path d="M1144.2,199.1h-15.1V184h15.1V199.1z M1130.1,198.1h13.1V185h-13.1V198.1z"/>
			</g>
			<g class="st1">
				<path d="M1158.3,16.2h-15.1V1.1h15.1V16.2z M1144.2,15.2h13.1V2.1h-13.1V15.2z"/>
			</g>
			<g class="st1">
				<path d="M1158.3,30.3h-15.1V15.2h15.1V30.3z M1144.2,29.3h13.1V16.2h-13.1V29.3z"/>
			</g>
			<g class="st1">
				<path d="M1158.3,44.3h-15.1V29.3h15.1V44.3z M1144.2,43.3h13.1V30.3h-13.1V43.3z"/>
			</g>
			<g class="st1">
				<path d="M1158.3,58.4h-15.1V43.3h15.1V58.4z M1144.2,57.4h13.1V44.3h-13.1V57.4z"/>
			</g>
			<g class="st1">
				<path d="M1158.3,72.5h-15.1V57.4h15.1V72.5z M1144.2,71.5h13.1V58.4h-13.1V71.5z"/>
			</g>
			<g class="st1">
				<path d="M1158.3,86.6h-15.1V71.5h15.1V86.6z M1144.2,85.6h13.1V72.5h-13.1V85.6z"/>
			</g>
			<g class="st1">
				<path d="M1158.3,100.6h-15.1V85.6h15.1V100.6z M1144.2,99.6h13.1V86.6h-13.1V99.6z"/>
			</g>
			<g class="st1">
				<path d="M1158.3,114.7h-15.1V99.6h15.1V114.7z M1144.2,113.7h13.1v-13.1h-13.1V113.7z"/>
			</g>
			<g class="st1">
				<path d="M1158.3,128.8h-15.1v-15.1h15.1V128.8z M1144.2,127.8h13.1v-13.1h-13.1V127.8z"/>
			</g>
			<g class="st1">
				<path d="M1158.3,142.8h-15.1v-15.1h15.1V142.8z M1144.2,141.8h13.1v-13.1h-13.1V141.8z"/>
			</g>
			<g class="st1">
				<path d="M1158.3,156.9h-15.1v-15.1h15.1V156.9z M1144.2,155.9h13.1v-13.1h-13.1V155.9z"/>
			</g>
			<g class="st1">
				<path d="M1158.3,171h-15.1v-15.1h15.1V171z M1144.2,170h13.1v-13.1h-13.1V170z"/>
			</g>
			<g class="st1">
				<path d="M1158.3,185h-15.1V170h15.1V185z M1144.2,184h13.1V171h-13.1V184z"/>
			</g>
			<g class="st1">
				<path d="M1158.3,199.1h-15.1V184h15.1V199.1z M1144.2,198.1h13.1V185h-13.1V198.1z"/>
			</g>
			<g class="st1">
				<path d="M1172.3,16.2h-15.1V1.1h15.1V16.2z M1158.3,15.2h13.1V2.1h-13.1V15.2z"/>
			</g>
			<g class="st1">
				<path d="M1172.3,30.3h-15.1V15.2h15.1V30.3z M1158.3,29.3h13.1V16.2h-13.1V29.3z"/>
			</g>
			<g class="st1">
				<path d="M1172.3,44.3h-15.1V29.3h15.1V44.3z M1158.3,43.3h13.1V30.3h-13.1V43.3z"/>
			</g>
			<g class="st1">
				<path d="M1172.3,58.4h-15.1V43.3h15.1V58.4z M1158.3,57.4h13.1V44.3h-13.1V57.4z"/>
			</g>
			<g class="st1">
				<path d="M1172.3,72.5h-15.1V57.4h15.1V72.5z M1158.3,71.5h13.1V58.4h-13.1V71.5z"/>
			</g>
			<g class="st1">
				<path d="M1172.3,86.6h-15.1V71.5h15.1V86.6z M1158.3,85.6h13.1V72.5h-13.1V85.6z"/>
			</g>
			<g class="st1">
				<path d="M1172.3,100.6h-15.1V85.6h15.1V100.6z M1158.3,99.6h13.1V86.6h-13.1V99.6z"/>
			</g>
			<g class="st1">
				<path d="M1172.3,114.7h-15.1V99.6h15.1V114.7z M1158.3,113.7h13.1v-13.1h-13.1V113.7z"/>
			</g>
			<g class="st1">
				<path d="M1172.3,128.8h-15.1v-15.1h15.1V128.8z M1158.3,127.8h13.1v-13.1h-13.1V127.8z"/>
			</g>
			<g class="st1">
				<path d="M1172.3,142.8h-15.1v-15.1h15.1V142.8z M1158.3,141.8h13.1v-13.1h-13.1V141.8z"/>
			</g>
			<g class="st1">
				<path d="M1172.3,156.9h-15.1v-15.1h15.1V156.9z M1158.3,155.9h13.1v-13.1h-13.1V155.9z"/>
			</g>
			<g class="st1">
				<path d="M1172.3,171h-15.1v-15.1h15.1V171z M1158.3,170h13.1v-13.1h-13.1V170z"/>
			</g>
			<g class="st1">
				<path d="M1172.3,185h-15.1V170h15.1V185z M1158.3,184h13.1V171h-13.1V184z"/>
			</g>
			<g class="st1">
				<path d="M1172.3,199.1h-15.1V184h15.1V199.1z M1158.3,198.1h13.1V185h-13.1V198.1z"/>
			</g>
			<g class="st1">
				<path d="M1186.4,16.2h-15.1V1.1h15.1V16.2z M1172.3,15.2h13.1V2.1h-13.1V15.2z"/>
			</g>
			<g class="st1">
				<path d="M1186.4,30.3h-15.1V15.2h15.1V30.3z M1172.3,29.3h13.1V16.2h-13.1V29.3z"/>
			</g>
			<g class="st1">
				<path d="M1186.4,44.3h-15.1V29.3h15.1V44.3z M1172.3,43.3h13.1V30.3h-13.1V43.3z"/>
			</g>
			<g class="st1">
				<path d="M1186.4,58.4h-15.1V43.3h15.1V58.4z M1172.3,57.4h13.1V44.3h-13.1V57.4z"/>
			</g>
			<g class="st1">
				<path d="M1186.4,72.5h-15.1V57.4h15.1V72.5z M1172.3,71.5h13.1V58.4h-13.1V71.5z"/>
			</g>
			<g class="st1">
				<path d="M1186.4,86.6h-15.1V71.5h15.1V86.6z M1172.3,85.6h13.1V72.5h-13.1V85.6z"/>
			</g>
			<g class="st1">
				<path d="M1186.4,100.6h-15.1V85.6h15.1V100.6z M1172.3,99.6h13.1V86.6h-13.1V99.6z"/>
			</g>
			<g class="st1">
				<path d="M1186.4,114.7h-15.1V99.6h15.1V114.7z M1172.3,113.7h13.1v-13.1h-13.1V113.7z"/>
			</g>
			<g class="st1">
				<path d="M1186.4,128.8h-15.1v-15.1h15.1V128.8z M1172.3,127.8h13.1v-13.1h-13.1V127.8z"/>
			</g>
			<g class="st1">
				<path d="M1186.4,142.8h-15.1v-15.1h15.1V142.8z M1172.3,141.8h13.1v-13.1h-13.1V141.8z"/>
			</g>
			<g class="st1">
				<path d="M1186.4,156.9h-15.1v-15.1h15.1V156.9z M1172.3,155.9h13.1v-13.1h-13.1V155.9z"/>
			</g>
			<g class="st1">
				<path d="M1186.4,171h-15.1v-15.1h15.1V171z M1172.3,170h13.1v-13.1h-13.1V170z"/>
			</g>
			<g class="st1">
				<path d="M1186.4,185h-15.1V170h15.1V185z M1172.3,184h13.1V171h-13.1V184z"/>
			</g>
			<g class="st1">
				<path d="M1186.4,199.1h-15.1V184h15.1V199.1z M1172.3,198.1h13.1V185h-13.1V198.1z"/>
			</g>
			<g class="st1">
				<path d="M1200.5,16.2h-15.1V1.1h15.1V16.2z M1186.4,15.2h13.1V2.1h-13.1V15.2z"/>
			</g>
			<g class="st1">
				<path d="M1200.5,30.3h-15.1V15.2h15.1V30.3z M1186.4,29.3h13.1V16.2h-13.1V29.3z"/>
			</g>
			<g class="st1">
				<path d="M1200.5,44.3h-15.1V29.3h15.1V44.3z M1186.4,43.3h13.1V30.3h-13.1V43.3z"/>
			</g>
			<g class="st1">
				<path d="M1200.5,58.4h-15.1V43.3h15.1V58.4z M1186.4,57.4h13.1V44.3h-13.1V57.4z"/>
			</g>
			<g class="st1">
				<path d="M1200.5,72.5h-15.1V57.4h15.1V72.5z M1186.4,71.5h13.1V58.4h-13.1V71.5z"/>
			</g>
			<g class="st1">
				<path d="M1200.5,86.6h-15.1V71.5h15.1V86.6z M1186.4,85.6h13.1V72.5h-13.1V85.6z"/>
			</g>
			<g class="st1">
				<path d="M1200.5,100.6h-15.1V85.6h15.1V100.6z M1186.4,99.6h13.1V86.6h-13.1V99.6z"/>
			</g>
			<g class="st1">
				<path d="M1200.5,114.7h-15.1V99.6h15.1V114.7z M1186.4,113.7h13.1v-13.1h-13.1V113.7z"/>
			</g>
			<g class="st1">
				<path d="M1200.5,128.8h-15.1v-15.1h15.1V128.8z M1186.4,127.8h13.1v-13.1h-13.1V127.8z"/>
			</g>
			<g class="st1">
				<path d="M1200.5,142.8h-15.1v-15.1h15.1V142.8z M1186.4,141.8h13.1v-13.1h-13.1V141.8z"/>
			</g>
			<g class="st1">
				<path d="M1200.5,156.9h-15.1v-15.1h15.1V156.9z M1186.4,155.9h13.1v-13.1h-13.1V155.9z"/>
			</g>
			<g class="st1">
				<path d="M1200.5,171h-15.1v-15.1h15.1V171z M1186.4,170h13.1v-13.1h-13.1V170z"/>
			</g>
			<g class="st1">
				<path d="M1200.5,185h-15.1V170h15.1V185z M1186.4,184h13.1V171h-13.1V184z"/>
			</g>
			<g class="st1">
				<path d="M1200.5,199.1h-15.1V184h15.1V199.1z M1186.4,198.1h13.1V185h-13.1V198.1z"/>
			</g>
			<g class="st1">
				<path d="M1214.5,16.2h-15.1V1.1h15.1V16.2z M1200.5,15.2h13.1V2.1h-13.1V15.2z"/>
			</g>
			<g class="st1">
				<path d="M1214.5,30.3h-15.1V15.2h15.1V30.3z M1200.5,29.3h13.1V16.2h-13.1V29.3z"/>
			</g>
			<g class="st1">
				<path d="M1214.5,44.3h-15.1V29.3h15.1V44.3z M1200.5,43.3h13.1V30.3h-13.1V43.3z"/>
			</g>
			<g class="st1">
				<path d="M1214.5,58.4h-15.1V43.3h15.1V58.4z M1200.5,57.4h13.1V44.3h-13.1V57.4z"/>
			</g>
			<g class="st1">
				<path d="M1214.5,72.5h-15.1V57.4h15.1V72.5z M1200.5,71.5h13.1V58.4h-13.1V71.5z"/>
			</g>
			<g class="st1">
				<path d="M1214.5,86.6h-15.1V71.5h15.1V86.6z M1200.5,85.6h13.1V72.5h-13.1V85.6z"/>
			</g>
			<g class="st1">
				<path d="M1214.5,100.6h-15.1V85.6h15.1V100.6z M1200.5,99.6h13.1V86.6h-13.1V99.6z"/>
			</g>
			<g class="st1">
				<path d="M1214.5,114.7h-15.1V99.6h15.1V114.7z M1200.5,113.7h13.1v-13.1h-13.1V113.7z"/>
			</g>
			<g class="st1">
				<path d="M1214.5,128.8h-15.1v-15.1h15.1V128.8z M1200.5,127.8h13.1v-13.1h-13.1V127.8z"/>
			</g>
			<g class="st1">
				<path d="M1214.5,142.8h-15.1v-15.1h15.1V142.8z M1200.5,141.8h13.1v-13.1h-13.1V141.8z"/>
			</g>
			<g class="st1">
				<path d="M1214.5,156.9h-15.1v-15.1h15.1V156.9z M1200.5,155.9h13.1v-13.1h-13.1V155.9z"/>
			</g>
			<g class="st1">
				<path d="M1214.5,171h-15.1v-15.1h15.1V171z M1200.5,170h13.1v-13.1h-13.1V170z"/>
			</g>
			<g class="st1">
				<path d="M1214.5,185h-15.1V170h15.1V185z M1200.5,184h13.1V171h-13.1V184z"/>
			</g>
			<g class="st1">
				<path d="M1214.5,199.1h-15.1V184h15.1V199.1z M1200.5,198.1h13.1V185h-13.1V198.1z"/>
			</g>
			<g class="st1">
				<path d="M1228.6,16.2h-15.1V1.1h15.1V16.2z M1214.5,15.2h13.1V2.1h-13.1V15.2z"/>
			</g>
			<g class="st1">
				<path d="M1228.6,30.3h-15.1V15.2h15.1V30.3z M1214.5,29.3h13.1V16.2h-13.1V29.3z"/>
			</g>
			<g class="st1">
				<path d="M1228.6,44.3h-15.1V29.3h15.1V44.3z M1214.5,43.3h13.1V30.3h-13.1V43.3z"/>
			</g>
			<g class="st1">
				<path d="M1228.6,58.4h-15.1V43.3h15.1V58.4z M1214.5,57.4h13.1V44.3h-13.1V57.4z"/>
			</g>
			<g class="st1">
				<path d="M1228.6,72.5h-15.1V57.4h15.1V72.5z M1214.5,71.5h13.1V58.4h-13.1V71.5z"/>
			</g>
			<g class="st1">
				<path d="M1228.6,86.6h-15.1V71.5h15.1V86.6z M1214.5,85.6h13.1V72.5h-13.1V85.6z"/>
			</g>
			<g class="st1">
				<path d="M1228.6,100.6h-15.1V85.6h15.1V100.6z M1214.5,99.6h13.1V86.6h-13.1V99.6z"/>
			</g>
			<g class="st1">
				<path d="M1228.6,114.7h-15.1V99.6h15.1V114.7z M1214.5,113.7h13.1v-13.1h-13.1V113.7z"/>
			</g>
			<g class="st1">
				<path d="M1228.6,128.8h-15.1v-15.1h15.1V128.8z M1214.5,127.8h13.1v-13.1h-13.1V127.8z"/>
			</g>
			<g class="st1">
				<path d="M1228.6,142.8h-15.1v-15.1h15.1V142.8z M1214.5,141.8h13.1v-13.1h-13.1V141.8z"/>
			</g>
			<g class="st1">
				<path d="M1228.6,156.9h-15.1v-15.1h15.1V156.9z M1214.5,155.9h13.1v-13.1h-13.1V155.9z"/>
			</g>
			<g class="st1">
				<path d="M1228.6,171h-15.1v-15.1h15.1V171z M1214.5,170h13.1v-13.1h-13.1V170z"/>
			</g>
			<g class="st1">
				<path d="M1228.6,185h-15.1V170h15.1V185z M1214.5,184h13.1V171h-13.1V184z"/>
			</g>
			<g class="st1">
				<path d="M1228.6,199.1h-15.1V184h15.1V199.1z M1214.5,198.1h13.1V185h-13.1V198.1z"/>
			</g>
			<g class="st1">
				<path d="M1242.7,16.2h-15.1V1.1h15.1V16.2z M1228.6,15.2h13.1V2.1h-13.1V15.2z"/>
			</g>
			<g class="st1">
				<path d="M1242.7,30.3h-15.1V15.2h15.1V30.3z M1228.6,29.3h13.1V16.2h-13.1V29.3z"/>
			</g>
			<g class="st1">
				<path d="M1242.7,44.3h-15.1V29.3h15.1V44.3z M1228.6,43.3h13.1V30.3h-13.1V43.3z"/>
			</g>
			<g class="st1">
				<path d="M1242.7,58.4h-15.1V43.3h15.1V58.4z M1228.6,57.4h13.1V44.3h-13.1V57.4z"/>
			</g>
			<g class="st1">
				<path d="M1242.7,72.5h-15.1V57.4h15.1V72.5z M1228.6,71.5h13.1V58.4h-13.1V71.5z"/>
			</g>
			<g class="st1">
				<path d="M1242.7,86.6h-15.1V71.5h15.1V86.6z M1228.6,85.6h13.1V72.5h-13.1V85.6z"/>
			</g>
			<g class="st1">
				<path d="M1242.7,100.6h-15.1V85.6h15.1V100.6z M1228.6,99.6h13.1V86.6h-13.1V99.6z"/>
			</g>
			<g class="st1">
				<path d="M1242.7,114.7h-15.1V99.6h15.1V114.7z M1228.6,113.7h13.1v-13.1h-13.1V113.7z"/>
			</g>
			<g class="st1">
				<path d="M1242.7,128.8h-15.1v-15.1h15.1V128.8z M1228.6,127.8h13.1v-13.1h-13.1V127.8z"/>
			</g>
			<g class="st1">
				<path d="M1242.7,142.8h-15.1v-15.1h15.1V142.8z M1228.6,141.8h13.1v-13.1h-13.1V141.8z"/>
			</g>
			<g class="st1">
				<path d="M1242.7,156.9h-15.1v-15.1h15.1V156.9z M1228.6,155.9h13.1v-13.1h-13.1V155.9z"/>
			</g>
			<g class="st1">
				<path d="M1242.7,171h-15.1v-15.1h15.1V171z M1228.6,170h13.1v-13.1h-13.1V170z"/>
			</g>
			<g class="st1">
				<path d="M1242.7,185h-15.1V170h15.1V185z M1228.6,184h13.1V171h-13.1V184z"/>
			</g>
			<g class="st1">
				<path d="M1242.7,199.1h-15.1V184h15.1V199.1z M1228.6,198.1h13.1V185h-13.1V198.1z"/>
			</g>
		</g>
		<g>
			<rect x="1017.1" y="57.9" width="14.1" height="14.1"/>
			<polygon points="1003,57.9 974.8,57.9 946.7,57.9 974.8,86.1 974.8,114.2 1003,114.2 1031.1,142.3 1031.1,114.2 1031.1,86.1 
				1003,86.1 			"/>
		</g>
		<g>
			<path class="st2" d="M1045.3,57.9h2.6v11.6h5.8v2.2h-8.5V57.9z"/>
			<path class="st2" d="M1062.3,64.6c0-1.1-0.6-1.5-1.6-1.5c-1,0-1.7,0.5-1.7,1.5h-2.5c0.1-2.3,1.9-3.4,4.4-3.4c2.5,0,4,1.2,4,3.6
				v5.1h1.7v2h-4l0-1.6h-0.1c-0.6,1.1-1.5,1.8-3.1,1.8c-1.9,0-3.3-1.3-3.3-3.2c0-1.7,1.2-3,3.4-3.2l2.9-0.2V64.6z M1062.3,67.6v-0.4
				l-3,0.3c-0.4,0-0.6,0.3-0.6,0.7V69c0,0.6,0.6,0.9,1.5,0.9C1061.5,70,1062.3,68.9,1062.3,67.6z"/>
			<path class="st2" d="M1073,68.7l2.3-7.4h2.7l-5,13.8h-4.4v-2h2.6l0.5-1.5l-3.7-10.3h2.7L1073,68.7L1073,68.7z"/>
			<path class="st2" d="M1086.1,65.7c1.5,0.3,2.7,1.2,2.7,3c0,1.8-1.5,3.2-4.3,3.2c-2.7,0-4.3-1.3-4.4-3.5h2.5
				c0.1,1,0.8,1.6,1.9,1.6c1,0,1.8-0.4,1.8-1.1c0-0.8-0.6-1-1.5-1.2l-1.8-0.4c-1.7-0.4-2.6-1.3-2.6-3c0-1.8,1.5-3.2,4-3.2
				c2.3,0,4,1.1,4.1,3.4h-2.5c0-1-0.7-1.5-1.6-1.5c-0.9,0-1.5,0.4-1.5,1.1s0.5,1,1.1,1.1L1086.1,65.7z"/>
			<path class="st2" d="M1097.9,64.6c0-1.1-0.6-1.5-1.6-1.5c-1,0-1.7,0.5-1.7,1.5h-2.5c0.1-2.3,1.9-3.4,4.4-3.4c2.5,0,4,1.2,4,3.6
				v5.1h1.7v2h-4l0-1.6h-0.1c-0.6,1.1-1.5,1.8-3.1,1.8c-1.9,0-3.3-1.3-3.3-3.2c0-1.7,1.2-3,3.4-3.2l2.9-0.2V64.6z M1097.9,67.6v-0.4
				l-3,0.3c-0.4,0-0.6,0.3-0.6,0.7V69c0,0.6,0.6,0.9,1.5,0.9C1097.1,70,1097.9,68.9,1097.9,67.6z"/>
			<path class="st2" d="M1107.5,62.9c0.6-1.1,1.6-1.7,3.1-1.7c2.3,0,3.4,1.4,3.4,3.8v6.8h-2.5v-6.6c0-1.2-0.5-1.9-1.7-1.9
				c-1.4,0-2.2,1-2.2,2.5v6h-2.5V61.4h2.5V62.9z"/>
			<path class="st2" d="M1128.3,68.7l2.9-10.8h2.9l-4.4,13.8h-2.9l-4.4-13.8h2.9L1128.3,68.7L1128.3,68.7z"/>
			<path class="st2" d="M1139.8,60.2h-2.6v-2.3h2.6V60.2z M1137.3,71.7V61.4h2.5v10.3H1137.3z"/>
			<path class="st2" d="M1148.1,61.1c2.8,0,4.6,2.1,4.6,5v1.3h-6.7V68c0,1.2,1,1.9,2,1.9c1.1,0,1.9-0.6,2-1.7h2.5
				c-0.3,2.3-2,3.6-4.5,3.6c-2.9,0-4.7-2.2-4.7-5.4C1143.4,63.3,1145.3,61.1,1148.1,61.1z M1146,65.4h4.1V65c0-1.1-0.9-1.9-2-1.9
				c-1.2,0-2,0.8-2,1.9V65.4z"/>
			<path class="st2" d="M1165.9,68.9l1.5-7.5h2.8l-2.9,10.3h-3.1l-1.6-7.5h-0.1l-1.6,7.5h-3.1l-2.9-10.3h2.8l1.5,7.5h0.1l1.5-7.5
				h3.2L1165.9,68.9L1165.9,68.9z"/>
			<path class="st2" d="M1044.7,88.4c0-4.4,1.9-7.2,5.9-7.2c2.8,0,4.9,1.7,5.1,4.4h-2.6c-0.1-1.5-1.1-2.2-2.6-2.2
				c-1.7,0-2.9,1.1-2.9,2.8v4.2c0,1.7,1.3,2.9,3,2.9c1.6,0,2.5-0.7,2.8-2.3h2.6c-0.4,3.2-2.6,4.5-5.5,4.5
				C1046.5,95.6,1044.7,92.6,1044.7,88.4z"/>
			<path class="st2" d="M1063.7,95.5c-3.1,0-4.8-2.2-4.8-5.4c0-3.2,1.7-5.4,4.8-5.4c3.1,0,4.8,2.2,4.8,5.4
				C1068.6,93.4,1066.8,95.5,1063.7,95.5z M1066,88.6c0-1.3-1-1.9-2.2-1.9c-1.3,0-2.2,0.7-2.2,1.9v3c0,1.2,1,1.9,2.2,1.9
				c1.3,0,2.2-0.7,2.2-1.9V88.6z"/>
			<path class="st2" d="M1074.7,86.4c0.6-1.1,1.6-1.7,3.1-1.7c2.3,0,3.4,1.4,3.4,3.8v6.8h-2.5v-6.6c0-1.2-0.5-1.9-1.7-1.9
				c-1.4,0-2.2,1-2.2,2.5v6h-2.5V84.9h2.5V86.4z"/>
			<path class="st2" d="M1088.9,93.3h2.6v2h-5.1v-8.4h-2v-2h2v-3.4h2.5v3.4h2.6v2h-2.6V93.3z"/>
			<path class="st2" d="M1094.9,84.9h5.8v2h-3.2v8.4h-2.5V84.9z"/>
			<path class="st2" d="M1109.3,88.2c0-1.1-0.6-1.5-1.6-1.5c-1,0-1.7,0.5-1.7,1.5h-2.5c0.1-2.3,1.9-3.4,4.4-3.4c2.5,0,4,1.2,4,3.6
				v5.1h1.7v2h-4l0-1.6h-0.1c-0.6,1.1-1.5,1.8-3.1,1.8c-1.9,0-3.3-1.3-3.3-3.2c0-1.7,1.2-3,3.4-3.2l2.9-0.2V88.2z M1109.3,91.2v-0.4
				l-3,0.3c-0.4,0-0.6,0.3-0.6,0.7v0.9c0,0.6,0.6,0.9,1.5,0.9C1108.5,93.6,1109.3,92.5,1109.3,91.2z"/>
			<path class="st2" d="M1120.4,84.7c2.2,0,4.1,1.1,4.3,3.7h-2.5c-0.1-1.3-0.9-1.8-1.9-1.8c-1,0-1.9,0.6-1.9,2v2.8
				c0,1.3,0.8,2,1.9,2s1.8-0.5,1.9-1.8h2.5c-0.2,2.6-2.1,3.8-4.4,3.8c-3.1,0-4.7-2.2-4.7-5.4C1115.8,86.8,1117.6,84.7,1120.4,84.7z"
				/>
			<path class="st2" d="M1131.9,93.3h2.6v2h-5.1v-8.4h-2v-2h2v-3.4h2.5v3.4h2.6v2h-2.6V93.3z"/>
			<path class="st2" d="M1140.5,83.7h-2.6v-2.3h2.6V83.7z M1137.9,95.3V84.9h2.5v10.3H1137.9z"/>
			<path class="st2" d="M1147.2,86.4c0.6-1.1,1.6-1.7,3.1-1.7c2.3,0,3.4,1.4,3.4,3.8v6.8h-2.5v-6.6c0-1.2-0.5-1.9-1.7-1.9
				c-1.4,0-2.2,1-2.2,2.5v6h-2.5V84.9h2.5V86.4z"/>
			<path class="st2" d="M1164.3,93.9c-0.6,1-1.6,1.6-3,1.6c-2.8,0-4.1-2.4-4.1-5.4c0-3,1.3-5.4,4.1-5.4c1.4,0,2.4,0.6,3,1.6v-1.4
				h2.5v10.2c0,2.8-2.3,4.1-4.7,4.1c-2.5,0-4.3-0.9-4.6-3.2h2.5c0.2,0.8,0.7,1.3,1.9,1.3c1.2,0,2.3-0.4,2.3-2.3V93.9z M1164.3,89.3
				c0-1.6-0.7-2.7-2.3-2.7c-1.3,0-2.1,0.8-2.1,2v2.9c0,1.2,0.8,2,2.1,2c1.6,0,2.3-1.1,2.3-2.7V89.3z"/>
			<path class="st2" d="M1045.6,105.1h1.4v13.8h-1.4V105.1z"/>
			<path class="st2" d="M1058.4,112.2c0-1.7-0.5-2.8-2.3-2.8c-1.7,0-2.9,1.5-2.9,3.5v5.9h-1.3v-10.3h1.3v1.8c0.6-1.3,1.6-2,3.2-2
				c2,0,3.4,1.1,3.4,3.7v6.9h-1.3V112.2z"/>
			<path class="st2" d="M1066.2,117.7h2.5v1.2h-3.8v-9.2h-1.7v-1.2h1.7v-3.4h1.3v3.4h2.5v1.2h-2.5V117.7z"/>
			<path class="st2" d="M1080.1,115.7c-0.2,2.2-2,3.4-4.1,3.4c-2.9,0-4.3-2.3-4.3-5.4c0-3.1,1.4-5.4,4.2-5.4c2.8,0,4.2,2.3,4.2,5
				v0.9h-7.1v1.1c0,1.7,1.4,2.7,2.9,2.7c1.4,0,2.6-0.7,2.8-2.3H1080.1z M1078.8,112.2c0-1.7-1.3-2.7-2.8-2.7c-1.5,0-2.8,1-2.8,2.7
				v0.8h5.6V112.2z"/>
			<path class="st2" d="M1084.2,108.5h4.6v1.2h-3.2v9.2h-1.3V108.5z"/>
			<path class="st2" d="M1092.2,118.9v-13.8h1.3v13.8H1092.2z"/>
			<path class="st2" d="M1102.1,108.3c3,0,4.4,2.3,4.4,5.4c0,3.1-1.4,5.4-4.4,5.4c-3,0-4.4-2.3-4.4-5.4
				C1097.6,110.6,1099,108.3,1102.1,108.3z M1105.1,112.1c0-1.6-1.3-2.7-3-2.7c-1.7,0-3,1.1-3,2.7v3.1c0,1.6,1.3,2.7,3,2.7
				c1.7,0,3-1.1,3-2.7V112.1z"/>
			<path class="st2" d="M1116.9,111.8c-0.1-1.7-1.3-2.4-2.7-2.4c-1.4,0-2.7,1.1-2.7,2.8v3c0,1.6,1.2,2.8,2.7,2.8
				c1.5,0,2.7-0.9,2.8-2.5h1.3c-0.3,2.5-2,3.6-4,3.6c-2.9,0-4.2-2.3-4.2-5.4c0-3.3,1.5-5.5,4.2-5.5c2.1,0,3.7,1.2,3.9,3.5H1116.9z"
				/>
			<path class="st2" d="M1123.5,118.9h-1.3v-13.8h1.3V118.9z M1123.6,113.1l4.2-4.6h1.7l-4.4,4.6l4.7,5.8h-1.6L1123.6,113.1z"/>
			<path class="st2" d="M1134.6,106.7h-1.4v-1.4h1.4V106.7z M1133.3,118.9v-10.3h1.3v10.3H1133.3z"/>
			<path class="st2" d="M1145.8,112.2c0-1.7-0.5-2.8-2.3-2.8c-1.7,0-2.9,1.5-2.9,3.5v5.9h-1.3v-10.3h1.3v1.8c0.6-1.3,1.6-2,3.2-2
				c2,0,3.4,1.1,3.4,3.7v6.9h-1.3V112.2z"/>
			<path class="st2" d="M1159.9,118.6c0,2.9-2,4.3-4.3,4.3c-2.1,0-3.9-0.7-4.2-3.1h1.3c0.2,1.3,1.1,2,2.8,2c1.7,0,3-1,3-3.1v-1.5
				c-0.7,1.3-1.9,2-3.3,2c-2.7,0-4.2-2.2-4.2-5.4c0-3.2,1.4-5.4,4.1-5.4c1.6,0,2.7,0.7,3.4,2v-1.8h1.3V118.6z M1158.5,112.8
				c0-2-1.2-3.4-3.1-3.4c-1.8,0-2.9,1.2-2.9,2.7v3.1c0,1.5,1.1,2.7,2.9,2.7c1.9,0,3.1-1.4,3.1-3.4V112.8z"/>
			<path class="st2" d="M1177.6,114.9v-3.4h1.3v5l1.8,2.3h-1.7l-1-1.2c-1.2,1.1-2.5,1.5-4,1.5c-2.3,0-3.9-1.3-3.9-3.7
				c0-1.6,0.7-2.5,1.9-3.4l1-0.8c-1.1-1.4-1.9-2.3-1.9-3.6c0-1.8,1.4-2.9,3.2-2.9c1.9,0,3.1,1.1,3.1,2.9c0,1.5-1,2.6-2.6,3.8
				L1177.6,114.9L1177.6,114.9z M1171.7,115.9c0,1.3,1.2,2,2.4,2c1.4,0,2.4-0.4,3.2-1.3l-3.4-4.4l-1.6,1.3c-0.4,0.3-0.6,0.7-0.6,1.2
				V115.9z M1176.3,107.5c0-1-0.7-1.6-1.8-1.6c-1.1,0-1.9,0.7-1.9,1.7c0,0.9,0.7,1.8,1.6,2.9
				C1175.3,109.6,1176.3,108.8,1176.3,107.5z"/>
			<path class="st2" d="M1045.6,128.7h1.4v12.5h6.2v1.3h-7.7V128.7z"/>
			<path class="st2" d="M1062.4,135.3c0-1.8-1-2.3-2.5-2.3c-1.5,0-2.4,0.7-2.4,2.1h-1.3c0-1.9,1.6-3.2,3.8-3.2s3.7,1.1,3.7,3.5v5.9
				h1.5v1.2h-2.7l0-2h-0.1c-0.6,1.5-1.7,2.3-3.3,2.3c-1,0-1.9-0.3-2.5-0.9c-0.5-0.5-0.8-1.4-0.8-2.2c0-1.6,0.8-2.8,2.6-2.9l3.9-0.4
				V135.3z M1058.1,137.8c-0.6,0.1-0.9,0.4-0.9,1v1.1c0,1.1,0.8,1.6,2.2,1.6c1.9,0,3-1.5,3-3.6v-0.5L1058.1,137.8z"/>
			<path class="st2" d="M1075.1,135.8c0-1.7-0.5-2.8-2.3-2.8c-1.7,0-2.9,1.5-2.9,3.5v5.9h-1.3v-10.3h1.3v1.8c0.6-1.3,1.6-2,3.2-2
				c2,0,3.4,1.1,3.4,3.7v6.9h-1.3V135.8z"/>
			<path class="st2" d="M1087.8,142.5v-1.8c-0.7,1.3-1.9,2-3.3,2c-2.7,0-4.2-2.2-4.2-5.4s1.4-5.4,4.1-5.4c1.6,0,2.7,0.7,3.4,2v-5.2
				h1.3v13.8H1087.8z M1087.8,136.4c0-2-1.2-3.4-3.1-3.4c-1.8,0-2.9,1.2-2.9,2.7v3.1c0,1.5,1.1,2.7,2.9,2.7c1.9,0,3.1-1.4,3.1-3.4
				V136.4z"/>
			<path class="st2" d="M1098,136.7c1.9,0.4,2.9,1.3,2.9,3c0,1.7-1.5,3-3.9,3c-2.2,0-4-1.2-4-3.4h1.3c0,1.5,1.3,2.3,2.7,2.3
				c1.4,0,2.6-0.6,2.6-1.8c0-1-0.6-1.5-2.1-1.8l-1.7-0.4c-1.5-0.3-2.5-1.2-2.5-2.8c0-1.7,1.5-2.9,3.6-2.9c1.8,0,3.7,1,3.7,3.2h-1.3
				c0-1.5-1.1-2.1-2.4-2.1c-1.4,0-2.3,0.7-2.3,1.7c0,1,0.6,1.4,1.7,1.6L1098,136.7z"/>
			<path class="st2" d="M1111.1,135.4c-0.1-1.7-1.3-2.4-2.7-2.4c-1.4,0-2.7,1.1-2.7,2.8v3c0,1.6,1.2,2.8,2.7,2.8
				c1.5,0,2.7-0.9,2.8-2.5h1.3c-0.3,2.5-2,3.6-4,3.6c-2.9,0-4.2-2.3-4.2-5.4c0-3.3,1.5-5.5,4.2-5.5c2.1,0,3.7,1.2,3.9,3.5H1111.1z"
				/>
			<path class="st2" d="M1122.4,135.3c0-1.8-1-2.3-2.5-2.3c-1.5,0-2.4,0.7-2.4,2.1h-1.3c0-1.9,1.6-3.2,3.8-3.2
				c2.2,0,3.7,1.1,3.7,3.5v5.9h1.5v1.2h-2.7l0-2h-0.1c-0.6,1.5-1.7,2.3-3.3,2.3c-1,0-1.9-0.3-2.5-0.9c-0.5-0.5-0.8-1.4-0.8-2.2
				c0-1.6,0.8-2.8,2.6-2.9l3.9-0.4V135.3z M1118.1,137.8c-0.6,0.1-0.9,0.4-0.9,1v1.1c0,1.1,0.8,1.6,2.2,1.6c1.9,0,3-1.5,3-3.6v-0.5
				L1118.1,137.8z"/>
			<path class="st2" d="M1128.5,145.9v-13.8h1.3v1.8c0.7-1.3,1.8-2,3.4-2c2.7,0,4.1,2.2,4.1,5.4s-1.4,5.4-4.1,5.4
				c-1.5,0-2.7-0.7-3.4-2v5.2H1128.5z M1129.8,138.1c0,2,1.2,3.4,3.1,3.4c1.8,0,2.9-1.2,2.9-2.7v-3.1c0-1.5-1.1-2.7-2.9-2.7
				c-1.9,0-3.1,1.4-3.1,3.4V138.1z"/>
			<path class="st2" d="M1142.7,130.3h-1.4v-1.4h1.4V130.3z M1141.3,142.5v-10.3h1.3v10.3H1141.3z"/>
			<path class="st2" d="M1153.8,135.8c0-1.7-0.5-2.8-2.3-2.8c-1.7,0-2.9,1.5-2.9,3.5v5.9h-1.3v-10.3h1.3v1.8c0.6-1.3,1.6-2,3.2-2
				c2,0,3.4,1.1,3.4,3.7v6.9h-1.3V135.8z"/>
			<path class="st2" d="M1167.9,142.1c0,2.9-2,4.3-4.3,4.3c-2.1,0-3.9-0.7-4.2-3.1h1.3c0.2,1.3,1.1,2,2.8,2c1.7,0,3-1,3-3.1v-1.5
				c-0.7,1.3-1.9,2-3.3,2c-2.7,0-4.2-2.2-4.2-5.4s1.4-5.4,4.1-5.4c1.6,0,2.7,0.7,3.4,2v-1.8h1.3V142.1z M1166.6,136.4
				c0-2-1.2-3.4-3.1-3.4c-1.8,0-2.9,1.2-2.9,2.7v3.1c0,1.5,1.1,2.7,2.9,2.7c1.9,0,3.1-1.4,3.1-3.4V136.4z"/>
		</g>
	</g>
	<g>
		<g>
			<g>
				<rect x="1017" y="296.7" width="14.1" height="14.1"/>
			</g>
			<g>
				<polygon points="1003,296.7 974.8,296.7 946.7,296.7 974.8,324.8 974.8,353 1002.9,353 1031.1,381.1 1031.1,353 1031.1,324.8 
					1003,324.8 				"/>
			</g>
		</g>
		<g>
			<g>
				<path class="st2" d="M1045.4,296.7l2.6,0l0,11.6l5.8,0l0,2.2l-8.5,0L1045.4,296.7z"/>
			</g>
			<g>
				<path class="st2" d="M1062.5,303.4c0-1.1-0.6-1.5-1.6-1.5c-1,0-1.7,0.5-1.7,1.5l-2.5,0c0.1-2.3,1.9-3.4,4.4-3.4
					c2.5,0,4,1.2,4,3.6l0,5.1l1.7,0l0,2l-4,0l0-1.6l-0.1,0c-0.6,1.1-1.5,1.8-3.1,1.8c-1.9,0-3.3-1.3-3.3-3.2c0-1.7,1.2-3,3.4-3.2
					l2.9-0.2L1062.5,303.4z M1062.5,306.4l0-0.4l-3,0.3c-0.4,0-0.6,0.3-0.6,0.7l0,0.9c0,0.6,0.6,0.9,1.5,0.9
					C1061.7,308.8,1062.5,307.7,1062.5,306.4z"/>
			</g>
			<g>
				<path class="st2" d="M1073.1,307.5l2.3-7.4l2.7,0l-5,13.8l-4.4,0l0-2l2.6,0l0.5-1.5l-3.7-10.3l2.7,0L1073.1,307.5L1073.1,307.5z
					"/>
			</g>
			<g>
				<path class="st2" d="M1086.2,304.5c1.5,0.3,2.7,1.2,2.7,3c0,1.8-1.5,3.2-4.3,3.2c-2.7,0-4.3-1.3-4.4-3.5l2.5,0
					c0.1,1,0.8,1.6,1.9,1.6c1,0,1.8-0.4,1.8-1.1c0-0.8-0.6-1-1.5-1.2l-1.8-0.4c-1.7-0.4-2.6-1.3-2.6-3c0-1.8,1.5-3.2,4-3.2
					c2.3,0,4,1.1,4.1,3.4l-2.5,0c0-1-0.7-1.5-1.6-1.5c-0.9,0-1.5,0.4-1.5,1.1c0,0.7,0.5,1,1.1,1.1L1086.2,304.5z"/>
			</g>
			<g>
				<path class="st2" d="M1098,303.4c0-1.1-0.6-1.5-1.6-1.5c-1,0-1.7,0.5-1.7,1.5l-2.5,0c0.1-2.3,1.9-3.4,4.4-3.4c2.5,0,4,1.2,4,3.6
					l0,5.1l1.7,0l0,2l-4,0l0-1.6l-0.1,0c-0.6,1.1-1.5,1.8-3.1,1.8c-1.9,0-3.3-1.3-3.3-3.2c0-1.7,1.2-3,3.4-3.2l2.9-0.2L1098,303.4z
					 M1098,306.4l0-0.4l-3,0.3c-0.4,0-0.6,0.3-0.6,0.7l0,0.9c0,0.6,0.6,0.9,1.5,0.9C1097.2,308.8,1098,307.7,1098,306.4z"/>
			</g>
			<g>
				<path class="st2" d="M1107.6,301.7c0.6-1.1,1.6-1.7,3.1-1.7c2.3,0,3.4,1.4,3.4,3.8l0,6.8l-2.5,0l0-6.6c0-1.2-0.5-1.9-1.7-1.9
					c-1.4,0-2.2,1-2.2,2.5l0,6l-2.5,0l0-10.3l2.5,0L1107.6,301.7z"/>
			</g>
			<g>
				<path class="st2" d="M1128.4,307.5l2.9-10.8l2.9,0l-4.4,13.8l-2.9,0l-4.4-13.8l2.9,0L1128.4,307.5L1128.4,307.5z"/>
			</g>
			<g>
				<path class="st2" d="M1140,299l-2.6,0l0-2.3l2.6,0L1140,299z M1137.4,310.5l0-10.3l2.5,0l0,10.3L1137.4,310.5z"/>
			</g>
			<g>
				<path class="st2" d="M1148.2,299.9c2.8,0,4.6,2.1,4.6,5l0,1.3l-6.7,0l0,0.7c0,1.2,1,1.9,2,1.9c1.1,0,1.9-0.6,2-1.7l2.5,0
					c-0.3,2.3-2.1,3.6-4.5,3.6c-2.9,0-4.7-2.2-4.7-5.4C1143.5,302.1,1145.4,299.9,1148.2,299.9z M1146.2,304.2l4.1,0l0-0.4
					c0-1.1-0.9-1.9-2-1.9c-1.2,0-2,0.8-2,1.9L1146.2,304.2z"/>
			</g>
			<g>
				<path class="st2" d="M1166,307.7l1.5-7.5l2.8,0l-2.9,10.3l-3.1,0l-1.6-7.5l-0.1,0l-1.6,7.5l-3.1,0l-2.9-10.3l2.8,0l1.5,7.5
					l0.1,0l1.5-7.5l3.2,0L1166,307.7L1166,307.7z"/>
			</g>
			<g>
				<path class="st2" d="M1044.8,327.2c0-4.4,1.9-7.2,5.9-7.2c2.8,0,4.9,1.7,5.1,4.4l-2.6,0c-0.1-1.5-1.1-2.2-2.6-2.2
					c-1.7,0-2.9,1.1-2.9,2.8l0,4.2c0,1.7,1.3,2.9,3,2.9c1.6,0,2.5-0.7,2.8-2.3l2.6,0c-0.4,3.2-2.6,4.5-5.5,4.5
					C1046.6,334.4,1044.8,331.4,1044.8,327.2z"/>
			</g>
			<g>
				<path class="st2" d="M1063.8,334.3c-3.1,0-4.8-2.2-4.8-5.4c0-3.2,1.7-5.4,4.9-5.4c3.1,0,4.8,2.2,4.8,5.4
					C1068.7,332.2,1066.9,334.3,1063.8,334.3z M1066.1,327.4c0-1.3-1-1.9-2.2-1.9c-1.3,0-2.2,0.7-2.2,1.9l0,3c0,1.2,1,1.9,2.2,1.9
					c1.3,0,2.2-0.7,2.2-1.9L1066.1,327.4z"/>
			</g>
			<g>
				<path class="st2" d="M1074.8,325.2c0.6-1.1,1.6-1.7,3.1-1.7c2.3,0,3.4,1.4,3.4,3.8l0,6.8l-2.5,0l0-6.6c0-1.2-0.5-1.9-1.7-1.9
					c-1.4,0-2.2,1-2.2,2.5l0,6l-2.5,0l0-10.3l2.5,0L1074.8,325.2z"/>
			</g>
			<g>
				<path class="st2" d="M1089,332.1l2.6,0l0,2l-5.1,0l0-8.4l-2,0l0-2l2,0l0-3.4l2.5,0l0,3.4l2.6,0l0,2l-2.6,0L1089,332.1z"/>
			</g>
			<g>
				<path class="st2" d="M1095,323.7l5.8,0l0,2l-3.2,0l0,8.4l-2.5,0L1095,323.7z"/>
			</g>
			<g>
				<path class="st2" d="M1109.4,327c0-1.1-0.6-1.5-1.6-1.5c-1,0-1.7,0.5-1.7,1.5l-2.5,0c0.1-2.3,1.9-3.4,4.4-3.4c2.5,0,4,1.2,4,3.6
					l0,5.1l1.7,0l0,2l-4,0l0-1.6l-0.1,0c-0.6,1.1-1.5,1.8-3.1,1.8c-1.9,0-3.3-1.3-3.3-3.2c0-1.7,1.2-3,3.4-3.2l2.9-0.2L1109.4,327z
					 M1109.4,330l0-0.4l-3,0.3c-0.4,0-0.6,0.3-0.6,0.7l0,0.9c0,0.6,0.6,0.9,1.5,0.9C1108.6,332.4,1109.4,331.3,1109.4,330z"/>
			</g>
			<g>
				<path class="st2" d="M1120.5,323.5c2.2,0,4.1,1.1,4.3,3.7l-2.5,0c-0.1-1.3-0.9-1.8-1.9-1.8c-1,0-1.9,0.6-1.9,2l0,2.8
					c0,1.3,0.8,2,1.9,2s1.8-0.5,1.9-1.8l2.5,0c-0.2,2.6-2.1,3.8-4.4,3.8c-3.1,0-4.7-2.2-4.7-5.4
					C1115.9,325.6,1117.7,323.5,1120.5,323.5z"/>
			</g>
			<g>
				<path class="st2" d="M1132,332.1l2.6,0l0,2l-5.1,0l0-8.4l-2,0l0-2l2,0l0-3.4l2.5,0l0,3.4l2.6,0l0,2l-2.6,0L1132,332.1z"/>
			</g>
			<g>
				<path class="st2" d="M1140.6,322.6l-2.6,0l0-2.3l2.6,0L1140.6,322.6z M1138.1,334.1l0-10.3l2.5,0l0,10.3L1138.1,334.1z"/>
			</g>
			<g>
				<path class="st2" d="M1147.3,325.3c0.6-1.1,1.6-1.7,3.1-1.7c2.3,0,3.4,1.4,3.4,3.8l0,6.8l-2.5,0l0-6.6c0-1.2-0.5-1.9-1.7-1.9
					c-1.4,0-2.2,1-2.2,2.5l0,6l-2.5,0l0-10.3l2.5,0L1147.3,325.3z"/>
			</g>
			<g>
				<path class="st2" d="M1164.4,332.7c-0.6,1-1.6,1.6-3,1.6c-2.8,0-4.1-2.4-4.1-5.4c0-3,1.3-5.4,4.1-5.4c1.4,0,2.4,0.6,3,1.6l0-1.4
					l2.5,0l0,10.2c0,2.8-2.3,4.1-4.7,4.1c-2.5,0-4.3-0.9-4.6-3.2l2.5,0c0.2,0.8,0.7,1.3,1.9,1.3c1.2,0,2.3-0.4,2.3-2.3L1164.4,332.7
					z M1164.4,328.2c0-1.6-0.7-2.7-2.3-2.7c-1.3,0-2.1,0.8-2.1,2l0,2.9c0,1.2,0.8,2,2.1,2c1.6,0,2.3-1.1,2.3-2.7L1164.4,328.2z"/>
			</g>
			<g>
				<path class="st2" d="M1045.7,343.9l1.4,0l0,13.8l-1.4,0L1045.7,343.9z"/>
			</g>
			<g>
				<path class="st2" d="M1058.5,351c0-1.7-0.5-2.8-2.3-2.8c-1.7,0-2.9,1.5-2.9,3.5l0,5.9l-1.3,0l0-10.3l1.3,0l0,1.8
					c0.6-1.3,1.6-2,3.2-2c2,0,3.4,1.1,3.4,3.7l0,6.9l-1.3,0L1058.5,351z"/>
			</g>
			<g>
				<path class="st2" d="M1066.3,356.5l2.5,0l0,1.2l-3.8,0l0-9.2l-1.7,0l0-1.2l1.7,0l0-3.4l1.3,0l0,3.4l2.5,0l0,1.2l-2.5,0
					L1066.3,356.5z"/>
			</g>
			<g>
				<path class="st2" d="M1080.2,354.5c-0.2,2.2-2,3.4-4.1,3.4c-2.9,0-4.3-2.3-4.3-5.4c0-3.1,1.4-5.4,4.2-5.4c2.8,0,4.2,2.3,4.2,5
					l0,0.9l-7.1,0l0,1.1c0,1.7,1.4,2.7,2.9,2.7c1.4,0,2.6-0.7,2.8-2.3L1080.2,354.5z M1078.9,351c0-1.7-1.3-2.7-2.8-2.7
					c-1.5,0-2.8,1-2.8,2.7l0,0.8l5.6,0L1078.9,351z"/>
			</g>
			<g>
				<path class="st2" d="M1084.3,347.3l4.6,0l0,1.2l-3.2,0l0,9.2l-1.3,0L1084.3,347.3z"/>
			</g>
			<g>
				<path class="st2" d="M1092.3,357.7l0-13.8l1.3,0l0,13.8L1092.3,357.7z"/>
			</g>
			<g>
				<path class="st2" d="M1102.2,347.1c3,0,4.4,2.3,4.4,5.4c0,3.1-1.4,5.4-4.4,5.4c-3,0-4.4-2.3-4.4-5.4
					C1097.7,349.4,1099.1,347.1,1102.2,347.1z M1105.2,350.9c0-1.6-1.3-2.7-3-2.7c-1.7,0-3,1.1-3,2.7l0,3.1c0,1.6,1.3,2.7,3,2.7
					c1.7,0,3-1.1,3-2.7L1105.2,350.9z"/>
			</g>
			<g>
				<path class="st2" d="M1117,350.6c-0.1-1.7-1.3-2.4-2.7-2.4c-1.4,0-2.7,1.1-2.7,2.8l0,3c0,1.6,1.2,2.8,2.7,2.8
					c1.5,0,2.7-0.9,2.8-2.5l1.3,0c-0.3,2.5-2,3.6-4,3.6c-2.9,0-4.2-2.3-4.2-5.4c0-3.3,1.5-5.5,4.2-5.5c2.1,0,3.7,1.2,3.9,3.5
					L1117,350.6z"/>
			</g>
			<g>
				<path class="st2" d="M1123.6,357.7l-1.3,0l0-13.8l1.3,0L1123.6,357.7z M1123.7,351.9l4.2-4.6l1.7,0l-4.4,4.6l4.7,5.8l-1.6,0
					L1123.7,351.9z"/>
			</g>
			<g>
				<path class="st2" d="M1134.7,345.5l-1.4,0l0-1.4l1.4,0L1134.7,345.5z M1133.4,357.7l0-10.3l1.3,0l0,10.3L1133.4,357.7z"/>
			</g>
			<g>
				<path class="st2" d="M1145.9,351c0-1.7-0.5-2.8-2.3-2.8c-1.7,0-2.9,1.5-2.9,3.5l0,5.9l-1.3,0l0-10.3l1.3,0l0,1.8
					c0.6-1.3,1.6-2,3.2-2c2,0,3.4,1.1,3.4,3.7l0,6.9l-1.3,0L1145.9,351z"/>
			</g>
			<g>
				<path class="st2" d="M1160,357.4c0,2.9-2.1,4.3-4.3,4.3c-2.1,0-3.9-0.7-4.2-3.1l1.3,0c0.2,1.3,1.1,2,2.8,2c1.7,0,3-1,3-3.1
					l0-1.5c-0.7,1.3-1.9,2-3.3,2c-2.7,0-4.2-2.2-4.2-5.4c0-3.2,1.4-5.4,4.1-5.4c1.6,0,2.7,0.7,3.4,2l0-1.8l1.3,0L1160,357.4z
					 M1158.6,351.7c0-2-1.2-3.4-3.1-3.4c-1.8,0-2.9,1.2-2.9,2.7l0,3.1c0,1.5,1.1,2.7,2.9,2.7c1.9,0,3.1-1.4,3.1-3.4L1158.6,351.7z"
					/>
			</g>
			<g>
				<path class="st2" d="M1177.7,353.7l0-3.4l1.3,0l0,5l1.8,2.3l-1.7,0l-1-1.2c-1.2,1.1-2.5,1.5-4,1.5c-2.3,0-3.9-1.3-3.9-3.7
					c0-1.6,0.7-2.5,1.9-3.4l1-0.8c-1.1-1.4-1.9-2.3-1.9-3.6c0-1.8,1.4-2.9,3.2-2.9c1.9,0,3.1,1.1,3.1,2.9c0,1.5-1,2.6-2.6,3.8
					L1177.7,353.7L1177.7,353.7z M1171.8,354.8c0,1.3,1.2,2,2.4,2c1.4,0,2.4-0.4,3.2-1.3l-3.4-4.4l-1.6,1.3
					c-0.4,0.3-0.6,0.7-0.6,1.2L1171.8,354.8z M1176.4,346.4c0-1-0.7-1.6-1.8-1.6c-1.1,0-1.9,0.7-1.9,1.7c0,0.9,0.7,1.8,1.6,2.9
					C1175.4,348.4,1176.4,347.6,1176.4,346.4z"/>
			</g>
			<g>
				<path class="st2" d="M1045.7,367.4l1.4,0l0,12.5l6.2,0l0,1.3l-7.7,0L1045.7,367.4z"/>
			</g>
			<g>
				<path class="st2" d="M1062.5,374.1c0-1.8-1-2.3-2.5-2.3c-1.5,0-2.4,0.7-2.4,2.1l-1.3,0c0-1.9,1.6-3.2,3.8-3.2
					c2.2,0,3.7,1.1,3.7,3.5l0,5.9l1.5,0l0,1.2l-2.7,0l0-2l-0.1,0c-0.6,1.5-1.7,2.3-3.3,2.3c-1,0-1.9-0.3-2.5-0.9
					c-0.5-0.5-0.8-1.4-0.8-2.2c0-1.6,0.8-2.8,2.6-2.9l3.9-0.4L1062.5,374.1z M1058.2,376.6c-0.6,0.1-0.9,0.4-0.9,1l0,1.1
					c0,1.1,0.8,1.6,2.2,1.6c1.9,0,3-1.5,3-3.6l0-0.5L1058.2,376.6z"/>
			</g>
			<g>
				<path class="st2" d="M1075.2,374.6c0-1.7-0.5-2.8-2.3-2.8c-1.7,0-2.9,1.5-2.9,3.5l0,5.9l-1.3,0l0-10.3l1.3,0l0,1.8
					c0.6-1.3,1.6-2,3.2-2c2,0,3.4,1.1,3.4,3.7l0,6.9l-1.3,0L1075.2,374.6z"/>
			</g>
			<g>
				<path class="st2" d="M1087.9,381.2l0-1.8c-0.7,1.3-1.9,2-3.3,2c-2.7,0-4.2-2.2-4.2-5.4c0-3.2,1.4-5.4,4.1-5.4
					c1.6,0,2.7,0.7,3.4,2l0-5.2l1.3,0l0,13.8L1087.9,381.2z M1087.9,375.2c0-2-1.2-3.4-3.1-3.4c-1.8,0-2.9,1.2-2.9,2.7l0,3.1
					c0,1.5,1.1,2.7,2.9,2.7c1.9,0,3.1-1.4,3.1-3.4L1087.9,375.2z"/>
			</g>
			<g>
				<path class="st2" d="M1098.1,375.6c1.9,0.4,2.9,1.3,2.9,3c0,1.7-1.5,3-3.9,3c-2.2,0-4-1.2-4-3.4l1.3,0c0,1.5,1.3,2.3,2.7,2.3
					c1.4,0,2.6-0.6,2.6-1.8c0-1-0.6-1.5-2.1-1.8l-1.7-0.4c-1.5-0.3-2.5-1.2-2.5-2.8c0-1.7,1.5-2.9,3.6-2.9c1.8,0,3.7,1,3.7,3.2
					l-1.3,0c0-1.5-1.1-2.1-2.4-2.1c-1.4,0-2.3,0.7-2.3,1.7c0,1,0.6,1.4,1.7,1.6L1098.1,375.6z"/>
			</g>
			<g>
				<path class="st2" d="M1111.2,374.2c-0.1-1.7-1.3-2.4-2.7-2.4c-1.4,0-2.7,1.1-2.7,2.8l0,3c0,1.6,1.2,2.8,2.7,2.8
					c1.5,0,2.7-0.9,2.8-2.5l1.3,0c-0.3,2.5-2,3.6-4,3.6c-2.9,0-4.2-2.3-4.2-5.4c0-3.3,1.5-5.5,4.2-5.5c2.1,0,3.7,1.2,3.9,3.5
					L1111.2,374.2z"/>
			</g>
			<g>
				<path class="st2" d="M1122.5,374.2c0-1.8-1-2.3-2.5-2.3c-1.5,0-2.4,0.7-2.4,2.1l-1.3,0c0-1.9,1.6-3.2,3.8-3.2
					c2.2,0,3.7,1.1,3.7,3.5l0,5.9l1.5,0l0,1.2l-2.7,0l0-2h-0.1c-0.6,1.5-1.7,2.3-3.3,2.3c-1,0-1.9-0.3-2.5-0.9
					c-0.5-0.5-0.8-1.4-0.8-2.2c0-1.6,0.8-2.8,2.6-2.9l3.9-0.4L1122.5,374.2z M1118.2,376.6c-0.6,0.1-0.9,0.4-0.9,1l0,1.1
					c0,1.1,0.8,1.6,2.2,1.6c1.9,0,3-1.5,3-3.6l0-0.5L1118.2,376.6z"/>
			</g>
			<g>
				<path class="st2" d="M1128.5,384.7l0-13.8l1.3,0l0,1.8c0.7-1.3,1.8-2,3.4-2c2.7,0,4.1,2.2,4.1,5.4c0,3.2-1.4,5.4-4.1,5.4
					c-1.5,0-2.7-0.7-3.4-2l0,5.2L1128.5,384.7z M1129.9,376.9c0,2,1.2,3.4,3.1,3.4c1.8,0,2.9-1.2,2.9-2.7l0-3.1
					c0-1.5-1.1-2.7-2.9-2.7c-1.9,0-3.1,1.4-3.1,3.4L1129.9,376.9z"/>
			</g>
			<g>
				<path class="st2" d="M1142.8,369.1l-1.4,0l0-1.4l1.4,0L1142.8,369.1z M1141.4,381.3l0-10.3l1.3,0l0,10.3L1141.4,381.3z"/>
			</g>
			<g>
				<path class="st2" d="M1153.9,374.6c0-1.7-0.5-2.8-2.3-2.8c-1.7,0-2.9,1.5-2.9,3.5l0,5.9l-1.3,0l0-10.3l1.3,0l0,1.8
					c0.6-1.3,1.6-2,3.2-2c2,0,3.4,1.1,3.4,3.7l0,6.9l-1.3,0L1153.9,374.6z"/>
			</g>
			<g>
				<path class="st2" d="M1168,381c0,2.9-2.1,4.3-4.3,4.3c-2.1,0-3.9-0.7-4.2-3.1l1.3,0c0.2,1.3,1.1,2,2.8,2c1.7,0,3-1,3-3.1l0-1.5
					c-0.7,1.3-1.9,2-3.3,2c-2.7,0-4.2-2.2-4.2-5.4c0-3.2,1.4-5.4,4.1-5.4c1.6,0,2.7,0.7,3.4,2l0-1.8l1.3,0L1168,381z M1166.7,375.3
					c0-2-1.2-3.4-3.1-3.4c-1.8,0-2.9,1.2-2.9,2.7l0,3.1c0,1.5,1.1,2.7,2.9,2.7c1.9,0,3.1-1.4,3.1-3.4L1166.7,375.3z"/>
			</g>
		</g>
		<g class="st1">
			<g>
				<rect x="1030.6" y="240.4" width="1" height="197"/>
			</g>
			<g>
				<rect x="1044.9" y="240.4" width="1" height="197"/>
			</g>
			<g>
				<rect x="946.1" y="240.4" width="1" height="197"/>
			</g>
			<g>
				<rect x="918" y="240.4" width="1" height="197"/>
			</g>
			<g>
				<rect x="1185.4" y="240.5" width="1" height="197"/>
			</g>
			<g>
				<rect x="1213.5" y="240.5" width="1" height="197"/>
			</g>
			<g>
				<rect x="889.9" y="240.4" width="1" height="197"/>
			</g>
			<g>
				<rect x="1241.7" y="240.5" width="1" height="197"/>
			</g>
		</g>
		<g class="st1">
			<g>
				<rect x="890.4" y="296.1" width="351.8" height="1"/>
			</g>
			<g>
				<rect x="890.4" y="380.5" width="351.8" height="1"/>
			</g>
			<g>
				<rect x="890.4" y="408.6" width="351.8" height="1"/>
			</g>
			<g>
				<rect x="890.4" y="268" width="351.8" height="1"/>
			</g>
			<g>
				<rect x="890.4" y="239.9" width="351.8" height="1"/>
			</g>
			<g>
				<rect x="890.3" y="436.9" width="351.8" height="1"/>
			</g>
		</g>
	</g>
	<g>
		<line class="st0" x1="257.3" y1="143.4" x2="228.8" y2="143.4"/>
		<line class="st0" x1="257.3" y1="171.8" x2="257.3" y2="143.4"/>
		<g>
			<rect x="257.3" y="114.9" width="28.5" height="28.5"/>
			<polygon points="228.8,114.9 171.9,114.9 115,114.9 171.9,171.8 171.9,228.7 228.8,228.7 285.7,285.7 285.7,228.7 285.7,171.8 
				228.8,171.8 			"/>
		</g>
		<polyline class="st0" points="285.7,413.3 285.7,420.7 257.3,420.7 257.3,413.3 		"/>
		<polyline class="st0" points="228.8,413.7 228.8,421.1 171.9,421.1 171.9,413.7 		"/>
		<g>
			<path d="M270.1,433.4l0.7,1c0.2,0.3,0.3,0.5,0.5,0.7h0c0.2-0.3,0.3-0.5,0.5-0.8l0.6-1h0.9l-1.6,2.2l1.6,2.4h-0.9l-0.7-1
				c-0.2-0.3-0.3-0.5-0.5-0.8h0c-0.2,0.3-0.3,0.5-0.5,0.8l-0.7,1h-0.9l1.6-2.3l-1.6-2.2H270.1z"/>
		</g>
		<g>
			<path d="M195.7,438v-0.5l0.7-0.6c1.6-1.5,2.3-2.3,2.3-3.2c0-0.6-0.3-1.2-1.2-1.2c-0.6,0-1,0.3-1.3,0.5l-0.3-0.6
				c0.4-0.4,1-0.6,1.7-0.6c1.3,0,1.9,0.9,1.9,1.8c0,1.1-0.8,2.1-2.1,3.3l-0.5,0.5v0h2.8v0.7H195.7z"/>
			<path d="M201.7,433.4l0.7,1c0.2,0.3,0.3,0.5,0.5,0.7h0c0.2-0.3,0.3-0.5,0.5-0.8l0.6-1h0.9l-1.6,2.2l1.6,2.4h-0.9l-0.7-1
				c-0.2-0.3-0.3-0.5-0.5-0.8h0c-0.2,0.3-0.3,0.5-0.5,0.8l-0.7,1h-0.9l1.6-2.3l-1.6-2.2H201.7z"/>
		</g>
		<g>
			<line class="st0" x1="58.1" y1="1" x2="58.1" y2="399.1"/>
			<line class="st0" x1="115" y1="1" x2="115" y2="399.1"/>
			<line class="st0" x1="171.9" y1="1" x2="171.9" y2="399.1"/>
			<line class="st0" x1="228.8" y1="1" x2="228.8" y2="399.1"/>
			<line class="st0" x1="285.7" y1="1" x2="285.7" y2="399.1"/>
			<line class="st0" x1="342.6" y1="1" x2="342.6" y2="399.1"/>
			<line class="st0" x1="399.5" y1="1" x2="399.5" y2="399.1"/>
			<line class="st0" x1="1.1" y1="1" x2="1.1" y2="399.1"/>
		</g>
		<line class="st0" x1="1.1" y1="1.1" x2="399.1" y2="1.1"/>
		<line class="st0" x1="1.1" y1="58" x2="399.1" y2="58"/>
		<line class="st0" x1="1.1" y1="114.9" x2="399.1" y2="114.9"/>
		<line class="st0" x1="1.1" y1="171.8" x2="399.1" y2="171.8"/>
		<line class="st0" x1="1.1" y1="228.7" x2="399.1" y2="228.7"/>
		<line class="st0" x1="1.1" y1="285.7" x2="399.1" y2="285.7"/>
		<line class="st0" x1="1.1" y1="342.6" x2="399.1" y2="342.6"/>
		<line class="st0" x1="1.1" y1="399.5" x2="399.1" y2="399.5"/>
	</g>
</g>
</svg>
