<?xml version="1.0" encoding="utf-8"?>
<!-- Generator: Adobe Illustrator 22.1.0, SVG Export Plug-In . SVG Version: 6.00 Build 0)  -->
<svg version="1.1" id="Layer_1" xmlns="http://www.w3.org/2000/svg" xmlns:xlink="http://www.w3.org/1999/xlink" x="0px" y="0px"
	 viewBox="0 0 601 306" style="enable-background:new 0 0 601 306;" xml:space="preserve">
<style type="text/css">
	.st0{fill:#0A0A0A;}
	.st1{opacity:0.11;fill:none;stroke:#000000;stroke-miterlimit:10;}
	.st2{fill:#231F20;}
	.st3{opacity:0.11;}
	.st4{fill:none;stroke:#000000;stroke-miterlimit:10;}
	.st5{fill:none;stroke:#000000;stroke-width:0.25;stroke-miterlimit:10;}
	.st6{fill:#F0F0F0;}
	.st7{fill:#FFFFFF;}
	.st8{opacity:2.000000e-02;}
	.st9{opacity:5.000000e-02;}
	.st10{opacity:0.5;}
	.st11{opacity:0.18;}
	.st12{opacity:3.000000e-02;}
	.st13{opacity:0.57;}
	.st14{opacity:0.17;}
	.st15{fill:#CCCCCC;}
	.st16{opacity:0.3;}
	.st17{opacity:0.14;}
</style>
<g>
	<rect class="st6" width="601" height="306"/>
	<g>
		<g>
			<rect x="257.4" y="112.2" width="13" height="13"/>
			<polygon points="244.4,112.2 218.5,112.2 192.5,112.2 218.5,138.1 218.5,164.1 244.4,164.1 270.4,190.1 270.4,164.1 270.4,138.1 
				244.4,138.1 			"/>
		</g>
		<g>
			<path d="M283.5,112.2h2.4v10.7h5.4v2.1h-7.8V112.2z"/>
			<path d="M299.2,118.4c0-1-0.6-1.4-1.5-1.4c-0.9,0-1.6,0.5-1.6,1.3h-2.3c0.1-2.1,1.8-3.2,4-3.2c2.3,0,3.7,1.1,3.7,3.3v4.7h1.6v1.8
				h-3.7l0-1.5h-0.1c-0.5,1-1.4,1.7-2.9,1.7c-1.7,0-3-1.2-3-2.9c0-1.5,1.1-2.8,3.1-3l2.6-0.2V118.4z M299.2,121.1v-0.4l-2.8,0.2
				c-0.4,0-0.5,0.2-0.5,0.6v0.8c0,0.6,0.6,0.9,1.4,0.9C298.5,123.3,299.2,122.3,299.2,121.1z"/>
			<path d="M309,122.2l2.1-6.8h2.5l-4.6,12.7h-4.1v-1.8h2.4l0.5-1.4l-3.4-9.6h2.5L309,122.2L309,122.2z"/>
			<path d="M321.1,119.3c1.4,0.3,2.5,1.1,2.5,2.8c0,1.7-1.4,3-4,3c-2.5,0-4-1.2-4.1-3.3h2.3c0.1,0.9,0.7,1.4,1.7,1.4
				c0.9,0,1.6-0.3,1.6-1c0-0.7-0.6-1-1.4-1.1l-1.6-0.4c-1.6-0.4-2.4-1.2-2.4-2.7c0-1.6,1.4-2.9,3.7-2.9c2.2,0,3.7,1,3.8,3.2H321
				c0-0.9-0.6-1.3-1.4-1.3c-0.8,0-1.4,0.4-1.4,1c0,0.6,0.4,0.9,1,1L321.1,119.3z"/>
			<path d="M332,118.4c0-1-0.6-1.4-1.5-1.4c-0.9,0-1.6,0.5-1.6,1.3h-2.3c0.1-2.1,1.8-3.2,4-3.2c2.3,0,3.7,1.1,3.7,3.3v4.7h1.6v1.8
				h-3.7l0-1.5h-0.1c-0.5,1-1.4,1.7-2.9,1.7c-1.7,0-3-1.2-3-2.9c0-1.5,1.1-2.8,3.1-3l2.6-0.2V118.4z M332,121.1v-0.4l-2.8,0.2
				c-0.4,0-0.5,0.2-0.5,0.6v0.8c0,0.6,0.6,0.9,1.4,0.9C331.3,123.3,332,122.3,332,121.1z"/>
			<path d="M340.9,116.7c0.6-1,1.5-1.6,2.8-1.6c2.1,0,3.1,1.3,3.1,3.5v6.3h-2.3v-6.1c0-1.1-0.4-1.8-1.6-1.8c-1.3,0-2.1,1-2.1,2.3
				v5.5h-2.3v-9.6h2.3V116.7z"/>
			<path d="M360.1,122.1l2.7-9.9h2.7l-4,12.7h-2.7l-4-12.7h2.6L360.1,122.1L360.1,122.1z"/>
			<path d="M370.8,114.2h-2.4v-2.1h2.4V114.2z M368.4,124.9v-9.6h2.3v9.6H368.4z"/>
			<path d="M378.4,115.1c2.6,0,4.3,1.9,4.3,4.6v1.2h-6.1v0.6c0,1.1,0.9,1.8,1.9,1.8s1.7-0.6,1.8-1.5h2.3c-0.3,2.1-1.9,3.4-4.2,3.4
				c-2.7,0-4.3-2-4.3-5C374.1,117.1,375.8,115.1,378.4,115.1z M376.5,119.1h3.7v-0.3c0-1-0.8-1.8-1.9-1.8c-1.1,0-1.9,0.7-1.9,1.8
				V119.1z"/>
			<path d="M394.8,122.3l1.4-6.9h2.6l-2.7,9.6h-2.8l-1.4-6.9h-0.1l-1.4,6.9h-2.8l-2.7-9.6h2.6l1.4,6.9h0.1l1.4-6.9h2.9L394.8,122.3
				L394.8,122.3z"/>
			<path d="M283,140.3c0-4,1.8-6.7,5.5-6.7c2.6,0,4.5,1.6,4.7,4.1h-2.4c-0.1-1.3-1-2-2.4-2c-1.6,0-2.7,1-2.7,2.6v3.9
				c0,1.5,1.2,2.7,2.8,2.7c1.5,0,2.3-0.6,2.6-2.1h2.4c-0.4,2.9-2.4,4.2-5,4.2C284.6,146.9,283,144.2,283,140.3z"/>
			<path d="M300.5,146.9c-2.9,0-4.5-2-4.5-5c0-3,1.6-5,4.5-5c2.9,0,4.5,2,4.5,5C305,144.9,303.4,146.9,300.5,146.9z M302.6,140.5
				c0-1.2-0.9-1.8-2-1.8c-1.2,0-2,0.7-2,1.8v2.8c0,1.1,0.9,1.8,2,1.8c1.2,0,2-0.6,2-1.8V140.5z"/>
			<path d="M310.7,138.5c0.6-1,1.5-1.6,2.8-1.6c2.1,0,3.1,1.3,3.1,3.5v6.3h-2.3v-6.1c0-1.1-0.4-1.8-1.6-1.8c-1.3,0-2.1,1-2.1,2.3
				v5.5h-2.3v-9.6h2.3V138.5z"/>
			<path d="M323.7,144.8h2.4v1.8h-4.7v-7.7h-1.9v-1.8h1.9v-3.2h2.3v3.2h2.4v1.8h-2.4V144.8z"/>
			<path d="M329.3,137.1h5.3v1.8h-3v7.7h-2.3V137.1z"/>
			<path d="M342.6,140.1c0-1-0.6-1.4-1.5-1.4c-0.9,0-1.6,0.5-1.6,1.3h-2.3c0.1-2.1,1.8-3.2,4-3.2c2.3,0,3.7,1.1,3.7,3.3v4.7h1.6v1.8
				h-3.7l0-1.5h-0.1c-0.5,1-1.4,1.7-2.9,1.7c-1.7,0-3-1.2-3-2.9c0-1.5,1.1-2.8,3.1-3l2.6-0.2V140.1z M342.6,142.9v-0.4l-2.8,0.2
				c-0.4,0-0.5,0.2-0.5,0.6v0.8c0,0.6,0.6,0.9,1.4,0.9C341.8,145.1,342.6,144.1,342.6,142.9z"/>
			<path d="M352.8,136.9c2,0,3.8,1,4,3.4h-2.3c-0.1-1.2-0.8-1.6-1.7-1.6c-0.9,0-1.8,0.6-1.8,1.9v2.6c0,1.2,0.7,1.9,1.8,1.9
				s1.6-0.4,1.8-1.7h2.3c-0.2,2.4-1.9,3.5-4,3.5c-2.8,0-4.3-2-4.3-4.9C348.5,138.8,350.2,136.9,352.8,136.9z"/>
			<path d="M363.5,144.8h2.4v1.8h-4.7v-7.7h-1.9v-1.8h1.9v-3.2h2.3v3.2h2.4v1.8h-2.4V144.8z"/>
			<path d="M371.4,136H369v-2.1h2.4V136z M369,146.7v-9.6h2.3v9.6H369z"/>
			<path d="M377.5,138.5c0.6-1,1.5-1.6,2.8-1.6c2.1,0,3.1,1.3,3.1,3.5v6.3h-2.3v-6.1c0-1.1-0.4-1.8-1.6-1.8c-1.3,0-2.1,1-2.1,2.3
				v5.5h-2.3v-9.6h2.3V138.5z"/>
			<path d="M393.3,145.4c-0.6,1-1.5,1.5-2.8,1.5c-2.5,0-3.8-2.2-3.8-5c0-2.8,1.2-5,3.8-5c1.3,0,2.2,0.6,2.8,1.5v-1.3h2.3v9.4
				c0,2.6-2.1,3.8-4.3,3.8c-2.3,0-4-0.8-4.3-3h2.3c0.1,0.7,0.6,1.2,1.7,1.2c1.1,0,2.2-0.4,2.2-2.1V145.4z M393.3,141.2
				c0-1.5-0.7-2.5-2.2-2.5c-1.2,0-2,0.8-2,1.8v2.7c0,1.1,0.8,1.8,2,1.8c1.5,0,2.2-1,2.2-2.5V141.2z"/>
			<path d="M283.8,155.7h1.3v12.7h-1.3V155.7z"/>
			<path d="M295.6,162.3c0-1.6-0.5-2.6-2.1-2.6c-1.6,0-2.7,1.3-2.7,3.2v5.5h-1.2v-9.6h1.2v1.7c0.5-1.2,1.5-1.9,2.9-1.9
				c1.9,0,3.1,1,3.1,3.4v6.4h-1.2V162.3z"/>
			<path d="M302.8,167.4h2.3v1.1h-3.5v-8.5H300v-1.1h1.6v-3.2h1.2v3.2h2.3v1.1h-2.3V167.4z"/>
			<path d="M315.7,165.5c-0.2,2-1.9,3.2-3.8,3.2c-2.7,0-3.9-2.1-3.9-5c0-2.9,1.3-5,3.9-5c2.6,0,3.9,2.1,3.9,4.6v0.8h-6.5v1
				c0,1.6,1.3,2.5,2.6,2.5c1.3,0,2.4-0.6,2.6-2.1H315.7z M314.4,162.2c0-1.6-1.2-2.5-2.6-2.5c-1.4,0-2.6,1-2.6,2.5v0.7h5.2V162.2z"
				/>
			<path d="M319.4,158.9h4.2v1.1h-3v8.5h-1.2V158.9z"/>
			<path d="M326.8,168.4v-12.7h1.2v12.7H326.8z"/>
			<path d="M335.9,158.6c2.8,0,4.1,2.1,4.1,5c0,2.9-1.3,5-4.1,5c-2.8,0-4.1-2.1-4.1-5C331.8,160.7,333.1,158.6,335.9,158.6z
				 M338.7,162.2c0-1.5-1.2-2.5-2.8-2.5c-1.6,0-2.8,1-2.8,2.5v2.9c0,1.5,1.2,2.5,2.8,2.5c1.6,0,2.8-1,2.8-2.5V162.2z"/>
			<path d="M349.6,161.9c-0.1-1.6-1.2-2.2-2.5-2.2c-1.3,0-2.5,1-2.5,2.5v2.8c0,1.5,1.1,2.5,2.5,2.5c1.3,0,2.5-0.8,2.5-2.3h1.2
				c-0.2,2.3-1.9,3.3-3.7,3.3c-2.7,0-3.9-2.1-3.9-4.9c0-3.1,1.3-5.1,3.9-5.1c1.9,0,3.4,1.1,3.6,3.3H349.6z"/>
			<path d="M355.7,168.4h-1.2v-12.7h1.2V168.4z M355.8,163.1l3.9-4.2h1.6l-4,4.2l4.4,5.3h-1.5L355.8,163.1z"/>
			<path d="M365.9,157.2h-1.3v-1.3h1.3V157.2z M364.7,168.4v-9.6h1.2v9.6H364.7z"/>
			<path d="M376.2,162.3c0-1.6-0.5-2.6-2.1-2.6c-1.6,0-2.7,1.3-2.7,3.2v5.5h-1.2v-9.6h1.2v1.7c0.5-1.2,1.5-1.9,2.9-1.9
				c1.9,0,3.1,1,3.1,3.4v6.4h-1.2V162.3z"/>
			<path d="M389.2,168.1c0,2.6-1.9,3.9-3.9,3.9c-2,0-3.6-0.7-3.9-2.9h1.2c0.1,1.2,1,1.8,2.6,1.8c1.6,0,2.8-0.9,2.8-2.8v-1.4
				c-0.6,1.2-1.8,1.9-3.1,1.9c-2.5,0-3.8-2-3.8-5c0-3,1.3-5,3.8-5c1.4,0,2.5,0.6,3.1,1.9v-1.6h1.2V168.1z M388,162.9
				c0-1.8-1.1-3.1-2.9-3.1c-1.7,0-2.7,1.1-2.7,2.5v2.9c0,1.4,1,2.5,2.7,2.5c1.8,0,2.9-1.3,2.9-3.1V162.9z"/>
			<path d="M405.6,164.7v-3.1h1.2v4.6l1.7,2.2H407l-0.9-1.1c-1.1,1-2.3,1.3-3.7,1.3c-2.2,0-3.6-1.2-3.6-3.4c0-1.5,0.7-2.3,1.7-3.1
				l0.9-0.7c-1-1.3-1.7-2.2-1.7-3.3c0-1.6,1.3-2.7,3-2.7c1.7,0,2.8,1,2.8,2.7c0,1.3-0.9,2.4-2.4,3.5L405.6,164.7L405.6,164.7z
				 M400.2,165.7c0,1.2,1.1,1.9,2.2,1.9c1.3,0,2.2-0.4,3-1.2l-3.1-4l-1.5,1.2c-0.4,0.3-0.6,0.6-0.6,1.1V165.7z M404.4,158
				c0-0.9-0.6-1.5-1.7-1.5c-1,0-1.7,0.6-1.7,1.6c0,0.8,0.7,1.7,1.5,2.7C403.5,159.8,404.4,159.1,404.4,158z"/>
			<path d="M283.8,177.5h1.3V189h5.8v1.2h-7.1V177.5z"/>
			<path d="M299.3,183.6c0-1.7-0.9-2.2-2.3-2.2c-1.3,0-2.2,0.6-2.2,1.9h-1.2c0-1.8,1.4-3,3.5-3c2.1,0,3.4,1,3.4,3.3v5.4h1.4v1.1
				h-2.5l0-1.9h-0.1c-0.5,1.3-1.6,2.1-3,2.1c-0.9,0-1.8-0.3-2.3-0.8c-0.5-0.5-0.8-1.3-0.8-2c0-1.5,0.8-2.6,2.4-2.7l3.6-0.3V183.6z
				 M295.3,185.9c-0.6,0.1-0.8,0.4-0.8,0.9v1c0,1,0.8,1.4,2,1.4c1.7,0,2.8-1.3,2.8-3.3v-0.5L295.3,185.9z"/>
			<path d="M311,184c0-1.6-0.5-2.6-2.1-2.6c-1.6,0-2.7,1.3-2.7,3.2v5.5h-1.2v-9.6h1.2v1.7c0.5-1.2,1.5-1.9,2.9-1.9
				c1.9,0,3.1,1,3.1,3.4v6.4H311V184z"/>
			<path d="M322.8,190.2v-1.6c-0.6,1.2-1.8,1.9-3.1,1.9c-2.5,0-3.8-2-3.8-5c0-3,1.3-5,3.8-5c1.4,0,2.5,0.6,3.1,1.9v-4.8h1.2v12.7
				H322.8z M322.8,184.6c0-1.8-1.1-3.1-2.9-3.1c-1.7,0-2.7,1.1-2.7,2.5v2.9c0,1.4,1,2.5,2.7,2.5c1.8,0,2.9-1.3,2.9-3.1V184.6z"/>
			<path d="M332.2,184.9c1.8,0.4,2.7,1.2,2.7,2.7c0,1.6-1.3,2.8-3.6,2.8c-2.1,0-3.7-1.1-3.7-3.1h1.2c0,1.4,1.2,2.1,2.5,2.1
				c1.3,0,2.4-0.6,2.4-1.7c0-1-0.5-1.4-1.9-1.7l-1.6-0.3c-1.4-0.3-2.3-1.1-2.3-2.6c0-1.5,1.3-2.7,3.3-2.7c1.7,0,3.4,0.9,3.4,3h-1.2
				c0-1.3-1-1.9-2.2-1.9c-1.3,0-2.1,0.7-2.1,1.6c0,0.9,0.6,1.3,1.6,1.5L332.2,184.9z"/>
			<path d="M344.3,183.7c-0.1-1.6-1.2-2.2-2.5-2.2c-1.3,0-2.5,1-2.5,2.5v2.8c0,1.5,1.1,2.5,2.5,2.5c1.3,0,2.5-0.8,2.5-2.3h1.2
				c-0.2,2.3-1.9,3.3-3.7,3.3c-2.7,0-3.9-2.1-3.9-4.9c0-3.1,1.3-5.1,3.9-5.1c1.9,0,3.4,1.1,3.6,3.3H344.3z"/>
			<path d="M354.6,183.6c0-1.7-0.9-2.2-2.3-2.2c-1.3,0-2.2,0.6-2.2,1.9h-1.2c0-1.8,1.4-3,3.5-3s3.4,1,3.4,3.3v5.4h1.4v1.1h-2.5
				l0-1.9h-0.1c-0.5,1.3-1.6,2.1-3,2.1c-0.9,0-1.8-0.3-2.3-0.8c-0.5-0.5-0.8-1.3-0.8-2c0-1.5,0.8-2.6,2.4-2.7l3.6-0.3V183.6z
				 M350.7,185.9c-0.6,0.1-0.8,0.4-0.8,0.9v1c0,1,0.8,1.4,2,1.4c1.7,0,2.8-1.3,2.8-3.3v-0.5L350.7,185.9z"/>
			<path d="M360.3,193.4v-12.7h1.2v1.6c0.6-1.2,1.7-1.9,3.1-1.9c2.5,0,3.8,2,3.8,5c0,3-1.3,5-3.8,5c-1.3,0-2.5-0.6-3.1-1.9v4.8
				H360.3z M361.5,186.2c0,1.8,1.1,3.1,2.9,3.1c1.7,0,2.7-1.1,2.7-2.5V184c0-1.4-1-2.5-2.7-2.5c-1.8,0-2.9,1.3-2.9,3.1V186.2z"/>
			<path d="M373.4,178.9h-1.3v-1.3h1.3V178.9z M372.1,190.2v-9.6h1.2v9.6H372.1z"/>
			<path d="M383.7,184c0-1.6-0.5-2.6-2.1-2.6c-1.6,0-2.7,1.3-2.7,3.2v5.5h-1.2v-9.6h1.2v1.7c0.5-1.2,1.5-1.9,2.9-1.9
				c1.9,0,3.1,1,3.1,3.4v6.4h-1.2V184z"/>
			<path d="M396.7,189.9c0,2.6-1.9,3.9-3.9,3.9c-2,0-3.6-0.7-3.9-2.9h1.2c0.1,1.2,1,1.8,2.6,1.8c1.6,0,2.8-0.9,2.8-2.8v-1.4
				c-0.6,1.2-1.8,1.9-3.1,1.9c-2.5,0-3.8-2-3.8-5c0-3,1.3-5,3.8-5c1.4,0,2.5,0.6,3.1,1.9v-1.6h1.2V189.9z M395.5,184.6
				c0-1.8-1.1-3.1-2.9-3.1c-1.7,0-2.7,1.1-2.7,2.5v2.9c0,1.4,1,2.5,2.7,2.5c1.8,0,2.9-1.3,2.9-3.1V184.6z"/>
		</g>
	</g>
</g>
</svg>
