<?xml version="1.0" encoding="utf-8"?>
<!-- Generator: Adobe Illustrator 22.1.0, SVG Export Plug-In . SVG Version: 6.00 Build 0)  -->
<svg version="1.1" id="Layer_1" xmlns="http://www.w3.org/2000/svg" xmlns:xlink="http://www.w3.org/1999/xlink" x="0px" y="0px"
	 viewBox="0 0 601 306" style="enable-background:new 0 0 601 306;" xml:space="preserve">
<style type="text/css">
	.st0{fill:#0A0A0A;}
	.st1{opacity:0.11;fill:none;stroke:#000000;stroke-miterlimit:10;}
	.st2{fill:#231F20;}
	.st3{opacity:0.11;}
	.st4{fill:none;stroke:#000000;stroke-miterlimit:10;}
	.st5{fill:none;stroke:#000000;stroke-width:0.25;stroke-miterlimit:10;}
	.st6{fill:#F0F0F0;}
	.st7{fill:#FFFFFF;}
	.st8{opacity:2.000000e-02;}
	.st9{opacity:5.000000e-02;}
	.st10{opacity:0.5;}
	.st11{opacity:0.18;}
	.st12{opacity:3.000000e-02;}
	.st13{opacity:0.57;}
	.st14{opacity:0.17;}
	.st15{fill:#CCCCCC;}
	.st16{opacity:0.3;}
	.st17{opacity:0.14;}
</style>
<g>
	<rect width="601" height="306"/>
	<g>
		<g>
			<g>
				<rect x="257.5" y="112.2" class="st7" width="13" height="13"/>
				<path d="M270.5,125.2h-13.1v-13.1h13.1V125.2z M257.5,125.1h12.9v-12.9h-12.9V125.1z"/>
			</g>
			<g>
				<polygon class="st7" points="244.5,112.2 218.5,112.2 192.6,112.2 218.5,138.1 218.5,164.1 244.5,164.1 270.5,190.1 
					270.5,164.1 270.5,138.1 244.5,138.1 				"/>
				<path d="M270.5,190.1L270.5,190.1l-26-26h-26v-26l-26-26h52v26h26V190.1z M218.6,164.1h25.9l25.9,25.9v-51.8h-26v-26h-51.8
					l25.9,25.9V164.1z"/>
			</g>
		</g>
		<g>
			<g>
				<path class="st7" d="M283.5,112.2h2.4v10.7h5.4v2.1h-7.8V112.2z"/>
				<path d="M291.4,125h-7.9v-12.8h2.5v10.7h5.4V125z M283.6,124.9h7.7v-2h-5.4v-10.7h-2.4V124.9z"/>
			</g>
			<g>
				<path class="st7" d="M299.2,118.4c0-1-0.6-1.4-1.5-1.4c-0.9,0-1.6,0.5-1.6,1.3h-2.3c0.1-2.1,1.8-3.2,4-3.2
					c2.3,0,3.7,1.1,3.7,3.3v4.7h1.6v1.8h-3.7l0-1.5h-0.1c-0.5,1-1.4,1.7-2.9,1.7c-1.7,0-3-1.2-3-2.9c0-1.5,1.1-2.8,3.1-3l2.6-0.2
					V118.4z M299.2,121.2v-0.4l-2.8,0.2c-0.4,0-0.5,0.2-0.5,0.6v0.8c0,0.6,0.6,0.9,1.4,0.9C298.5,123.3,299.2,122.4,299.2,121.2z"/>
				<path d="M296.5,125.2c-1.8,0-3.1-1.3-3.1-3c0-1.7,1.2-2.9,3.2-3l2.6-0.2v-0.6c0-0.9-0.5-1.4-1.5-1.4c-1,0-1.6,0.5-1.6,1.3v0
					h-2.4l0,0c0.1-2,1.6-3.2,4.1-3.2c2.4,0,3.7,1.2,3.7,3.3v4.6h1.6v1.9h-3.8l0-1.5h0C298.8,124.6,297.8,125.2,296.5,125.2z
					 M297.7,116.9c1,0,1.5,0.5,1.5,1.5v0.7l-2.7,0.2c-1.9,0.2-3.1,1.3-3.1,2.9c0,1.7,1.3,2.9,3,2.9c1.3,0,2.3-0.6,2.8-1.7l0,0h0.1
					l0,1.5h3.6v-1.7h-1.6v-4.7c0-2.1-1.3-3.2-3.7-3.2c-2.4,0-3.9,1.2-4,3.1h2.3C296.1,117.4,296.7,116.9,297.7,116.9z M297.3,123.4
					c-0.9,0-1.4-0.3-1.4-0.9v-0.8c0-0.4,0.2-0.6,0.6-0.7l2.8-0.2v0.4C299.3,122.5,298.5,123.4,297.3,123.4z M299.2,120.8l-2.8,0.2
					c-0.3,0-0.5,0.2-0.5,0.6v0.8c0,0.5,0.5,0.8,1.4,0.8c1.1,0,1.9-0.9,1.9-2.1V120.8z"/>
			</g>
			<g>
				<path class="st7" d="M309,122.2l2.1-6.8h2.5l-4.6,12.7H305v-1.8h2.4l0.5-1.4l-3.4-9.5h2.5L309,122.2L309,122.2z"/>
				<path d="M309.1,128.1h-4.1v-1.9h2.4l0.5-1.3l-3.5-9.6h2.6l2.1,6.8h0l2.1-6.8h2.6l0,0.1L309.1,128.1z M305,128.1h4l4.6-12.6h-2.4
					l-2.1,6.8h-0.1l-2.1-6.8h-2.4l3.4,9.5l0,0l-0.5,1.4H305V128.1z"/>
			</g>
			<g>
				<path class="st7" d="M321.1,119.4c1.4,0.3,2.5,1.1,2.5,2.8c0,1.7-1.4,3-4,3c-2.5,0-4-1.2-4.1-3.3h2.3c0.1,0.9,0.7,1.4,1.7,1.4
					c0.9,0,1.6-0.3,1.6-1c0-0.7-0.6-1-1.4-1.1l-1.6-0.4c-1.6-0.4-2.4-1.2-2.4-2.7c0-1.6,1.4-2.9,3.7-2.9c2.2,0,3.7,1,3.8,3.2H321
					c0-0.9-0.6-1.3-1.4-1.3c-0.8,0-1.4,0.4-1.4,1s0.4,0.9,1,1L321.1,119.4z"/>
				<path d="M319.7,125.2c-2.5,0-4-1.2-4.1-3.3l0,0h2.4l0,0c0.1,0.9,0.7,1.4,1.7,1.4c0.8,0,1.6-0.3,1.6-1c0-0.7-0.6-0.9-1.4-1.1
					l-1.6-0.4c-1.6-0.4-2.4-1.3-2.4-2.8c0-1.8,1.5-3,3.7-3c2.3,0,3.7,1.2,3.8,3.2l0,0H321l0,0c0-0.8-0.5-1.3-1.4-1.3
					c-0.8,0-1.3,0.4-1.3,1c0,0.5,0.3,0.8,1,1l1.9,0.4c1.7,0.4,2.6,1.3,2.6,2.8C323.7,124,322.1,125.2,319.7,125.2z M315.7,121.9
					c0.1,2.1,1.5,3.2,4,3.2c2.3,0,3.9-1.2,3.9-2.9c0-1.5-0.8-2.4-2.5-2.8l-1.9-0.4c-0.7-0.2-1.1-0.5-1.1-1c0-0.6,0.6-1,1.4-1
					c0.9,0,1.4,0.5,1.5,1.3h2.3c-0.1-2-1.5-3.1-3.7-3.1c-2.2,0-3.7,1.2-3.7,2.9c0,1.5,0.8,2.3,2.4,2.7l1.6,0.4
					c0.8,0.2,1.5,0.4,1.5,1.2c0,0.7-0.6,1.1-1.7,1.1c-1,0-1.6-0.5-1.8-1.4H315.7z"/>
			</g>
			<g>
				<path class="st7" d="M332,118.4c0-1-0.6-1.4-1.5-1.4c-0.9,0-1.6,0.5-1.6,1.3h-2.3c0.1-2.1,1.8-3.2,4-3.2c2.3,0,3.7,1.1,3.7,3.3
					v4.7h1.6v1.8h-3.7l0-1.5h-0.1c-0.5,1-1.4,1.7-2.9,1.7c-1.7,0-3-1.2-3-2.9c0-1.5,1.1-2.8,3.1-3l2.6-0.2V118.4z M332,121.2v-0.4
					l-2.8,0.2c-0.4,0-0.5,0.2-0.5,0.6v0.8c0,0.6,0.6,0.9,1.4,0.9C331.3,123.3,332,122.4,332,121.2z"/>
				<path d="M329.3,125.2c-1.8,0-3.1-1.3-3.1-3c0-1.7,1.2-2.9,3.2-3l2.6-0.2v-0.6c0-0.9-0.5-1.4-1.5-1.4c-1,0-1.6,0.5-1.6,1.3v0
					h-2.4l0,0c0.1-2,1.6-3.2,4.1-3.2c2.4,0,3.7,1.2,3.7,3.3v4.6h1.6v1.9h-3.8l0-1.5h0C331.6,124.6,330.6,125.2,329.3,125.2z
					 M330.5,116.9c1,0,1.5,0.5,1.5,1.5v0.7l-2.7,0.2c-1.9,0.2-3.1,1.3-3.1,2.9c0,1.7,1.3,2.9,3,2.9c1.3,0,2.3-0.6,2.8-1.7l0,0h0.1
					l0,1.5h3.6v-1.7h-1.6v-4.7c0-2.1-1.3-3.2-3.7-3.2c-2.4,0-3.9,1.2-4,3.1h2.3C328.9,117.4,329.5,116.9,330.5,116.9z M330.1,123.4
					c-0.9,0-1.4-0.3-1.4-0.9v-0.8c0-0.4,0.2-0.6,0.6-0.7l2.8-0.2v0.4C332.1,122.5,331.3,123.4,330.1,123.4z M332,120.8l-2.8,0.2
					c-0.3,0-0.5,0.2-0.5,0.6v0.8c0,0.5,0.5,0.8,1.4,0.8c1.1,0,1.9-0.9,1.9-2.1V120.8z"/>
			</g>
			<g>
				<path class="st7" d="M340.8,116.8c0.6-1,1.5-1.6,2.8-1.6c2.1,0,3.1,1.3,3.1,3.5v6.2h-2.3v-6.1c0-1.1-0.4-1.8-1.6-1.8
					c-1.3,0-2.1,1-2.1,2.3v5.5h-2.3v-9.5h2.3V116.8z"/>
				<path d="M346.8,125h-2.4v-6.1c0-1.2-0.5-1.7-1.5-1.7c-1.2,0-2,0.9-2,2.3v5.6h-2.4v-9.6h2.4v1.3c0.6-1,1.6-1.5,2.8-1.5
					c2.1,0,3.2,1.2,3.2,3.6V125z M344.5,124.9h2.3v-6.2c0-2.3-1.1-3.5-3.1-3.5c-1.3,0-2.2,0.5-2.8,1.6l-0.1,0.1v-1.5h-2.3v9.5h2.3
					v-5.5c0-1.4,0.8-2.4,2.1-2.4c1.1,0,1.6,0.6,1.6,1.8V124.9z"/>
			</g>
			<g>
				<path class="st7" d="M360.1,122.1l2.7-9.9h2.7l-4,12.7h-2.7l-4-12.7h2.6L360.1,122.1L360.1,122.1z"/>
				<path d="M361.4,125h-2.8l0,0l-4-12.8h2.7l0,0l2.7,9.9h0l2.7-9.9h2.8l0,0L361.4,125z M358.7,124.9h2.6l4-12.6h-2.6l-2.7,9.9H360
					l0,0l-2.7-9.9h-2.6L358.7,124.9z"/>
			</g>
			<g>
				<path class="st7" d="M370.7,114.3h-2.4v-2.1h2.4V114.3z M368.3,124.9v-9.5h2.3v9.5H368.3z"/>
				<path d="M370.7,125h-2.4v-9.6h2.4V125z M368.4,124.9h2.3v-9.5h-2.3V124.9z M370.8,114.3h-2.5v-2.2h2.5V114.3z M368.3,114.2h2.3
					v-2h-2.3V114.2z"/>
			</g>
			<g>
				<path class="st7" d="M378.3,115.1c2.6,0,4.3,1.9,4.3,4.6v1.2h-6.1v0.6c0,1.1,0.9,1.8,1.9,1.8c1,0,1.7-0.6,1.8-1.5h2.3
					c-0.3,2.1-1.9,3.3-4.2,3.3c-2.7,0-4.3-2-4.3-5C374,117.1,375.7,115.1,378.3,115.1z M376.4,119.1h3.7v-0.3c0-1-0.8-1.8-1.9-1.8
					c-1.1,0-1.9,0.7-1.9,1.8V119.1z"/>
				<path d="M378.3,125.2c-2.7,0-4.3-1.9-4.3-5.1c0-3,1.7-5,4.3-5c2.5,0,4.3,1.9,4.3,4.6v1.2h-6.1v0.6c0,1.2,1,1.8,1.9,1.8
					c1,0,1.7-0.6,1.8-1.5l0,0h2.4l0,0C382.2,123.9,380.7,125.2,378.3,125.2z M378.3,115.2c-2.6,0-4.3,2-4.3,4.9c0,3.1,1.6,5,4.3,5
					c2.3,0,3.8-1.2,4.1-3.3h-2.3c-0.1,0.9-0.8,1.5-1.9,1.5c-0.9,0-1.9-0.6-1.9-1.8v-0.7h6.1v-1.1C382.5,117,380.8,115.2,378.3,115.2
					z M380.2,119.1h-3.8v-0.4c0-1,0.8-1.8,1.9-1.8c1.1,0,1.9,0.8,1.9,1.8V119.1z M376.5,119h3.7v-0.3c0-1-0.8-1.7-1.8-1.7
					c-1.1,0-1.8,0.7-1.8,1.7V119z"/>
			</g>
			<g>
				<path class="st7" d="M394.8,122.3l1.4-6.9h2.6l-2.7,9.5h-2.8l-1.4-6.9h-0.1l-1.4,6.9h-2.8l-2.7-9.5h2.6l1.4,6.9h0.1l1.4-6.9h2.9
					L394.8,122.3L394.8,122.3z"/>
				<path d="M396.1,125h-2.9l0,0l-1.4-6.9h0l-1.4,6.9h-2.9l0,0l-2.7-9.6h2.7l0,0l1.4,6.9h0l1.4-6.9h3l0,0l1.4,6.9h0l1.4-6.9h2.7l0,0
					L396.1,125z M393.3,124.9h2.8l2.6-9.5h-2.5l-1.4,6.9h-0.1l0,0l-1.4-6.9h-2.9l-1.4,6.9h-0.1l0,0l-1.4-6.9h-2.5l2.6,9.5h2.8
					l1.4-6.9h0.1l0,0L393.3,124.9z"/>
			</g>
			<g>
				<path class="st7" d="M283,140.3c0-4,1.8-6.7,5.5-6.7c2.6,0,4.5,1.6,4.7,4.1h-2.4c-0.1-1.3-1-2-2.4-2c-1.6,0-2.7,1-2.7,2.6v3.9
					c0,1.5,1.2,2.7,2.8,2.7c1.5,0,2.3-0.6,2.6-2.1h2.4c-0.4,2.9-2.4,4.2-5,4.2C284.7,146.9,283,144.2,283,140.3z"/>
				<path d="M288.3,147c-3.4,0-5.4-2.4-5.4-6.6c0-2.1,0.5-3.7,1.4-4.9c0.9-1.2,2.3-1.8,4.1-1.8c2.7,0,4.6,1.6,4.7,4.1l0,0h-2.5l0,0
					c-0.1-1.3-1-2-2.4-2c-1.6,0-2.6,1-2.6,2.6v3.9c0,1.5,1.2,2.6,2.7,2.6c1.5,0,2.3-0.6,2.5-2.1l0,0h2.5l0,0
					C293,145.5,291.2,147,288.3,147z M288.5,133.7c-3.5,0-5.4,2.4-5.4,6.6c0,4.2,1.9,6.6,5.3,6.6c2.8,0,4.6-1.5,5-4.1H291
					c-0.2,1.5-1.1,2.1-2.6,2.1c-1.6,0-2.8-1.2-2.8-2.7v-3.9c0-1.6,1.1-2.7,2.7-2.7c1.5,0,2.3,0.7,2.5,2h2.4
					C292.9,135.3,291.1,133.7,288.5,133.7z"/>
			</g>
			<g>
				<path class="st7" d="M300.5,146.9c-2.9,0-4.5-2-4.5-5c0-3,1.6-5,4.5-5s4.5,2,4.5,5C305,144.9,303.4,146.9,300.5,146.9z
					 M302.6,140.5c0-1.2-0.9-1.8-2-1.8c-1.2,0-2,0.7-2,1.8v2.8c0,1.1,0.9,1.8,2,1.8c1.2,0,2-0.6,2-1.8V140.5z"/>
				<path d="M300.5,146.9c-2.8,0-4.5-1.9-4.5-5c0-3.1,1.7-5,4.5-5c2.8,0,4.5,1.9,4.5,5C305,145,303.3,146.9,300.5,146.9z
					 M300.5,136.9c-2.7,0-4.4,1.9-4.4,5c0,3.1,1.7,5,4.4,5c2.7,0,4.4-1.9,4.4-5C305,138.8,303.3,136.9,300.5,136.9z M300.5,145.1
					c-1.2,0-2.1-0.7-2.1-1.8v-2.8c0-1.1,0.8-1.8,2.1-1.8c1.3,0,2.1,0.7,2.1,1.8v2.8C302.6,144.4,301.8,145.1,300.5,145.1z
					 M300.5,138.7c-1.2,0-2,0.7-2,1.8v2.8c0,1.1,0.8,1.8,2,1.8c1.2,0,2-0.7,2-1.8v-2.8C302.5,139.4,301.7,138.7,300.5,138.7z"/>
			</g>
			<g>
				<path class="st7" d="M310.7,138.5c0.6-1,1.5-1.6,2.8-1.6c2.1,0,3.1,1.3,3.1,3.5v6.2h-2.3v-6.1c0-1.1-0.4-1.8-1.6-1.8
					c-1.3,0-2.1,1-2.1,2.3v5.5h-2.3v-9.5h2.3V138.5z"/>
				<path d="M316.7,146.7h-2.4v-6.1c0-1.2-0.5-1.7-1.5-1.7c-1.2,0-2,0.9-2,2.3v5.6h-2.4v-9.6h2.4v1.3c0.6-1,1.6-1.5,2.8-1.5
					c2.1,0,3.2,1.2,3.2,3.6V146.7z M314.3,146.6h2.3v-6.2c0-2.3-1.1-3.5-3.1-3.5c-1.3,0-2.2,0.5-2.8,1.6l-0.1,0.1v-1.5h-2.3v9.5h2.3
					v-5.5c0-1.4,0.8-2.4,2.1-2.4c1.1,0,1.6,0.6,1.6,1.8V146.6z"/>
			</g>
			<g>
				<path class="st7" d="M323.7,144.8h2.4v1.8h-4.7v-7.7h-1.9v-1.8h1.9v-3.2h2.3v3.2h2.4v1.8h-2.4V144.8z"/>
				<path d="M326.1,146.7h-4.8V139h-1.9v-1.9h1.9v-3.2h2.4v3.2h2.4v1.9h-2.4v5.8h2.4V146.7z M321.4,146.6h4.6v-1.7h-2.4v-6h2.4v-1.7
					h-2.4V134h-2.3v3.2h-1.9v1.7h1.9V146.6z"/>
			</g>
			<g>
				<path class="st7" d="M329.2,137.1h5.3v1.8h-3v7.7h-2.3V137.1z"/>
				<path d="M331.6,146.7h-2.4v-9.6h5.4v1.9h-3V146.7z M329.3,146.6h2.3v-7.7h3v-1.8h-5.3V146.6z"/>
			</g>
			<g>
				<path class="st7" d="M342.5,140.1c0-1-0.6-1.4-1.5-1.4c-0.9,0-1.6,0.5-1.6,1.3h-2.3c0.1-2.1,1.8-3.2,4-3.2
					c2.3,0,3.7,1.1,3.7,3.3v4.7h1.6v1.8h-3.7l0-1.5h-0.1c-0.5,1-1.4,1.7-2.9,1.7c-1.7,0-3-1.2-3-2.9c0-1.5,1.1-2.8,3.1-3l2.6-0.2
					V140.1z M342.5,142.9v-0.4l-2.8,0.2c-0.4,0-0.5,0.2-0.5,0.6v0.8c0,0.6,0.6,0.9,1.4,0.9C341.8,145.1,342.5,144.1,342.5,142.9z"/>
				<path d="M339.8,146.9c-1.8,0-3.1-1.3-3.1-3c0-1.7,1.2-2.9,3.2-3l2.6-0.2v-0.6c0-0.9-0.5-1.4-1.5-1.4c-1,0-1.6,0.5-1.6,1.3v0H337
					l0,0c0.1-2,1.6-3.2,4.1-3.2c2.4,0,3.7,1.2,3.7,3.3v4.6h1.6v1.9h-3.8l0-1.5h0C342.1,146.4,341.1,146.9,339.8,146.9z M341,138.7
					c1,0,1.5,0.5,1.5,1.5v0.7l-2.7,0.2c-1.9,0.2-3.1,1.3-3.1,2.9c0,1.7,1.3,2.9,3,2.9c1.3,0,2.3-0.6,2.8-1.7l0,0h0.1l0,1.5h3.6v-1.7
					h-1.6v-4.7c0-2.1-1.3-3.2-3.7-3.2c-2.4,0-3.9,1.2-4,3.1h2.3C339.4,139.2,340,138.7,341,138.7z M340.6,145.1
					c-0.9,0-1.4-0.3-1.4-0.9v-0.8c0-0.4,0.2-0.6,0.6-0.7l2.8-0.2v0.4C342.6,144.2,341.8,145.1,340.6,145.1z M342.5,142.6l-2.8,0.2
					c-0.3,0-0.5,0.2-0.5,0.6v0.8c0,0.5,0.5,0.8,1.4,0.8c1.1,0,1.9-0.9,1.9-2.1V142.6z"/>
			</g>
			<g>
				<path class="st7" d="M352.8,136.9c2,0,3.8,1,4,3.4h-2.3c-0.1-1.2-0.8-1.6-1.7-1.6c-0.9,0-1.8,0.6-1.8,1.9v2.6
					c0,1.2,0.7,1.9,1.8,1.9c1,0,1.6-0.4,1.8-1.7h2.3c-0.2,2.4-1.9,3.5-4,3.5c-2.8,0-4.3-2-4.3-4.9
					C348.5,138.8,350.2,136.9,352.8,136.9z"/>
				<path d="M352.8,146.9c-2.7,0-4.4-1.9-4.4-5c0-3.1,1.7-5.1,4.3-5.1c1.8,0,3.8,0.9,4,3.5l0,0h-2.4l0,0c-0.1-1.1-0.7-1.6-1.7-1.6
					c-0.8,0-1.7,0.5-1.7,1.8v2.6c0,1.1,0.7,1.8,1.7,1.8c1.1,0,1.6-0.5,1.8-1.7l0,0h2.4l0,0C356.7,145.6,355.2,146.9,352.8,146.9z
					 M352.8,136.9c-2.6,0-4.2,1.9-4.2,5c0,3.1,1.6,4.9,4.3,4.9c2.3,0,3.8-1.3,4-3.4h-2.3c-0.1,1.2-0.7,1.7-1.8,1.7
					c-1.1,0-1.8-0.7-1.8-1.9v-2.6c0-1.4,1-1.9,1.8-1.9c1.1,0,1.6,0.5,1.8,1.6h2.3C356.5,137.8,354.6,136.9,352.8,136.9z"/>
			</g>
			<g>
				<path class="st7" d="M363.4,144.8h2.4v1.8h-4.7v-7.7h-1.9v-1.8h1.9v-3.2h2.3v3.2h2.4v1.8h-2.4V144.8z"/>
				<path d="M365.8,146.7h-4.8V139h-1.9v-1.9h1.9v-3.2h2.4v3.2h2.4v1.9h-2.4v5.8h2.4V146.7z M361.1,146.6h4.6v-1.7h-2.4v-6h2.4v-1.7
					h-2.4V134h-2.3v3.2h-1.9v1.7h1.9V146.6z"/>
			</g>
			<g>
				<path class="st7" d="M371.3,136h-2.4v-2.1h2.4V136z M369,146.7v-9.5h2.3v9.5H369z"/>
				<path d="M371.3,146.7h-2.4v-9.6h2.4V146.7z M369,146.6h2.3v-9.5H369V146.6z M371.4,136.1h-2.5v-2.2h2.5V136.1z M369,136h2.3v-2
					H369V136z"/>
			</g>
			<g>
				<path class="st7" d="M377.5,138.5c0.6-1,1.5-1.6,2.8-1.6c2.1,0,3.1,1.3,3.1,3.5v6.2h-2.3v-6.1c0-1.1-0.4-1.8-1.6-1.8
					c-1.3,0-2.1,1-2.1,2.3v5.5h-2.3v-9.5h2.3V138.5z"/>
				<path d="M383.5,146.7H381v-6.1c0-1.2-0.5-1.7-1.5-1.7c-1.2,0-2,0.9-2,2.3v5.6h-2.4v-9.6h2.4v1.3c0.6-1,1.6-1.5,2.8-1.5
					c2.1,0,3.2,1.2,3.2,3.6V146.7z M381.1,146.6h2.3v-6.2c0-2.3-1.1-3.5-3.1-3.5c-1.3,0-2.2,0.5-2.8,1.6l-0.1,0.1v-1.5h-2.3v9.5h2.3
					v-5.5c0-1.4,0.8-2.4,2.1-2.4c1.1,0,1.6,0.6,1.6,1.8V146.6z"/>
			</g>
			<g>
				<path class="st7" d="M393.2,145.4c-0.6,1-1.5,1.5-2.8,1.5c-2.5,0-3.8-2.2-3.8-5c0-2.8,1.2-5,3.8-5c1.3,0,2.2,0.6,2.8,1.5v-1.3
					h2.3v9.4c0,2.6-2.1,3.8-4.3,3.8c-2.3,0-3.9-0.8-4.2-3h2.3c0.1,0.7,0.6,1.2,1.7,1.2c1.1,0,2.2-0.4,2.2-2.1V145.4z M393.2,141.2
					c0-1.5-0.7-2.5-2.2-2.5c-1.2,0-2,0.8-2,1.8v2.7c0,1.1,0.8,1.8,2,1.8c1.5,0,2.2-1,2.2-2.5V141.2z"/>
				<path d="M391.3,150.4c-2.6,0-4-1-4.3-3l0,0h2.4l0,0c0.2,0.8,0.7,1.1,1.7,1.1c1.4,0,2.1-0.7,2.1-2.1v-0.9
					c-0.6,0.9-1.5,1.4-2.7,1.4c-1.2,0-2.2-0.5-2.9-1.5c-0.6-0.9-1-2.1-1-3.6c0-3.1,1.5-5,3.8-5c1.2,0,2.1,0.5,2.7,1.4v-1.2h2.4v9.4
					C395.6,149.2,393.4,150.4,391.3,150.4z M387.1,147.4c0.3,1.9,1.7,2.9,4.2,2.9c2.1,0,4.3-1.2,4.3-3.8v-9.4h-2.3v1.4l-0.1-0.1
					c-0.6-1-1.6-1.5-2.8-1.5c-2.7,0-3.7,2.6-3.7,5c0,2.4,1,5,3.8,5c1.2,0,2.1-0.5,2.7-1.5l0.1-0.1v1.2c0,1.4-0.7,2.1-2.2,2.1
					c-1,0-1.6-0.4-1.8-1.2H387.1z M391.1,145.1c-1.2,0-2-0.8-2-1.9v-2.7c0-1.1,0.8-1.9,2-1.9c1.4,0,2.2,0.9,2.2,2.5v1.4
					C393.3,144.2,392.5,145.1,391.1,145.1z M391.1,138.7c-1.2,0-1.9,0.7-1.9,1.8v2.7c0,1.1,0.8,1.8,1.9,1.8c1.7,0,2.1-1.3,2.1-2.4
					v-1.4C393.2,140.1,392.8,138.7,391.1,138.7z"/>
			</g>
			<g>
				<path class="st7" d="M283.8,155.7h1.3v12.7h-1.3V155.7z"/>
				<path d="M285.2,168.5h-1.4v-12.8h1.4V168.5z M283.9,168.4h1.2v-12.6h-1.2V168.4z"/>
			</g>
			<g>
				<path class="st7" d="M295.6,162.3c0-1.6-0.5-2.6-2.1-2.6c-1.6,0-2.7,1.3-2.7,3.2v5.5h-1.2v-9.5h1.2v1.7c0.5-1.2,1.5-1.9,2.9-1.9
					c1.9,0,3.1,1,3.1,3.4v6.4h-1.2V162.3z"/>
				<path d="M296.9,168.5h-1.3v-6.2c0-1.7-0.6-2.5-2.1-2.5c-1.5,0-2.7,1.3-2.7,3.2v5.5h-1.3v-9.6h1.3v1.5c0.6-1.1,1.6-1.8,2.9-1.8
					c2.1,0,3.1,1.2,3.1,3.4V168.5z M295.7,168.4h1.1v-6.3c0-2.2-1.1-3.4-3.1-3.4c-1.4,0-2.4,0.6-2.9,1.9l-0.1,0.2v-1.8h-1.1v9.5h1.1
					v-5.4c0-1.9,1.1-3.3,2.7-3.3c1.5,0,2.2,0.8,2.2,2.6V168.4z"/>
			</g>
			<g>
				<path class="st7" d="M302.8,167.3h2.3v1.1h-3.5v-8.5H300v-1.1h1.6v-3.2h1.2v3.2h2.3v1.1h-2.3V167.3z"/>
				<path d="M305.1,168.5h-3.6V160H300v-1.1h1.6v-3.2h1.3v3.2h2.3v1.1h-2.3v7.3h2.3V168.5z M301.6,168.4h3.4v-1h-2.3v-7.5h2.3v-1
					h-2.3v-3.2h-1.1v3.2H300v1h1.6V168.4z"/>
			</g>
			<g>
				<path class="st7" d="M315.7,165.5c-0.2,2-1.9,3.2-3.8,3.2c-2.7,0-3.9-2.1-3.9-5c0-2.9,1.3-5,3.9-5c2.6,0,3.9,2.1,3.9,4.6v0.8
					h-6.5v1c0,1.6,1.3,2.5,2.6,2.5c1.3,0,2.4-0.6,2.6-2.1H315.7z M314.4,162.2c0-1.6-1.2-2.5-2.6-2.5c-1.4,0-2.6,1-2.6,2.5v0.7h5.2
					V162.2z"/>
				<path d="M311.9,168.7c-2.5,0-4-1.8-4-5c0-1.5,0.3-2.7,1-3.6c0.7-0.9,1.7-1.4,3-1.4c2.7,0,3.9,2.3,3.9,4.6v0.8h-6.5v1
					c0,1.6,1.3,2.5,2.6,2.5c1.5,0,2.4-0.8,2.5-2.1l0,0h1.3l0,0C315.5,167.4,313.9,168.7,311.9,168.7z M311.8,158.7
					c-2.4,0-3.9,1.9-3.9,5c0,3.2,1.4,5,3.9,5c2.1,0,3.5-1.2,3.8-3.1h-1.1c-0.2,1.3-1.1,2.1-2.6,2.1c-1.3,0-2.7-1-2.7-2.6V164h6.5
					v-0.8C315.7,161,314.5,158.7,311.8,158.7z M314.5,163h-5.3v-0.7c0-1.5,1.1-2.6,2.6-2.6s2.6,1.1,2.6,2.6V163z M309.3,162.9h5.1
					v-0.7c0-1.6-1.3-2.5-2.6-2.5s-2.6,0.9-2.6,2.5V162.9z"/>
			</g>
			<g>
				<path class="st7" d="M319.4,158.9h4.2v1.1h-3v8.5h-1.2V158.9z"/>
				<path d="M320.7,168.5h-1.3v-9.6h4.3v1.1h-3V168.5z M319.5,168.4h1.1v-8.5h3v-1h-4.1V168.4z"/>
			</g>
			<g>
				<path class="st7" d="M326.8,168.4v-12.7h1.2v12.7H326.8z"/>
				<path d="M328.1,168.5h-1.3v-12.8h1.3V168.5z M326.8,168.4h1.1v-12.6h-1.1V168.4z"/>
			</g>
			<g>
				<path class="st7" d="M335.9,158.6c2.8,0,4.1,2.1,4.1,5c0,2.9-1.3,5-4.1,5c-2.8,0-4.1-2.1-4.1-5
					C331.8,160.7,333.1,158.6,335.9,158.6z M338.7,162.2c0-1.5-1.2-2.5-2.8-2.5c-1.6,0-2.8,1-2.8,2.5v2.9c0,1.5,1.2,2.5,2.8,2.5
					c1.6,0,2.8-1,2.8-2.5V162.2z"/>
				<path d="M335.9,168.7c-2.6,0-4.1-1.8-4.1-5c0-3.2,1.5-5,4.1-5c2.6,0,4.1,1.8,4.1,5C340,166.8,338.5,168.7,335.9,168.7z
					 M335.9,158.7c-2.6,0-4.1,1.8-4.1,5c0,3.2,1.5,5,4.1,5c2.6,0,4.1-1.8,4.1-5C340,160.5,338.5,158.7,335.9,158.7z M335.9,167.6
					c-1.6,0-2.8-1.1-2.8-2.5v-2.9c0-1.5,1.2-2.5,2.8-2.5c1.6,0,2.8,1.1,2.8,2.5v2.9C338.7,166.6,337.5,167.6,335.9,167.6z
					 M335.9,159.7c-1.6,0-2.7,1-2.7,2.5v2.9c0,1.5,1.1,2.5,2.7,2.5s2.8-1,2.8-2.5v-2.9C338.7,160.8,337.5,159.7,335.9,159.7z"/>
			</g>
			<g>
				<path class="st7" d="M349.5,161.9c-0.1-1.6-1.2-2.2-2.5-2.2c-1.3,0-2.5,1-2.5,2.5v2.8c0,1.5,1.1,2.5,2.5,2.5
					c1.3,0,2.5-0.8,2.5-2.3h1.2c-0.2,2.3-1.9,3.3-3.7,3.3c-2.7,0-3.9-2.1-3.9-4.9c0-3.1,1.3-5.1,3.9-5.1c1.9,0,3.4,1.1,3.6,3.3
					H349.5z"/>
				<path d="M347.1,168.7c-2.5,0-3.9-1.8-3.9-5c0-3.2,1.5-5.1,3.9-5.1c2.1,0,3.5,1.3,3.7,3.3l0,0h-1.3l0,0c-0.1-1.3-1-2.2-2.5-2.2
					c-1.2,0-2.5,0.9-2.5,2.5v2.8c0,1.4,1.1,2.5,2.5,2.5c1.4,0,2.4-0.9,2.5-2.2l0,0h1.3l0,0C350.6,167.8,348.8,168.7,347.1,168.7z
					 M347.2,158.7c-2.4,0-3.9,1.9-3.9,5c0,3.1,1.4,4.9,3.8,4.9c1.6,0,3.4-0.9,3.7-3.3h-1.1c-0.1,1.4-1.1,2.3-2.6,2.3
					c-1.4,0-2.6-1.1-2.6-2.6v-2.8c0-1.6,1.3-2.6,2.5-2.6c1.5,0,2.4,0.8,2.5,2.2h1.1C350.5,159.9,349.2,158.7,347.2,158.7z"/>
			</g>
			<g>
				<path class="st7" d="M355.7,168.4h-1.2v-12.7h1.2V168.4z M355.7,163.1l3.9-4.2h1.6l-4,4.2l4.4,5.3h-1.5L355.7,163.1z"/>
				<path d="M361.6,168.5h-1.6l0,0l-4.3-5.3v5.3h-1.3v-12.8h1.3v7.4l3.9-4.2h1.7l-0.1,0.1l-4,4.2L361.6,168.5z M360.1,168.4h1.4
					l-4.3-5.3l0,0l4-4.2h-1.5l-3.9,4.2L360.1,168.4z M354.5,168.4h1.1v-12.6h-1.1V168.4z"/>
			</g>
			<g>
				<path class="st7" d="M365.9,157.2h-1.3v-1.3h1.3V157.2z M364.6,168.4v-9.5h1.2v9.5H364.6z"/>
				<path d="M365.9,168.5h-1.3v-9.6h1.3V168.5z M364.7,168.4h1.1v-9.5h-1.1V168.4z M365.9,157.2h-1.4v-1.4h1.4V157.2z M364.6,157.1
					h1.2v-1.2h-1.2V157.1z"/>
			</g>
			<g>
				<path class="st7" d="M376.2,162.3c0-1.6-0.5-2.6-2.1-2.6c-1.6,0-2.7,1.3-2.7,3.2v5.5h-1.2v-9.5h1.2v1.7c0.5-1.2,1.5-1.9,2.9-1.9
					c1.9,0,3.1,1,3.1,3.4v6.4h-1.2V162.3z"/>
				<path d="M377.4,168.5h-1.3v-6.2c0-1.7-0.6-2.5-2.1-2.5c-1.5,0-2.7,1.3-2.7,3.2v5.5h-1.3v-9.6h1.3v1.5c0.6-1.1,1.6-1.8,2.9-1.8
					c2.1,0,3.1,1.2,3.1,3.4V168.5z M376.2,168.4h1.1v-6.3c0-2.2-1.1-3.4-3.1-3.4c-1.4,0-2.4,0.6-2.9,1.9l-0.1,0.2v-1.8h-1.1v9.5h1.1
					v-5.4c0-1.9,1.1-3.3,2.7-3.3c1.5,0,2.2,0.8,2.2,2.6V168.4z"/>
			</g>
			<g>
				<path class="st7" d="M389.2,168.1c0,2.6-1.9,3.9-3.9,3.9c-2,0-3.6-0.7-3.9-2.9h1.2c0.1,1.2,1,1.8,2.6,1.8c1.6,0,2.8-0.9,2.8-2.8
					v-1.4c-0.6,1.2-1.8,1.9-3.1,1.9c-2.5,0-3.8-2-3.8-5c0-3,1.3-5,3.8-5c1.4,0,2.5,0.6,3.1,1.9v-1.6h1.2V168.1z M388,162.9
					c0-1.8-1.1-3.1-2.9-3.1c-1.7,0-2.7,1.1-2.7,2.5v2.9c0,1.4,1,2.5,2.7,2.5c1.8,0,2.9-1.3,2.9-3.1V162.9z"/>
				<path d="M385.3,172.1c-2.4,0-3.7-1-3.9-2.9l0,0h1.3l0,0c0.2,1.2,1,1.8,2.5,1.8c1.7,0,2.7-1,2.7-2.8v-1.2c-0.6,1.1-1.7,1.8-3,1.8
					c-2.4,0-3.9-1.9-3.9-5c0-1.5,0.3-2.7,1-3.6c0.7-0.9,1.7-1.4,2.9-1.4c1.4,0,2.5,0.6,3.1,1.8v-1.5h1.3v9.3
					C389.2,170.9,387.2,172.1,385.3,172.1z M381.4,169.2c0.2,1.9,1.5,2.8,3.8,2.8c1.9,0,3.9-1.2,3.9-3.9v-9.2H388v1.8l-0.1-0.1
					c-0.6-1.2-1.7-1.9-3.1-1.9c-2.4,0-3.8,1.9-3.8,5c0,3.1,1.4,5,3.8,5c1.4,0,2.5-0.7,3.1-1.9l0.1-0.1v1.5c0,1.8-1.1,2.9-2.8,2.9
					c-1.6,0-2.4-0.6-2.6-1.8H381.4z M385.1,167.6c-1.6,0-2.8-1-2.8-2.5v-2.9c0-1.5,1.1-2.5,2.8-2.5c1.8,0,2.9,1.3,2.9,3.2v1.6
					C388,166.3,386.8,167.6,385.1,167.6z M385.1,159.7c-1.6,0-2.7,1-2.7,2.5v2.9c0,1.4,1.1,2.5,2.7,2.5c1.7,0,2.9-1.2,2.9-3.1v-1.6
					C387.9,161,386.8,159.7,385.1,159.7z"/>
			</g>
			<g>
				<path class="st7" d="M405.5,164.7v-3.1h1.2v4.6l1.7,2.2h-1.5l-0.9-1.1c-1.1,1-2.3,1.3-3.6,1.3c-2.2,0-3.6-1.2-3.6-3.4
					c0-1.5,0.7-2.3,1.7-3.1l0.9-0.7c-1-1.3-1.7-2.2-1.7-3.3c0-1.6,1.3-2.7,3-2.7c1.7,0,2.8,1,2.8,2.7c0,1.3-0.9,2.4-2.4,3.5
					L405.5,164.7L405.5,164.7z M400.1,165.7c0,1.2,1.1,1.9,2.2,1.9c1.3,0,2.2-0.4,3-1.2l-3.1-4l-1.5,1.2c-0.4,0.3-0.6,0.6-0.6,1.1
					V165.7z M404.3,158c0-0.9-0.6-1.5-1.7-1.5c-1,0-1.7,0.6-1.7,1.6c0,0.8,0.7,1.7,1.5,2.7C403.5,159.8,404.3,159.1,404.3,158z"/>
				<path d="M402.4,168.7c-2.2,0-3.6-1.3-3.6-3.4c0-1.5,0.7-2.3,1.8-3.1l0.9-0.7l-0.1-0.1c-1-1.3-1.7-2.1-1.7-3.2
					c0-1.6,1.3-2.8,3-2.8c1.8,0,2.9,1,2.9,2.7c0,1.5-1.1,2.6-2.4,3.5l2.3,3v-3.1h1.3v4.7l1.7,2.2h-1.6l0,0l-0.9-1.1
					C404.9,168.3,403.8,168.7,402.4,168.7z M402.7,155.4c-1.7,0-2.9,1.1-2.9,2.7c0,1.1,0.7,1.9,1.7,3.2l0.1,0.1l-0.9,0.8
					c-1.1,0.8-1.7,1.6-1.7,3.1c0,2.1,1.4,3.3,3.5,3.3c1.5,0,2.6-0.4,3.6-1.3l0,0l0,0l0.9,1.1h1.4l-1.6-2.1v-4.6h-1.1v3.1h-0.1l0,0
					l-2.4-3.1l0,0c1.2-1,2.4-2.1,2.4-3.5C405.5,156.4,404.4,155.4,402.7,155.4z M402.3,167.6c-1.1,0-2.3-0.7-2.3-1.9v-1
					c0-0.5,0.2-0.8,0.6-1.2l1.5-1.2l0,0l3.2,4.1l0,0C404.6,167.2,403.6,167.6,402.3,167.6z M402.2,162.4l-1.5,1.2
					c-0.4,0.3-0.5,0.6-0.5,1.1v1c0,1.2,1.1,1.9,2.2,1.9c1.2,0,2.2-0.4,2.9-1.1L402.2,162.4z M402.4,160.7L402.4,160.7
					c-0.8-1-1.5-1.9-1.5-2.7c0-1,0.7-1.6,1.8-1.6c1.1,0,1.7,0.6,1.7,1.6C404.3,159.1,403.5,159.9,402.4,160.7L402.4,160.7z
					 M402.6,156.5c-1,0-1.7,0.6-1.7,1.5c0,0.8,0.7,1.7,1.5,2.6c1.1-0.8,1.9-1.6,1.9-2.7C404.3,157,403.6,156.5,402.6,156.5z"/>
			</g>
			<g>
				<path class="st7" d="M283.8,177.4h1.3v11.5h5.8v1.2h-7.1V177.4z"/>
				<path d="M290.9,190.2h-7.1v-12.8h1.4v11.5h5.8V190.2z M283.9,190.1h7V189h-5.8v-11.5h-1.2V190.1z"/>
			</g>
			<g>
				<path class="st7" d="M299.3,183.6c0-1.7-0.9-2.2-2.3-2.2c-1.3,0-2.2,0.6-2.2,1.9h-1.2c0-1.8,1.4-3,3.5-3s3.4,1,3.4,3.3v5.4h1.4
					v1.1h-2.5l0-1.9h-0.1c-0.5,1.3-1.6,2.1-3,2.1c-0.9,0-1.8-0.3-2.3-0.8c-0.5-0.5-0.8-1.3-0.8-2c0-1.5,0.8-2.6,2.4-2.7l3.6-0.3
					V183.6z M295.4,185.9c-0.6,0.1-0.8,0.4-0.8,0.9v1c0,1,0.8,1.4,2,1.4c1.7,0,2.8-1.3,2.8-3.3v-0.5L295.4,185.9z"/>
				<path d="M296.3,190.4c-1,0-1.8-0.3-2.3-0.9c-0.5-0.5-0.8-1.3-0.8-2c0-1.6,0.9-2.6,2.5-2.8l3.6-0.3v-0.8c0-1.5-0.7-2.1-2.2-2.1
					c-1.4,0-2.2,0.7-2.2,1.9v0h-1.3v0c0-1.8,1.5-3,3.5-3c2.2,0,3.5,1.2,3.5,3.3v5.4h1.4v1.1h-2.5l0-1.8
					C298.9,189.7,297.8,190.4,296.3,190.4z M297.1,181.4c1.6,0,2.3,0.7,2.3,2.2v0.9l0,0l-3.6,0.3c-1.5,0.1-2.4,1.1-2.4,2.7
					c0,0.7,0.3,1.5,0.8,2c0.5,0.5,1.3,0.8,2.3,0.8c1.4,0,2.5-0.7,3-2.1l0,0h0.1l0,1.9h2.4v-1h-1.4v-5.5c0-2.1-1.2-3.2-3.4-3.2
					c-2,0-3.4,1.2-3.5,2.9h1.1C294.8,182.1,295.6,181.4,297.1,181.4z M296.5,189.4c-1.3,0-2-0.5-2-1.5v-1c0-0.6,0.2-0.9,0.8-1h0
					l4-0.4v0.5C299.4,188,298.3,189.4,296.5,189.4z M295.4,185.9c-0.5,0.1-0.8,0.3-0.8,0.9v1c0,0.9,0.7,1.4,1.9,1.4
					c1.7,0,2.7-1.3,2.7-3.3v-0.4L295.4,185.9z"/>
			</g>
			<g>
				<path class="st7" d="M311,184c0-1.6-0.5-2.6-2.1-2.6c-1.6,0-2.7,1.3-2.7,3.2v5.5h-1.2v-9.5h1.2v1.7c0.5-1.2,1.5-1.9,2.9-1.9
					c1.9,0,3.1,1,3.1,3.4v6.4H311V184z"/>
				<path d="M312.2,190.2h-1.3V184c0-1.7-0.6-2.5-2.1-2.5c-1.5,0-2.7,1.3-2.7,3.2v5.5h-1.3v-9.6h1.3v1.5c0.6-1.1,1.6-1.8,2.9-1.8
					c2.1,0,3.1,1.2,3.1,3.4V190.2z M311,190.1h1.1v-6.3c0-2.2-1.1-3.4-3.1-3.4c-1.4,0-2.4,0.6-2.9,1.9l-0.1,0.2v-1.8H305v9.5h1.1
					v-5.4c0-1.9,1.1-3.3,2.7-3.3c1.5,0,2.2,0.8,2.2,2.6V190.1z"/>
			</g>
			<g>
				<path class="st7" d="M322.8,190.2v-1.6c-0.6,1.2-1.8,1.9-3.1,1.9c-2.5,0-3.8-2-3.8-5c0-3,1.3-5,3.8-5c1.4,0,2.5,0.6,3.1,1.9
					v-4.8h1.2v12.7H322.8z M322.8,184.6c0-1.8-1.1-3.1-2.9-3.1c-1.7,0-2.7,1.1-2.7,2.5v2.9c0,1.4,1,2.5,2.7,2.5
					c1.8,0,2.9-1.3,2.9-3.1V184.6z"/>
				<path d="M319.7,190.4c-2.4,0-3.9-1.9-3.9-5c0-1.5,0.3-2.7,1-3.6c0.7-0.9,1.7-1.4,2.9-1.4c1.4,0,2.5,0.6,3.1,1.8v-4.7h1.3v12.8
					h-1.3v-1.5C322.1,189.8,321,190.4,319.7,190.4z M319.6,180.4c-2.4,0-3.8,1.9-3.8,5s1.4,5,3.8,5c1.4,0,2.5-0.7,3.1-1.9l0.1-0.1
					v1.8h1.1v-12.6h-1.1v5l-0.1-0.1C322.1,181.1,321.1,180.4,319.6,180.4z M319.9,189.4c-1.6,0-2.8-1-2.8-2.5v-2.9
					c0-1.5,1.1-2.5,2.8-2.5c1.8,0,2.9,1.3,2.9,3.2v1.6C322.8,188.1,321.6,189.4,319.9,189.4z M319.9,181.5c-1.6,0-2.7,1-2.7,2.5v2.9
					c0,1.4,1.1,2.5,2.7,2.5c1.7,0,2.9-1.2,2.9-3.1v-1.6C322.7,182.7,321.6,181.5,319.9,181.5z"/>
			</g>
			<g>
				<path class="st7" d="M332.2,184.9c1.8,0.4,2.7,1.2,2.7,2.7c0,1.6-1.3,2.8-3.6,2.8c-2.1,0-3.6-1.1-3.7-3.1h1.2
					c0,1.4,1.2,2.1,2.5,2.1c1.3,0,2.4-0.6,2.4-1.7c0-1-0.5-1.4-1.9-1.7l-1.6-0.3c-1.4-0.3-2.3-1.1-2.3-2.6c0-1.5,1.3-2.7,3.3-2.7
					c1.7,0,3.4,0.9,3.4,3h-1.2c0-1.3-1-1.9-2.2-1.9c-1.3,0-2.1,0.7-2.1,1.6s0.6,1.3,1.6,1.5L332.2,184.9z"/>
				<path d="M331.3,190.4c-2.2,0-3.7-1.2-3.7-3.2l0,0h1.3l0,0c0,1.4,1.3,2,2.5,2c1.4,0,2.3-0.6,2.3-1.6c0-0.9-0.5-1.3-1.9-1.6
					l-1.6-0.3c-1.6-0.3-2.4-1.2-2.4-2.6c0-1.6,1.4-2.7,3.4-2.7c1.6,0,3.4,0.8,3.5,3l0,0h-1.3l0,0c0-1.2-0.8-1.9-2.2-1.9
					c-1.2,0-2.1,0.6-2.1,1.6c0,0.8,0.5,1.3,1.5,1.5l1.6,0.3c1.9,0.4,2.7,1.3,2.7,2.8C334.9,189.3,333.4,190.4,331.3,190.4z
					 M327.6,187.3c0.1,1.9,1.5,3.1,3.6,3.1c2.1,0,3.6-1.1,3.6-2.7c0-1.5-0.8-2.3-2.7-2.7l-1.6-0.3c-1.1-0.2-1.6-0.7-1.6-1.6
					c0-1,0.9-1.6,2.2-1.6c1.4,0,2.2,0.7,2.2,1.9h1.1c-0.1-2.1-1.9-2.9-3.4-2.9c-1.9,0-3.3,1.1-3.3,2.6c0,1.4,0.8,2.2,2.3,2.5
					l1.6,0.3c1.4,0.3,1.9,0.8,1.9,1.7c0,1-0.9,1.7-2.4,1.7c-1.2,0-2.5-0.6-2.5-2.1H327.6z"/>
			</g>
			<g>
				<path class="st7" d="M344.2,183.6c-0.1-1.6-1.2-2.2-2.5-2.2c-1.3,0-2.5,1-2.5,2.5v2.8c0,1.5,1.1,2.5,2.5,2.5
					c1.3,0,2.5-0.8,2.5-2.3h1.2c-0.2,2.3-1.9,3.3-3.7,3.3c-2.7,0-3.9-2.1-3.9-4.9c0-3.1,1.3-5.1,3.9-5.1c1.9,0,3.4,1.1,3.6,3.3
					H344.2z"/>
				<path d="M341.8,190.4c-2.5,0-3.9-1.8-3.9-5c0-3.2,1.5-5.1,3.9-5.1c2.1,0,3.5,1.3,3.7,3.3l0,0h-1.3l0,0c-0.1-1.3-1-2.2-2.4-2.2
					c-1.2,0-2.5,0.9-2.5,2.5v2.8c0,1.4,1.1,2.5,2.5,2.5c1.4,0,2.4-0.9,2.5-2.2l0,0h1.3l0,0C345.3,189.5,343.5,190.4,341.8,190.4z
					 M341.9,180.4c-2.4,0-3.9,1.9-3.9,5c0,3.1,1.4,4.9,3.8,4.9c1.6,0,3.4-0.9,3.7-3.3h-1.1c-0.1,1.4-1.1,2.3-2.6,2.3
					c-1.4,0-2.6-1.1-2.6-2.6V184c0-1.6,1.3-2.6,2.5-2.6c1.5,0,2.4,0.8,2.5,2.2h1.1C345.3,181.6,343.9,180.4,341.9,180.4z"/>
			</g>
			<g>
				<path class="st7" d="M354.6,183.6c0-1.7-0.9-2.2-2.3-2.2c-1.3,0-2.2,0.6-2.2,1.9h-1.2c0-1.8,1.4-3,3.5-3s3.4,1,3.4,3.3v5.4h1.4
					v1.1h-2.5l0-1.9h-0.1c-0.5,1.3-1.6,2.1-3,2.1c-0.9,0-1.8-0.3-2.3-0.8c-0.5-0.5-0.8-1.3-0.8-2c0-1.5,0.8-2.6,2.4-2.7l3.6-0.3
					V183.6z M350.6,185.9c-0.6,0.1-0.8,0.4-0.8,0.9v1c0,1,0.8,1.4,2,1.4c1.7,0,2.8-1.3,2.8-3.3v-0.5L350.6,185.9z"/>
				<path d="M351.6,190.4c-1,0-1.8-0.3-2.3-0.9c-0.5-0.5-0.8-1.3-0.8-2c0-1.6,0.9-2.6,2.5-2.8l3.6-0.3v-0.8c0-1.5-0.7-2.1-2.2-2.1
					c-1.4,0-2.2,0.7-2.2,1.9v0h-1.3v0c0-1.8,1.5-3,3.5-3c2.2,0,3.5,1.2,3.5,3.3v5.4h1.4v1.1h-2.5l0-1.8
					C354.1,189.7,353.1,190.4,351.6,190.4z M352.3,181.4c1.6,0,2.3,0.7,2.3,2.2v0.9l0,0l-3.6,0.3c-1.5,0.1-2.4,1.1-2.4,2.7
					c0,0.7,0.3,1.5,0.8,2c0.5,0.5,1.3,0.8,2.3,0.8c1.4,0,2.5-0.7,3-2.1l0,0h0.1l0,1.9h2.4v-1h-1.4v-5.5c0-2.1-1.2-3.2-3.4-3.2
					c-2,0-3.4,1.2-3.5,2.9h1.1C350.1,182.1,350.9,181.4,352.3,181.4z M351.8,189.4c-1.3,0-2-0.5-2-1.5v-1c0-0.6,0.2-0.9,0.8-1h0
					l4-0.4v0.5C354.6,188,353.5,189.4,351.8,189.4z M350.6,185.9c-0.5,0.1-0.8,0.3-0.8,0.9v1c0,0.9,0.7,1.4,1.9,1.4
					c1.7,0,2.7-1.3,2.7-3.3v-0.4L350.6,185.9z"/>
			</g>
			<g>
				<path class="st7" d="M360.2,193.3v-12.7h1.2v1.6c0.6-1.2,1.7-1.9,3.1-1.9c2.5,0,3.8,2,3.8,5c0,3-1.3,5-3.8,5
					c-1.3,0-2.5-0.6-3.1-1.9v4.8H360.2z M361.4,186.2c0,1.8,1.1,3.1,2.9,3.1c1.7,0,2.7-1.1,2.7-2.5v-2.9c0-1.4-1-2.5-2.7-2.5
					c-1.8,0-2.9,1.3-2.9,3.1V186.2z"/>
				<path d="M361.5,193.4h-1.3v-12.8h1.3v1.5c0.6-1.2,1.7-1.8,3.1-1.8c1.2,0,2.2,0.5,2.9,1.4c0.6,0.9,1,2.1,1,3.6c0,3.2-1.4,5-3.8,5
					c-1.4,0-2.5-0.6-3.1-1.8V193.4z M360.3,193.3h1.1v-5l0.1,0.1c0.6,1.2,1.7,1.9,3.1,1.9c2.4,0,3.8-1.9,3.8-5s-1.4-5-3.8-5
					c-1.4,0-2.5,0.6-3.1,1.9l-0.1,0.1v-1.8h-1.1V193.3z M364.3,189.4c-1.8,0-2.9-1.3-2.9-3.2v-1.6c0-1.9,1.2-3.2,2.9-3.2
					c1.6,0,2.8,1,2.8,2.5v2.9C367.1,188.3,366,189.4,364.3,189.4z M364.3,181.5c-1.7,0-2.9,1.2-2.9,3.1v1.6c0,1.9,1.2,3.1,2.9,3.1
					c1.6,0,2.7-1,2.7-2.5v-2.9C367,182.5,365.9,181.5,364.3,181.5z"/>
			</g>
			<g>
				<path class="st7" d="M373.4,178.9h-1.3v-1.3h1.3V178.9z M372.1,190.2v-9.5h1.2v9.5H372.1z"/>
				<path d="M373.4,190.2h-1.3v-9.6h1.3V190.2z M372.1,190.1h1.1v-9.5h-1.1V190.1z M373.4,179H372v-1.4h1.4V179z M372.1,178.9h1.2
					v-1.2h-1.2V178.9z"/>
			</g>
			<g>
				<path class="st7" d="M383.6,184c0-1.6-0.5-2.6-2.1-2.6c-1.6,0-2.7,1.3-2.7,3.2v5.5h-1.2v-9.5h1.2v1.7c0.5-1.2,1.5-1.9,2.9-1.9
					c1.9,0,3.1,1,3.1,3.4v6.4h-1.2V184z"/>
				<path d="M384.9,190.2h-1.3V184c0-1.7-0.6-2.5-2.1-2.5c-1.5,0-2.7,1.3-2.7,3.2v5.5h-1.3v-9.6h1.3v1.5c0.6-1.1,1.6-1.8,2.9-1.8
					c2.1,0,3.1,1.2,3.1,3.4V190.2z M383.7,190.1h1.1v-6.3c0-2.2-1.1-3.4-3.1-3.4c-1.4,0-2.4,0.6-2.9,1.9l-0.1,0.2v-1.8h-1.1v9.5h1.1
					v-5.4c0-1.9,1.1-3.3,2.7-3.3c1.5,0,2.2,0.8,2.2,2.6V190.1z"/>
			</g>
			<g>
				<path class="st7" d="M396.6,189.9c0,2.6-1.9,3.9-3.9,3.9c-2,0-3.6-0.7-3.9-2.9h1.2c0.1,1.2,1,1.8,2.6,1.8s2.8-0.9,2.8-2.8v-1.4
					c-0.6,1.2-1.8,1.9-3.1,1.9c-2.5,0-3.8-2-3.8-5c0-3,1.3-5,3.8-5c1.4,0,2.5,0.6,3.1,1.9v-1.6h1.2V189.9z M395.4,184.6
					c0-1.8-1.1-3.1-2.9-3.1c-1.7,0-2.7,1.1-2.7,2.5v2.9c0,1.4,1,2.5,2.7,2.5c1.8,0,2.9-1.3,2.9-3.1V184.6z"/>
				<path d="M392.7,193.8c-2.4,0-3.7-1-3.9-2.9l0,0h1.3l0,0c0.2,1.2,1,1.8,2.5,1.8c1.7,0,2.7-1,2.7-2.8v-1.2c-0.6,1.1-1.7,1.8-3,1.8
					c-2.4,0-3.9-1.9-3.9-5c0-1.5,0.3-2.7,1-3.6c0.7-0.9,1.7-1.4,2.9-1.4c1.4,0,2.5,0.6,3.1,1.8v-1.5h1.3v9.3
					C396.7,192.6,394.7,193.8,392.7,193.8z M388.9,190.9c0.2,1.9,1.5,2.8,3.8,2.8c1.9,0,3.9-1.2,3.9-3.9v-9.2h-1.1v1.8l-0.1-0.1
					c-0.6-1.2-1.7-1.9-3.1-1.9c-2.4,0-3.8,1.9-3.8,5s1.4,5,3.8,5c1.4,0,2.5-0.7,3.1-1.9l0.1-0.1v1.5c0,1.8-1.1,2.9-2.8,2.9
					c-1.5,0-2.4-0.6-2.6-1.8H388.9z M392.5,189.4c-1.6,0-2.8-1-2.8-2.5v-2.9c0-1.5,1.1-2.5,2.8-2.5c1.8,0,2.9,1.3,2.9,3.2v1.6
					C395.5,188.1,394.3,189.4,392.5,189.4z M392.5,181.5c-1.6,0-2.7,1-2.7,2.5v2.9c0,1.4,1.1,2.5,2.7,2.5c1.7,0,2.9-1.2,2.9-3.1
					v-1.6C395.4,182.7,394.2,181.5,392.5,181.5z"/>
			</g>
		</g>
	</g>
</g>
</svg>
