<?xml version="1.0" encoding="utf-8"?>
<!-- Generator: Adobe Illustrator 22.1.0, SVG Export Plug-In . SVG Version: 6.00 Build 0)  -->
<svg version="1.1" id="Layer_1" xmlns="http://www.w3.org/2000/svg" xmlns:xlink="http://www.w3.org/1999/xlink" x="0px" y="0px"
	 viewBox="0 0 281.2 345.9" style="enable-background:new 0 0 281.2 345.9;" xml:space="preserve">
<style type="text/css">
	.st0{fill:none;stroke:#000000;stroke-width:0.25;stroke-miterlimit:10;}
</style>
<g>
	<g>
		<path d="M1.1,323.4h2.3V338H11v2.1H1.1V323.4z"/>
		<path d="M24.5,338.2v1.9h-3.7l0-2.3h-0.1c-0.7,1.8-2.1,2.6-3.9,2.6c-1.2,0-2.3-0.4-3-1.1c-0.6-0.7-1-1.6-1-2.6
			c0-2,1.3-3.5,3.7-3.8l4.1-0.4v-1c0-1.9-1.1-2.5-2.6-2.5c-1.5,0-2.6,0.7-2.6,2.3h-2.2c0-2.4,2.1-4,4.8-4c2.7,0,4.7,1.3,4.7,4.3v6.6
			H24.5z M20.5,334.8v-0.6l-4.4,0.4c-0.9,0.1-1,0.5-1,1.2v1.1c0,1.2,0.9,1.7,2.3,1.7C19.3,338.6,20.5,337,20.5,334.8z"/>
		<path d="M29.2,329.6c0.7-1.4,1.8-2.4,3.7-2.4c2.4,0,4.1,1.3,4.1,4.5v8.3h-2.2V332c0-1.8-0.6-2.9-2.5-2.9c-1.8,0-3.1,1.5-3.1,3.7
			v7.3H27v-12.5h2.2V329.6z"/>
		<path d="M49.3,340.1v-2c-0.8,1.5-2.1,2.3-3.9,2.3c-3.4,0-5-2.9-5-6.5c0-3.6,1.6-6.5,5-6.5c1.9,0,3.2,0.8,4,2.3v-6.2h2.2v16.7H49.3
			z M49.3,332.7c0-2.2-1.2-3.7-3.4-3.7c-1.8,0-3.2,1.2-3.2,2.8v3.9c0,1.7,1.4,2.8,3.2,2.8c2.2,0,3.4-1.6,3.4-3.7V332.7z"/>
		<path d="M61.1,333c2.5,0.5,3.7,1.7,3.7,3.7c0,2.1-2,3.7-5,3.7c-2.8,0-5-1.4-5.1-4.2H57c0,1.7,1.4,2.5,2.9,2.5
			c1.5,0,2.7-0.7,2.7-1.9c0-1-0.6-1.6-2.2-1.9l-2.1-0.4c-2-0.4-3.2-1.6-3.2-3.5c0-2,1.9-3.6,4.6-3.6c2.4,0,4.7,1.2,4.7,4h-2.2
			c0-1.6-1.2-2.3-2.5-2.3c-1.4,0-2.5,0.7-2.5,1.8c0,1,0.5,1.5,1.8,1.7L61.1,333z"/>
		<path d="M72.8,327.3c2.6,0,4.7,1.4,5,4.4h-2.2c-0.2-2-1.4-2.6-2.9-2.6s-2.9,1-2.9,2.9v3.7c0,1.8,1.3,2.9,2.9,2.9
			c1.6,0,2.8-0.9,3-2.7h2.2c-0.3,3.1-2.6,4.5-5.1,4.5c-3.6,0-5.3-2.7-5.3-6.4C67.4,329.9,69.4,327.3,72.8,327.3z"/>
		<path d="M92.2,338.2v1.9h-3.7l0-2.3h-0.1c-0.7,1.8-2.1,2.6-3.9,2.6c-1.2,0-2.3-0.4-3-1.1c-0.6-0.7-1-1.6-1-2.6
			c0-2,1.3-3.5,3.7-3.8l4.1-0.4v-1c0-1.9-1.1-2.5-2.6-2.5c-1.5,0-2.6,0.7-2.6,2.3h-2.2c0-2.4,2.1-4,4.8-4c2.7,0,4.7,1.3,4.7,4.3v6.6
			H92.2z M88.2,334.8v-0.6l-4.4,0.4c-0.9,0.1-1,0.5-1,1.2v1.1c0,1.2,0.9,1.7,2.3,1.7C86.9,338.6,88.2,337,88.2,334.8z"/>
		<path d="M94.6,344.2v-16.7h2.2v2c0.8-1.5,2.1-2.3,4-2.3c3.4,0,5,2.9,5,6.5c0,3.6-1.6,6.5-5,6.5c-1.9,0-3.2-0.8-4-2.3v6.2H94.6z
			 M96.9,334.9c0,2.2,1.2,3.7,3.4,3.7c1.8,0,3.2-1.2,3.2-2.8v-3.9c0-1.7-1.3-2.8-3.2-2.8c-2.2,0-3.4,1.6-3.4,3.7V334.9z"/>
		<path d="M111.5,325.7h-2.3v-2.3h2.3V325.7z M109.2,340.1v-12.5h2.2v12.5H109.2z"/>
		<path d="M117.7,329.6c0.7-1.4,1.8-2.4,3.7-2.4c2.4,0,4.1,1.3,4.1,4.5v8.3h-2.2V332c0-1.8-0.6-2.9-2.5-2.9c-1.8,0-3.1,1.5-3.1,3.7
			v7.3h-2.2v-12.5h2.2V329.6z"/>
		<path d="M140,339.8c0,3.5-2.7,5-5.4,5c-2.6,0-5-0.9-5.3-3.9h2.2c0.2,1.4,1.3,2.2,3,2.2s3.3-1,3.3-3.4V338
			c-0.8,1.5-2.1,2.3-3.9,2.3c-3.4,0-5-2.9-5-6.5c0-3.6,1.6-6.5,5-6.5c1.9,0,3.2,0.8,4,2.3v-2h2.2V339.8z M137.8,332.7
			c0-2.2-1.2-3.7-3.4-3.7c-1.8,0-3.2,1.2-3.2,2.8v3.9c0,1.7,1.4,2.8,3.2,2.8c2.2,0,3.4-1.6,3.4-3.7V332.7z"/>
	</g>
	<g>
		<g>
			<line class="st0" x1="1.1" y1="1.1" x2="1.1" y2="279.7"/>
			<line class="st0" x1="47.6" y1="1.1" x2="47.6" y2="279.7"/>
			<line class="st0" x1="94.1" y1="1.1" x2="94.1" y2="279.7"/>
			<line class="st0" x1="140.6" y1="1.1" x2="140.6" y2="279.7"/>
			<line class="st0" x1="187.1" y1="1.1" x2="187.1" y2="279.7"/>
			<line class="st0" x1="233.6" y1="1.1" x2="233.6" y2="279.7"/>
			<line class="st0" x1="280.1" y1="1.1" x2="280.1" y2="279.7"/>
			<line class="st0" x1="1.2" y1="1.1" x2="279.7" y2="1.1"/>
			<line class="st0" x1="1.2" y1="47.6" x2="279.7" y2="47.6"/>
			<line class="st0" x1="1.2" y1="94" x2="279.7" y2="94"/>
			<line class="st0" x1="1.2" y1="140.5" x2="279.7" y2="140.5"/>
			<line class="st0" x1="1.2" y1="187" x2="279.7" y2="187"/>
			<line class="st0" x1="1.2" y1="233.5" x2="279.7" y2="233.5"/>
			<line class="st0" x1="1.2" y1="280" x2="279.7" y2="280"/>
		</g>
		<g>
			<polygon points="140.6,140.5 94.1,94 47.6,47.5 47.6,94 47.6,140.5 47.6,187 47.6,233.6 70.8,233.6 70.8,187 94.1,187 140.6,187 
				94.1,140.5 			"/>
			<polygon points="233.6,140.5 187.1,94 140.6,47.5 140.6,94 140.6,140.5 140.6,187 140.6,233.6 163.8,233.6 163.8,187 187.1,187 
				233.6,187 187.1,140.5 			"/>
		</g>
	</g>
</g>
</svg>
