<?xml version="1.0" encoding="utf-8"?>
<!-- Generator: Adobe Illustrator 22.1.0, SVG Export Plug-In . SVG Version: 6.00 Build 0)  -->
<svg version="1.1" id="Layer_1" xmlns="http://www.w3.org/2000/svg" xmlns:xlink="http://www.w3.org/1999/xlink" x="0px" y="0px"
	 viewBox="0 0 281.2 345.9" style="enable-background:new 0 0 281.2 345.9;" xml:space="preserve">
<style type="text/css">
	.st0{fill:none;stroke:#000000;stroke-width:0.25;stroke-miterlimit:10;}
</style>
<g>
	<line class="st0" x1="1.1" y1="1.1" x2="1.1" y2="279.7"/>
	<line class="st0" x1="47.6" y1="1.1" x2="47.6" y2="279.7"/>
	<line class="st0" x1="94.1" y1="1.1" x2="94.1" y2="279.7"/>
	<line class="st0" x1="140.6" y1="1.1" x2="140.6" y2="279.7"/>
	<line class="st0" x1="187.1" y1="1.1" x2="187.1" y2="279.7"/>
	<line class="st0" x1="233.6" y1="1.1" x2="233.6" y2="279.7"/>
	<line class="st0" x1="280.1" y1="1.1" x2="280.1" y2="279.7"/>
	<line class="st0" x1="1.2" y1="1.1" x2="279.7" y2="1.1"/>
	<line class="st0" x1="1.2" y1="47.6" x2="279.7" y2="47.6"/>
	<line class="st0" x1="1.2" y1="94" x2="279.7" y2="94"/>
	<line class="st0" x1="1.2" y1="140.5" x2="279.7" y2="140.5"/>
	<line class="st0" x1="1.2" y1="187" x2="279.7" y2="187"/>
	<line class="st0" x1="1.2" y1="233.5" x2="279.7" y2="233.5"/>
	<line class="st0" x1="1.2" y1="280" x2="279.7" y2="280"/>
</g>
<g>
	<rect x="140.6" y="47.5" width="23.3" height="23.3"/>
	<rect x="117.3" y="94" width="23.3" height="23.3"/>
	<rect x="140.6" y="140.5" width="23.3" height="23.3"/>
	<polygon points="210.4,47.5 187.1,47.5 187.1,70.8 187.1,94 187.1,117.3 187.1,140.5 187.1,163.8 187.1,187 163.8,187 140.6,187 
		117.3,187 94.1,187 94.1,163.8 94.1,140.5 94.1,117.3 94.1,94 94.1,70.8 94.1,47.5 70.8,47.5 47.6,47.5 47.6,70.8 47.6,94 
		47.6,117.3 47.6,140.5 47.6,163.8 47.6,187 47.6,210.3 47.6,233.6 233.6,233.6 233.6,210.3 233.6,187 233.6,163.8 233.6,140.5 
		233.6,117.3 233.6,94 233.6,70.8 233.6,47.5 	"/>
</g>
<g>
	<path d="M1.1,323h12.3v2.1h-5v14.6H6.1v-14.6h-5V323z"/>
	<path d="M13.8,327.2h6v1.9H16v10.6h-2.2V327.2z"/>
	<path d="M33.5,337.8v1.9h-3.7l0-2.3h-0.1c-0.7,1.8-2.1,2.6-3.9,2.6c-1.2,0-2.3-0.4-3-1.1c-0.6-0.7-1-1.6-1-2.6c0-2,1.3-3.5,3.7-3.8
		l4.1-0.4v-1c0-1.9-1.1-2.5-2.6-2.5c-1.5,0-2.6,0.7-2.6,2.3h-2.2c0-2.4,2.1-4,4.8-4c2.7,0,4.7,1.3,4.7,4.3v6.6H33.5z M29.5,334.4
		v-0.6l-4.4,0.4c-0.9,0.1-1,0.5-1,1.2v1.1c0,1.2,0.9,1.7,2.3,1.7C28.2,338.2,29.5,336.6,29.5,334.4z"/>
	<path d="M41.5,332.6c2.5,0.5,3.7,1.7,3.7,3.7c0,2.1-2,3.7-5,3.7c-2.8,0-5-1.4-5.1-4.2h2.2c0,1.7,1.4,2.5,2.9,2.5
		c1.5,0,2.7-0.7,2.7-1.9c0-1-0.6-1.6-2.2-1.9l-2.1-0.4c-2-0.4-3.2-1.6-3.2-3.5c0-2,1.9-3.6,4.6-3.6c2.4,0,4.7,1.2,4.7,4h-2.2
		c0-1.6-1.2-2.3-2.5-2.3c-1.4,0-2.5,0.7-2.5,1.8c0,1,0.5,1.5,1.8,1.7L41.5,332.6z"/>
	<path d="M50.7,329.2c0.7-1.4,1.8-2.4,3.7-2.4c2.4,0,4.1,1.3,4.1,4.5v8.3h-2.2v-8.1c0-1.8-0.6-2.9-2.5-2.9c-1.8,0-3.1,1.5-3.1,3.7
		v7.3h-2.2V323h2.2V329.2z"/>
	<path d="M71.2,332.6v7h-2.3V323h6.3c1.7,0,3.1,0.4,4,1.2c0.9,0.8,1.3,2,1.3,3.6c0,1.5-0.3,2.7-1.2,3.5c-0.6,0.6-1.5,1.1-2.8,1.3
		l4.1,7.1h-2.7l-3.9-7H71.2z M76,330.7c1.2,0,1.9-0.9,1.9-1.9v-1.8c0-1.1-0.7-1.8-1.9-1.8h-4.8v5.6H76z"/>
	<path d="M88.3,326.9c3.6,0,5.3,2.6,5.3,6v1.2h-8.4v1.3c0,1.8,1.5,2.8,3.1,2.8s2.9-0.8,3-2.5h2.2c-0.2,2.7-2.6,4.3-5.2,4.3
		c-3.6,0-5.4-2.7-5.4-6.5C83,329.6,84.9,326.9,88.3,326.9z M85.3,332.3h6.1v-0.7c0-1.8-1.4-2.9-3.1-2.9s-3.1,1.1-3.1,2.9V332.3z"/>
	<path d="M110,326.9c2.2,0,3.9,1.3,3.9,4.5v8.3h-2.2v-8.1c0-1.8-0.7-2.9-2.3-2.9c-1.5,0-2.8,1.5-2.8,3.7v7.3h-2.2v-8.1
		c0-1.8-0.7-2.9-2.3-2.9c-1.5,0-2.8,1.5-2.8,3.7v7.3h-2.2v-12.5h2.2v2.1c0.6-1.4,1.7-2.4,3.5-2.4c1.7,0,3,0.8,3.6,2.6
		C106.8,328,108.1,326.9,110,326.9z"/>
	<path d="M122.8,340c-3.8,0-5.6-2.7-5.6-6.5c0-3.8,1.8-6.5,5.6-6.5c3.8,0,5.6,2.7,5.6,6.5C128.4,337.3,126.6,340,122.8,340z
		 M126.1,331.5c0-1.7-1.5-2.8-3.3-2.8c-1.8,0-3.3,1.1-3.3,2.8v3.9c0,1.7,1.5,2.8,3.3,2.8c1.8,0,3.3-1.1,3.3-2.8V331.5z"/>
	<path d="M135.8,337.1l3.2-9.9h2.3l-4.5,12.5h-2.1l-4.5-12.5h2.4L135.8,337.1L135.8,337.1z"/>
	<path d="M154.8,337.8v1.9h-3.7l0-2.3h-0.1c-0.7,1.8-2.1,2.6-3.9,2.6c-1.2,0-2.3-0.4-3-1.1c-0.6-0.7-1-1.6-1-2.6
		c0-2,1.3-3.5,3.7-3.8l4.1-0.4v-1c0-1.9-1.1-2.5-2.6-2.5c-1.5,0-2.6,0.7-2.6,2.3h-2.2c0-2.4,2.1-4,4.8-4c2.7,0,4.7,1.3,4.7,4.3v6.6
		H154.8z M150.8,334.4v-0.6l-4.4,0.4c-0.9,0.1-1,0.5-1,1.2v1.1c0,1.2,0.9,1.7,2.3,1.7C149.6,338.2,150.8,336.6,150.8,334.4z"/>
	<path d="M157.4,339.7V323h2.2v16.7H157.4z"/>
</g>
</svg>
