<?xml version="1.0" encoding="utf-8"?>
<!-- Generator: Adobe Illustrator 22.1.0, SVG Export Plug-In . SVG Version: 6.00 Build 0)  -->
<svg version="1.1" id="Layer_1" xmlns="http://www.w3.org/2000/svg" xmlns:xlink="http://www.w3.org/1999/xlink" x="0px" y="0px"
	 viewBox="0 0 281.2 345.9" style="enable-background:new 0 0 281.2 345.9;" xml:space="preserve">
<style type="text/css">
	.st0{fill:none;stroke:#000000;stroke-width:0.25;stroke-miterlimit:10;}
</style>
<g>
	<g>
		<path d="M13.2,335.2c0,1.6-0.4,2.8-1.3,3.6c-0.9,0.9-2.4,1.3-4.2,1.3H1.1v-16.7h6.5c1.6,0,2.8,0.2,3.8,0.9
			c0.9,0.7,1.4,1.8,1.4,3.2c0,1.9-1,3.4-2.5,3.9C12.1,331.9,13.2,333.2,13.2,335.2z M3.5,325.5v4.9h5.1c1.2,0,1.8-0.7,1.8-1.8v-1.5
			c0-1.1-0.6-1.7-1.8-1.7H3.5z M10.8,334.1c0-1.1-0.7-1.7-1.9-1.7H3.5v5.5h5.2c1.2,0,2.1-0.6,2.1-1.8V334.1z"/>
		<path d="M21.7,340.3c-3.8,0-5.6-2.7-5.6-6.5c0-3.8,1.8-6.5,5.6-6.5s5.6,2.7,5.6,6.5C27.4,337.6,25.6,340.3,21.7,340.3z M25,331.9
			c0-1.7-1.5-2.8-3.3-2.8c-1.8,0-3.3,1.1-3.3,2.8v3.9c0,1.7,1.5,2.8,3.3,2.8c1.8,0,3.3-1.1,3.3-2.8V331.9z"/>
		<path d="M30.8,340.1v-16.7H33v6.2c0.8-1.5,2.1-2.3,4-2.3c3.4,0,5,2.9,5,6.5c0,3.6-1.6,6.5-5,6.5c-1.9,0-3.2-0.8-4-2.3v2H30.8z
			 M33,334.9c0,2.2,1.2,3.7,3.4,3.7c1.8,0,3.2-1.2,3.2-2.8v-3.9c0-1.7-1.3-2.8-3.2-2.8c-2.2,0-3.4,1.6-3.4,3.7V334.9z"/>
		<path d="M50.1,327.3c2.6,0,4.7,1.4,5,4.4h-2.2c-0.2-2-1.4-2.6-2.9-2.6s-2.9,1-2.9,2.9v3.7c0,1.8,1.3,2.9,2.9,2.9
			c1.6,0,2.8-0.9,3-2.7h2.2c-0.3,3.1-2.6,4.5-5.1,4.5c-3.6,0-5.3-2.7-5.3-6.4C44.7,329.9,46.7,327.3,50.1,327.3z"/>
		<path d="M69.5,338.2v1.9h-3.7l0-2.3h-0.1c-0.7,1.8-2.1,2.6-3.9,2.6c-1.2,0-2.3-0.4-3-1.1c-0.6-0.7-1-1.6-1-2.6
			c0-2,1.3-3.5,3.7-3.8l4.1-0.4v-1c0-1.9-1.1-2.5-2.6-2.5c-1.5,0-2.6,0.7-2.6,2.3h-2.2c0-2.4,2.1-4,4.8-4c2.7,0,4.7,1.3,4.7,4.3v6.6
			H69.5z M65.5,334.8v-0.6l-4.4,0.4c-0.9,0.1-1,0.5-1,1.2v1.1c0,1.2,0.9,1.7,2.3,1.7C64.2,338.6,65.5,337,65.5,334.8z"/>
		<path d="M75.1,338.2h2.9v1.9h-5.1v-10.6h-2.1v-1.9h2.1v-4.2h2.2v4.2h2.9v1.9h-2.9V338.2z"/>
		<path d="M89.2,327.4c0,1.6,0.8,2.2,2.7,2.7l2.7,0.7c2.9,0.8,4.5,2,4.5,4.8c0,2.9-2.9,4.8-6.2,4.8c-3.3,0-6.2-1.6-6.5-5.2h2.3
			c0.2,2.3,1.9,3.2,4.1,3.2c2.2,0,3.9-0.9,3.9-2.7c0-1.4-0.8-2.2-2.5-2.7l-3.3-0.9c-2.7-0.8-4-2.2-4-4.7c0-2.5,2.3-4.4,5.7-4.4
			c3.2,0,5.7,1.5,6,4.9h-2.3c-0.2-2.2-1.9-2.9-3.7-2.9C90.5,325,89.2,326,89.2,327.4z"/>
		<path d="M107.1,327.3c3.6,0,5.3,2.6,5.3,6v1.2H104v1.3c0,1.8,1.5,2.8,3.1,2.8c1.6,0,2.9-0.8,3-2.5h2.2c-0.2,2.7-2.6,4.3-5.2,4.3
			c-3.6,0-5.4-2.7-5.4-6.5C101.7,330,103.6,327.3,107.1,327.3z M104,332.6h6.1V332c0-1.8-1.4-2.9-3.1-2.9c-1.6,0-3.1,1.1-3.1,2.9
			V332.6z"/>
		<path d="M115.8,327.5h6v1.9H118v10.6h-2.2V327.5z"/>
		<path d="M128.8,337.4l3.2-9.9h2.3l-4.5,12.5h-2.1l-4.5-12.5h2.4L128.8,337.4L128.8,337.4z"/>
		<path d="M139.2,325.7h-2.3v-2.3h2.3V325.7z M137,340.1v-12.5h2.2v12.5H137z"/>
		<path d="M148,327.3c2.6,0,4.7,1.4,5,4.4h-2.2c-0.2-2-1.4-2.6-2.9-2.6s-2.9,1-2.9,2.9v3.7c0,1.8,1.3,2.9,2.9,2.9
			c1.6,0,2.8-0.9,3-2.7h2.2c-0.3,3.1-2.6,4.5-5.1,4.5c-3.6,0-5.3-2.7-5.3-6.4C142.6,329.9,144.6,327.3,148,327.3z"/>
		<path d="M161.1,327.3c3.6,0,5.3,2.6,5.3,6v1.2H158v1.3c0,1.8,1.5,2.8,3.1,2.8s2.9-0.8,3-2.5h2.2c-0.2,2.7-2.6,4.3-5.2,4.3
			c-3.6,0-5.4-2.7-5.4-6.5C155.7,330,157.6,327.3,161.1,327.3z M158,332.6h6.1V332c0-1.8-1.4-2.9-3.1-2.9c-1.6,0-3.1,1.1-3.1,2.9
			V332.6z"/>
		<path d="M175.3,333c2.5,0.5,3.7,1.7,3.7,3.7c0,2.1-2,3.7-5,3.7c-2.8,0-5-1.4-5.1-4.2h2.2c0,1.7,1.4,2.5,2.9,2.5
			c1.5,0,2.7-0.7,2.7-1.9c0-1-0.6-1.6-2.2-1.9l-2.1-0.4c-2-0.4-3.2-1.6-3.2-3.5c0-2,1.9-3.6,4.6-3.6c2.4,0,4.7,1.2,4.7,4h-2.2
			c0-1.6-1.2-2.3-2.5-2.3c-1.4,0-2.5,0.7-2.5,1.8c0,1,0.5,1.5,1.8,1.7L175.3,333z"/>
	</g>
	<g>
		<g>
			<line class="st0" x1="1.1" y1="1.1" x2="1.1" y2="279.7"/>
			<line class="st0" x1="47.6" y1="1.1" x2="47.6" y2="279.7"/>
			<line class="st0" x1="94.1" y1="1.1" x2="94.1" y2="279.7"/>
			<line class="st0" x1="140.6" y1="1.1" x2="140.6" y2="279.7"/>
			<line class="st0" x1="187.1" y1="1.1" x2="187.1" y2="279.7"/>
			<line class="st0" x1="233.6" y1="1.1" x2="233.6" y2="279.7"/>
			<line class="st0" x1="280.1" y1="1.1" x2="280.1" y2="279.7"/>
			<line class="st0" x1="1.2" y1="1.1" x2="279.7" y2="1.1"/>
			<line class="st0" x1="1.2" y1="47.6" x2="279.7" y2="47.6"/>
			<line class="st0" x1="1.2" y1="94" x2="279.7" y2="94"/>
			<line class="st0" x1="1.2" y1="140.5" x2="279.7" y2="140.5"/>
			<line class="st0" x1="1.2" y1="187" x2="279.7" y2="187"/>
			<line class="st0" x1="1.2" y1="233.5" x2="279.7" y2="233.5"/>
			<line class="st0" x1="1.2" y1="280" x2="279.7" y2="280"/>
		</g>
		<path d="M187.1,47.5V94h-46.5H94.1L47.6,47.5V94v46.5V187v46.5h46.5h46.5h46.5h46.5V187v-46.5V94L187.1,47.5z M117.3,140.5v23.3
			H94.1v-23.3H117.3z M187.1,163.8h-23.3v-23.3h23.3V163.8z"/>
	</g>
</g>
</svg>
