<?xml version="1.0" encoding="utf-8"?>
<!-- Generator: Adobe Illustrator 22.1.0, SVG Export Plug-In . SVG Version: 6.00 Build 0)  -->
<svg version="1.1" id="Layer_1" xmlns="http://www.w3.org/2000/svg" xmlns:xlink="http://www.w3.org/1999/xlink" x="0px" y="0px"
	 viewBox="0 0 281.2 345.9" style="enable-background:new 0 0 281.2 345.9;" xml:space="preserve">
<style type="text/css">
	.st0{fill:none;stroke:#000000;stroke-width:0.25;stroke-miterlimit:10;}
</style>
<line class="st0" x1="280.1" y1="1.1" x2="280.1" y2="279.7"/>
<g>
	<line class="st0" x1="1.1" y1="1.1" x2="1.1" y2="279.7"/>
	<line class="st0" x1="47.6" y1="1.1" x2="47.6" y2="279.7"/>
	<line class="st0" x1="94.1" y1="1.1" x2="94.1" y2="279.7"/>
	<line class="st0" x1="140.6" y1="1.1" x2="140.6" y2="279.7"/>
	<line class="st0" x1="187.1" y1="1.1" x2="187.1" y2="279.7"/>
	<line class="st0" x1="233.6" y1="1.1" x2="233.6" y2="279.7"/>
	<line class="st0" x1="1.2" y1="1.1" x2="279.7" y2="1.1"/>
	<line class="st0" x1="1.2" y1="47.6" x2="279.7" y2="47.6"/>
	<line class="st0" x1="1.2" y1="94" x2="279.7" y2="94"/>
	<line class="st0" x1="1.2" y1="140.5" x2="279.7" y2="140.5"/>
	<line class="st0" x1="1.2" y1="187" x2="279.7" y2="187"/>
	<line class="st0" x1="1.2" y1="233.5" x2="279.7" y2="233.5"/>
	<line class="st0" x1="1.2" y1="280" x2="279.7" y2="280"/>
</g>
<g>
	<polygon points="93.9,47.5 70.7,47.5 70.7,70.8 47.4,70.8 47.4,94 70.7,94 93.9,94 93.9,70.8 	"/>
	<polygon points="233.4,94 233.4,70.8 210.2,70.8 210.2,47.5 186.9,47.5 186.9,70.8 186.9,94 210.2,94 	"/>
	<rect x="93.9" y="94" width="23.3" height="23.3"/>
	<rect x="163.7" y="94" width="23.3" height="23.3"/>
	<polygon points="163.7,117.3 140.4,117.3 117.2,117.3 117.2,140.5 117.2,163.8 140.4,163.8 163.7,163.8 163.7,140.5 	"/>
	<rect x="93.9" y="163.8" width="23.3" height="23.3"/>
	<rect x="163.7" y="163.8" width="23.3" height="23.3"/>
	<polygon points="47.4,187 47.4,210.3 70.7,210.3 70.7,233.6 93.9,233.6 93.9,210.3 93.9,187 70.7,187 	"/>
	<polygon points="186.9,233.6 210.2,233.6 210.2,210.3 233.4,210.3 233.4,187 210.2,187 186.9,187 186.9,210.3 	"/>
</g>
<g>
	<path d="M4,327.4c0,1.6,0.8,2.2,2.7,2.7l2.7,0.7c2.9,0.8,4.5,2,4.5,4.8c0,2.9-2.9,4.8-6.2,4.8s-6.2-1.6-6.5-5.2h2.3
		c0.2,2.3,1.9,3.2,4.1,3.2c2.2,0,3.9-0.9,3.9-2.7c0-1.4-0.8-2.2-2.5-2.7l-3.3-0.9c-2.7-0.8-4-2.2-4-4.7c0-2.5,2.3-4.4,5.7-4.4
		c3.2,0,5.7,1.5,6,4.9h-2.3c-0.2-2.2-1.9-2.9-3.7-2.9C5.3,325,4,325.9,4,327.4z"/>
	<path d="M19.3,329.6c0.7-1.4,1.8-2.4,3.7-2.4c2.4,0,4.1,1.3,4.1,4.5v8.3h-2.2V332c0-1.8-0.6-2.9-2.5-2.9c-1.8,0-3.1,1.5-3.1,3.7
		v7.3h-2.2v-12.5h2.2V329.6z"/>
	<path d="M36,340.3c-3.8,0-5.6-2.7-5.6-6.5s1.8-6.5,5.6-6.5c3.8,0,5.6,2.7,5.6,6.5S39.8,340.3,36,340.3z M39.3,331.9
		c0-1.7-1.5-2.8-3.3-2.8c-1.8,0-3.3,1.1-3.3,2.8v3.9c0,1.7,1.5,2.8,3.3,2.8c1.8,0,3.3-1.1,3.3-2.8V331.9z"/>
	<path d="M52,329.9L49.6,340h-2.3l-3.7-12.5h2.2l2.5,9.8h0.1l2.2-9.8h2.7l2.3,9.8h0.1l2.5-9.8h2.2L56.8,340h-2.3L52,329.9L52,329.9z
		"/>
	<path d="M71.6,333v7h-2.3v-16.7h6.3c1.7,0,3.1,0.4,4,1.2c0.9,0.8,1.3,2,1.3,3.6c0,1.5-0.3,2.7-1.2,3.5c-0.6,0.6-1.5,1.1-2.8,1.3
		l4.1,7.1h-2.7l-3.9-7H71.6z M76.4,331c1.2,0,1.9-0.9,1.9-1.9v-1.8c0-1.1-0.7-1.8-1.9-1.8h-4.8v5.6H76.4z"/>
	<path d="M88.7,327.2c3.6,0,5.3,2.6,5.3,6v1.2h-8.4v1.3c0,1.8,1.5,2.8,3.1,2.8s2.9-0.8,3-2.5h2.2c-0.2,2.7-2.6,4.3-5.2,4.3
		c-3.6,0-5.4-2.7-5.4-6.5S85.3,327.2,88.7,327.2z M85.6,332.6h6.1V332c0-1.8-1.4-2.9-3.1-2.9s-3.1,1.1-3.1,2.9V332.6z"/>
	<path d="M110.3,327.2c2.2,0,3.9,1.3,3.9,4.5v8.3H112V332c0-1.8-0.7-2.9-2.3-2.9c-1.5,0-2.8,1.5-2.8,3.7v7.3h-2.2V332
		c0-1.8-0.7-2.9-2.3-2.9c-1.5,0-2.8,1.5-2.8,3.7v7.3h-2.2v-12.5h2.2v2.1c0.6-1.4,1.7-2.4,3.5-2.4c1.7,0,3,0.8,3.6,2.6
		C107.2,328.4,108.5,327.2,110.3,327.2z"/>
	<path d="M123.1,340.3c-3.8,0-5.6-2.7-5.6-6.5s1.8-6.5,5.6-6.5c3.8,0,5.6,2.7,5.6,6.5S126.9,340.3,123.1,340.3z M126.4,331.9
		c0-1.7-1.5-2.8-3.3-2.8c-1.8,0-3.3,1.1-3.3,2.8v3.9c0,1.7,1.5,2.8,3.3,2.8c1.8,0,3.3-1.1,3.3-2.8V331.9z"/>
	<path d="M136.2,337.4l3.2-9.9h2.3l-4.5,12.5H135l-4.5-12.5h2.4L136.2,337.4L136.2,337.4z"/>
	<path d="M155.2,338.2v1.9h-3.7l0-2.3h-0.1c-0.7,1.8-2.1,2.6-3.9,2.6c-1.2,0-2.3-0.4-3-1.1c-0.6-0.7-1-1.6-1-2.6
		c0-2,1.3-3.5,3.7-3.8l4.1-0.4v-1c0-1.9-1.1-2.5-2.6-2.5c-1.5,0-2.6,0.7-2.6,2.3h-2.2c0-2.4,2.1-4,4.8-4c2.7,0,4.7,1.3,4.7,4.3v6.6
		H155.2z M151.1,334.7v-0.6l-4.4,0.4c-0.9,0.1-1,0.5-1,1.2v1.1c0,1.2,0.9,1.7,2.3,1.7C149.9,338.6,151.1,337,151.1,334.7z"/>
	<path d="M157.7,340v-16.7h2.2V340H157.7z"/>
</g>
</svg>
