<?xml version="1.0" encoding="utf-8"?>
<!-- Generator: Adobe Illustrator 22.1.0, SVG Export Plug-In . SVG Version: 6.00 Build 0)  -->
<svg version="1.1" id="Layer_1" xmlns="http://www.w3.org/2000/svg" xmlns:xlink="http://www.w3.org/1999/xlink" x="0px" y="0px"
	 viewBox="0 0 281.2 345.9" style="enable-background:new 0 0 281.2 345.9;" xml:space="preserve">
<style type="text/css">
	.st0{fill:none;stroke:#000000;stroke-width:0.25;stroke-miterlimit:10;}
</style>
<g>
	<g>
		<path d="M1.1,323.4h2.3v16.7H1.1V323.4z"/>
		<path d="M10,329.6c0.7-1.4,1.8-2.4,3.7-2.4c2.4,0,4.1,1.3,4.1,4.5v8.3h-2.2V332c0-1.8-0.6-2.9-2.5-2.9c-1.8,0-3.1,1.5-3.1,3.7v7.3
			H7.7v-12.5H10V329.6z"/>
		<path d="M24.8,338.2h2.9v1.9h-5.1v-10.6h-2.1v-1.9h2.1v-4.2h2.2v4.2h2.9v1.9h-2.9V338.2z"/>
		<path d="M35.5,327.3c3.6,0,5.3,2.6,5.3,6v1.2h-8.4v1.3c0,1.8,1.5,2.8,3.1,2.8c1.6,0,2.9-0.8,3-2.5h2.2c-0.2,2.7-2.6,4.3-5.2,4.3
			c-3.6,0-5.4-2.7-5.4-6.5C30.1,330,32,327.3,35.5,327.3z M32.4,332.6h6.1V332c0-1.8-1.4-2.9-3.1-2.9c-1.6,0-3.1,1.1-3.1,2.9V332.6z
			"/>
		<path d="M44.2,327.5h6v1.9h-3.8v10.6h-2.2V327.5z"/>
		<path d="M53,340.1v-16.7h2.2v16.7H53z"/>
		<path d="M64.3,340.3c-3.8,0-5.6-2.7-5.6-6.5c0-3.8,1.8-6.5,5.6-6.5c3.8,0,5.6,2.7,5.6,6.5C69.9,337.6,68.1,340.3,64.3,340.3z
			 M67.6,331.9c0-1.7-1.5-2.8-3.3-2.8c-1.8,0-3.3,1.1-3.3,2.8v3.9c0,1.7,1.5,2.8,3.3,2.8c1.8,0,3.3-1.1,3.3-2.8V331.9z"/>
		<path d="M78,327.3c2.6,0,4.7,1.4,5,4.4h-2.2c-0.2-2-1.4-2.6-2.9-2.6S75,330,75,332v3.7c0,1.8,1.3,2.9,2.9,2.9c1.6,0,2.8-0.9,3-2.7
			h2.2c-0.3,3.1-2.6,4.5-5.1,4.5c-3.6,0-5.3-2.7-5.3-6.4C72.7,329.9,74.6,327.3,78,327.3z"/>
		<path d="M88.6,340.1h-2.2v-16.7h2.2V340.1z M88.6,333.1l4.9-5.5h2.7l-5,5.5l5.4,7H94L88.6,333.1z"/>
		<path d="M101.4,325.7h-2.3v-2.3h2.3V325.7z M99.2,340.1v-12.5h2.2v12.5H99.2z"/>
		<path d="M107.7,329.6c0.7-1.4,1.8-2.4,3.7-2.4c2.4,0,4.1,1.3,4.1,4.5v8.3h-2.2V332c0-1.8-0.6-2.9-2.5-2.9c-1.8,0-3.1,1.5-3.1,3.7
			v7.3h-2.2v-12.5h2.2V329.6z"/>
		<path d="M130,339.8c0,3.5-2.7,5-5.4,5c-2.6,0-5-0.9-5.3-3.9h2.2c0.2,1.4,1.3,2.2,3,2.2s3.3-1,3.3-3.4V338
			c-0.8,1.5-2.1,2.3-3.9,2.3c-3.4,0-5-2.9-5-6.5c0-3.6,1.6-6.5,5-6.5c1.9,0,3.2,0.8,4,2.3v-2h2.2V339.8z M127.8,332.7
			c0-2.2-1.2-3.7-3.4-3.7c-1.8,0-3.2,1.2-3.2,2.8v3.9c0,1.7,1.4,2.8,3.2,2.8c2.2,0,3.4-1.6,3.4-3.7V332.7z"/>
	</g>
	<g>
		<g>
			<line class="st0" x1="1.1" y1="1.1" x2="1.1" y2="279.7"/>
			<line class="st0" x1="47.6" y1="1.1" x2="47.6" y2="279.7"/>
			<line class="st0" x1="94.1" y1="1.1" x2="94.1" y2="279.7"/>
			<line class="st0" x1="140.6" y1="1.1" x2="140.6" y2="279.7"/>
			<line class="st0" x1="187.1" y1="1.1" x2="187.1" y2="279.7"/>
			<line class="st0" x1="233.6" y1="1.1" x2="233.6" y2="279.7"/>
			<line class="st0" x1="280.1" y1="1.1" x2="280.1" y2="279.7"/>
			<line class="st0" x1="1.2" y1="1.1" x2="279.7" y2="1.1"/>
			<line class="st0" x1="1.2" y1="47.6" x2="279.7" y2="47.6"/>
			<line class="st0" x1="1.2" y1="94" x2="279.7" y2="94"/>
			<line class="st0" x1="1.2" y1="140.5" x2="279.7" y2="140.5"/>
			<line class="st0" x1="1.2" y1="187" x2="279.7" y2="187"/>
			<line class="st0" x1="1.2" y1="233.5" x2="279.7" y2="233.5"/>
			<line class="st0" x1="1.2" y1="280" x2="279.7" y2="280"/>
		</g>
		<g>
			<polygon points="187.1,94 187.1,47.5 140.6,47.5 94.1,47.5 47.6,47.5 47.6,94 94.1,94 94.1,140.5 140.6,140.5 140.6,94 			"/>
			<polygon points="187.1,187 187.1,140.5 140.6,140.5 140.6,187 94.1,187 94.1,233.6 140.6,233.6 187.1,233.6 233.6,233.6 
				233.6,187 			"/>
		</g>
	</g>
</g>
</svg>
