<?xml version="1.0" encoding="utf-8"?>
<!-- Generator: Adobe Illustrator 22.1.0, SVG Export Plug-In . SVG Version: 6.00 Build 0)  -->
<svg version="1.1" id="Layer_1" xmlns="http://www.w3.org/2000/svg" xmlns:xlink="http://www.w3.org/1999/xlink" x="0px" y="0px"
	 viewBox="0 0 281.2 345.9" style="enable-background:new 0 0 281.2 345.9;" xml:space="preserve">
<style type="text/css">
	.st0{fill:none;stroke:#000000;stroke-width:0.25;stroke-miterlimit:10;}
</style>
<g>
	<line class="st0" x1="280.1" y1="1.1" x2="280.1" y2="279.7"/>
	<g>
		<path d="M1.1,331.9c0-5.4,2.2-8.9,6.9-8.9c3.2,0,5.7,1.9,5.9,5.1h-2.3c-0.2-2-1.6-3.1-3.8-3.1c-2.3,0-4.1,1.7-4.1,4.1v5.2
			c0,2.3,1.9,4.1,4.2,4.1c2.2,0,3.7-0.9,3.9-3.2h2.3c-0.2,3.1-2.8,5.2-6.2,5.2C3.6,340.4,1.1,337.1,1.1,331.9z"/>
		<path d="M22.4,340.3c-3.8,0-5.6-2.7-5.6-6.5c0-3.8,1.8-6.5,5.6-6.5s5.6,2.7,5.6,6.5C28,337.6,26.2,340.3,22.4,340.3z M25.6,331.9
			c0-1.7-1.5-2.8-3.3-2.8c-1.8,0-3.3,1.1-3.3,2.8v3.9c0,1.7,1.5,2.8,3.3,2.8c1.8,0,3.3-1.1,3.3-2.8V331.9z"/>
		<path d="M33.6,329.6c0.7-1.4,1.8-2.4,3.7-2.4c2.4,0,4.1,1.3,4.1,4.5v8.3h-2.2V332c0-1.8-0.6-2.9-2.5-2.9c-1.8,0-3.1,1.5-3.1,3.7
			v7.3h-2.2v-12.5h2.2V329.6z"/>
		<path d="M48.5,338.2h2.9v1.9h-5.1v-10.6h-2.1v-1.9h2.1v-4.2h2.2v4.2h2.9v1.9h-2.9V338.2z"/>
		<path d="M54.4,327.5h6v1.9h-3.8v10.6h-2.2V327.5z"/>
		<path d="M74.1,338.2v1.9h-3.7l0-2.3h-0.1c-0.7,1.8-2.1,2.6-3.9,2.6c-1.2,0-2.3-0.4-3-1.1c-0.6-0.7-1-1.6-1-2.6
			c0-2,1.3-3.5,3.7-3.8l4.1-0.4v-1c0-1.9-1.1-2.5-2.6-2.5c-1.5,0-2.6,0.7-2.6,2.3h-2.2c0-2.4,2.1-4,4.8-4c2.7,0,4.7,1.3,4.7,4.3v6.6
			H74.1z M70.1,334.8v-0.6l-4.4,0.4c-0.9,0.1-1,0.5-1,1.2v1.1c0,1.2,0.9,1.7,2.3,1.7C68.8,338.6,70.1,337,70.1,334.8z"/>
		<path d="M81.3,327.3c2.6,0,4.7,1.4,5,4.4h-2.2c-0.2-2-1.4-2.6-2.9-2.6s-2.9,1-2.9,2.9v3.7c0,1.8,1.3,2.9,2.9,2.9
			c1.6,0,2.8-0.9,3-2.7h2.2c-0.3,3.1-2.6,4.5-5.1,4.5c-3.6,0-5.3-2.7-5.3-6.4C75.9,329.9,77.9,327.3,81.3,327.3z"/>
		<path d="M92.7,338.2h2.9v1.9h-5.1v-10.6h-2.1v-1.9h2.1v-4.2h2.2v4.2h2.9v1.9h-2.9V338.2z"/>
		<path d="M100.9,325.7h-2.3v-2.3h2.3V325.7z M98.7,340.1v-12.5h2.2v12.5H98.7z"/>
		<path d="M107.2,329.6c0.7-1.4,1.8-2.4,3.7-2.4c2.4,0,4.1,1.3,4.1,4.5v8.3h-2.2V332c0-1.8-0.6-2.9-2.5-2.9c-1.8,0-3.1,1.5-3.1,3.7
			v7.3h-2.2v-12.5h2.2V329.6z"/>
		<path d="M129.4,339.8c0,3.5-2.7,5-5.4,5c-2.6,0-5-0.9-5.3-3.9h2.2c0.2,1.4,1.3,2.2,3,2.2s3.3-1,3.3-3.4V338
			c-0.8,1.5-2.1,2.3-3.9,2.3c-3.4,0-5-2.9-5-6.5c0-3.6,1.6-6.5,5-6.5c1.9,0,3.2,0.8,4,2.3v-2h2.2V339.8z M127.2,332.7
			c0-2.2-1.2-3.7-3.4-3.7c-1.8,0-3.2,1.2-3.2,2.8v3.9c0,1.7,1.4,2.8,3.2,2.8c2.2,0,3.4-1.6,3.4-3.7V332.7z"/>
	</g>
	<g>
		<g>
			<line class="st0" x1="1.1" y1="1.1" x2="1.1" y2="279.7"/>
			<line class="st0" x1="47.6" y1="1.1" x2="47.6" y2="279.7"/>
			<line class="st0" x1="94.1" y1="1.1" x2="94.1" y2="279.7"/>
			<line class="st0" x1="140.6" y1="1.1" x2="140.6" y2="279.7"/>
			<line class="st0" x1="187.1" y1="1.1" x2="187.1" y2="279.7"/>
			<line class="st0" x1="233.6" y1="1.1" x2="233.6" y2="279.7"/>
			<line class="st0" x1="1.2" y1="1.1" x2="279.7" y2="1.1"/>
			<line class="st0" x1="1.2" y1="47.6" x2="279.7" y2="47.6"/>
			<line class="st0" x1="1.2" y1="94" x2="279.7" y2="94"/>
			<line class="st0" x1="1.2" y1="140.5" x2="279.7" y2="140.5"/>
			<line class="st0" x1="1.2" y1="187" x2="279.7" y2="187"/>
			<line class="st0" x1="1.2" y1="233.5" x2="279.7" y2="233.5"/>
			<line class="st0" x1="1.2" y1="280" x2="279.7" y2="280"/>
		</g>
		<path d="M187.1,47.6h-46.5H94.1H47.6v46.5v46.5v46.5v46.5h46.5v-46.5v-46.5h46.5v46.5v46.5h46.5h46.5v-46.5v-46.5V94.1L187.1,47.6
			z M210.4,163.8h-23.3v-23.3h23.3V163.8z"/>
	</g>
</g>
</svg>
