<?xml version="1.0" encoding="utf-8"?>
<!-- Generator: Adobe Illustrator 22.1.0, SVG Export Plug-In . SVG Version: 6.00 Build 0)  -->
<svg version="1.1" id="Layer_1" xmlns="http://www.w3.org/2000/svg" xmlns:xlink="http://www.w3.org/1999/xlink" x="0px" y="0px"
	 viewBox="0 0 281.2 345.9" style="enable-background:new 0 0 281.2 345.9;" xml:space="preserve">
<style type="text/css">
	.st0{fill:none;stroke:#000000;stroke-width:0.25;stroke-miterlimit:10;}
</style>
<g>
	<line class="st0" x1="1.1" y1="1.1" x2="1.1" y2="279.7"/>
	<line class="st0" x1="47.6" y1="1.1" x2="47.6" y2="279.7"/>
	<line class="st0" x1="94.1" y1="1.1" x2="94.1" y2="279.7"/>
	<line class="st0" x1="140.6" y1="1.1" x2="140.6" y2="279.7"/>
	<line class="st0" x1="187.1" y1="1.1" x2="187.1" y2="279.7"/>
	<line class="st0" x1="233.6" y1="1.1" x2="233.6" y2="279.7"/>
	<line class="st0" x1="280.1" y1="1.1" x2="280.1" y2="279.7"/>
	<line class="st0" x1="1.2" y1="1.1" x2="279.7" y2="1.1"/>
	<line class="st0" x1="1.2" y1="47.6" x2="279.7" y2="47.6"/>
	<line class="st0" x1="1.2" y1="94" x2="279.7" y2="94"/>
	<line class="st0" x1="1.2" y1="140.5" x2="279.7" y2="140.5"/>
	<line class="st0" x1="1.2" y1="187" x2="279.7" y2="187"/>
	<line class="st0" x1="1.2" y1="233.5" x2="279.7" y2="233.5"/>
	<line class="st0" x1="1.2" y1="280" x2="279.7" y2="280"/>
</g>
<g>
	<polygon points="187.1,47.5 140.6,47.5 94.1,47.5 47.6,47.5 47.6,94 47.6,140.5 47.6,187 94.1,187 94.1,140.5 94.1,94 140.6,94 
		187.1,94 187.1,140.5 187.1,187 233.6,187 233.6,140.5 233.6,94 233.6,47.5 	"/>
	<polygon points="47.6,233.6 94.1,233.6 47.6,187 	"/>
	<polygon points="94.1,233.6 140.6,233.6 94.1,187 	"/>
	<polygon points="140.6,233.6 187.1,233.6 140.6,187 	"/>
	<polygon points="233.6,233.6 187.1,187 187.1,233.6 	"/>
</g>
<g>
	<path d="M1.1,323h10.2v2.1H3.5v5.1h7.3v2.1H3.5v7.5H1.1V323z"/>
	<path d="M16.8,325.3h-2.3V323h2.3V325.3z M14.5,339.7v-12.5h2.2v12.5H14.5z"/>
	<path d="M20.8,327.2h6v1.9H23v10.6h-2.2V327.2z"/>
	<path d="M34.1,326.9c3.6,0,5.3,2.6,5.3,6v1.2H31v1.3c0,1.8,1.5,2.8,3.1,2.8s2.9-0.8,3-2.5h2.2c-0.2,2.7-2.6,4.3-5.2,4.3
		c-3.6,0-5.4-2.7-5.4-6.5C28.7,329.6,30.6,326.9,34.1,326.9z M31,332.3h6.1v-0.7c0-1.8-1.4-2.9-3.1-2.9s-3.1,1.1-3.1,2.9V332.3z"/>
	<path d="M42.8,343.8v-16.7H45v2c0.8-1.5,2.1-2.3,4-2.3c3.4,0,5,2.9,5,6.5c0,3.6-1.6,6.5-5,6.5c-1.9,0-3.2-0.8-4-2.3v6.2H42.8z
		 M45,334.5c0,2.2,1.2,3.7,3.4,3.7c1.8,0,3.2-1.2,3.2-2.8v-3.9c0-1.7-1.3-2.8-3.2-2.8c-2.2,0-3.4,1.6-3.4,3.7V334.5z"/>
	<path d="M57.4,339.7V323h2.2v16.7H57.4z"/>
	<path d="M74.8,337.8v1.9H71l0-2.3h-0.1c-0.7,1.8-2.1,2.6-3.9,2.6c-1.2,0-2.3-0.4-3-1.1c-0.6-0.7-1-1.6-1-2.6c0-2,1.3-3.5,3.7-3.8
		l4.1-0.4v-1c0-1.9-1.1-2.5-2.6-2.5s-2.6,0.7-2.6,2.3h-2.2c0-2.4,2.1-4,4.8-4c2.7,0,4.7,1.3,4.7,4.3v6.6H74.8z M70.7,334.4v-0.6
		l-4.4,0.4c-0.9,0.1-1,0.5-1,1.2v1.1c0,1.2,0.9,1.7,2.3,1.7C69.5,338.2,70.7,336.6,70.7,334.4z"/>
	<path d="M82,326.9c2.6,0,4.7,1.4,5,4.4h-2.2c-0.2-2-1.4-2.6-2.9-2.6c-1.5,0-2.9,1-2.9,2.9v3.7c0,1.8,1.3,2.9,2.9,2.9
		c1.6,0,2.8-0.9,3-2.7H87c-0.3,3.1-2.6,4.5-5.1,4.5c-3.6,0-5.3-2.7-5.3-6.4C76.6,329.5,78.6,326.9,82,326.9z"/>
	<path d="M95.1,326.9c3.6,0,5.3,2.6,5.3,6v1.2H92v1.3c0,1.8,1.5,2.8,3.1,2.8c1.6,0,2.9-0.8,3-2.5h2.2c-0.2,2.7-2.6,4.3-5.2,4.3
		c-3.6,0-5.4-2.7-5.4-6.5C89.7,329.6,91.6,326.9,95.1,326.9z M92,332.3h6.1v-0.7c0-1.8-1.4-2.9-3.1-2.9s-3.1,1.1-3.1,2.9V332.3z"/>
	<path d="M109.3,332.6c2.5,0.5,3.7,1.7,3.7,3.7c0,2.1-2,3.7-5,3.7c-2.8,0-5-1.4-5.1-4.2h2.2c0,1.7,1.4,2.5,2.9,2.5
		c1.5,0,2.7-0.7,2.7-1.9c0-1-0.6-1.6-2.2-1.9l-2.1-0.4c-2-0.4-3.2-1.6-3.2-3.5c0-2,1.9-3.6,4.6-3.6c2.4,0,4.7,1.2,4.7,4h-2.2
		c0-1.6-1.2-2.3-2.5-2.3c-1.4,0-2.5,0.7-2.5,1.8c0,1,0.5,1.5,1.8,1.7L109.3,332.6z"/>
</g>
</svg>
