<?xml version="1.0" encoding="utf-8"?>
<!-- Generator: Adobe Illustrator 22.1.0, SVG Export Plug-In . SVG Version: 6.00 Build 0)  -->
<svg version="1.1" id="Layer_1" xmlns="http://www.w3.org/2000/svg" xmlns:xlink="http://www.w3.org/1999/xlink" x="0px" y="0px"
	 viewBox="0 0 281.2 345.9" style="enable-background:new 0 0 281.2 345.9;" xml:space="preserve">
<style type="text/css">
	.st0{fill:none;stroke:#000000;stroke-width:0.25;stroke-miterlimit:10;}
</style>
<line class="st0" x1="280.1" y1="1.1" x2="280.1" y2="279.7"/>
<g>
	<line class="st0" x1="1.1" y1="1.1" x2="1.1" y2="279.7"/>
	<line class="st0" x1="47.6" y1="1.1" x2="47.6" y2="279.7"/>
	<line class="st0" x1="94.1" y1="1.1" x2="94.1" y2="279.7"/>
	<line class="st0" x1="140.6" y1="1.1" x2="140.6" y2="279.7"/>
	<line class="st0" x1="187.1" y1="1.1" x2="187.1" y2="279.7"/>
	<line class="st0" x1="233.6" y1="1.1" x2="233.6" y2="279.7"/>
	<line class="st0" x1="1.2" y1="1.1" x2="279.7" y2="1.1"/>
	<line class="st0" x1="1.2" y1="47.6" x2="279.7" y2="47.6"/>
	<line class="st0" x1="1.2" y1="94" x2="279.7" y2="94"/>
	<line class="st0" x1="1.2" y1="140.5" x2="279.7" y2="140.5"/>
	<line class="st0" x1="1.2" y1="187" x2="279.7" y2="187"/>
	<line class="st0" x1="1.2" y1="233.5" x2="279.7" y2="233.5"/>
	<line class="st0" x1="1.2" y1="280" x2="279.7" y2="280"/>
</g>
<polygon points="186.9,47.5 140.4,47.5 93.9,47.5 47.4,47.5 47.4,94 47.4,140.5 47.4,187 47.4,233.6 93.9,233.6 93.9,187 140.4,187 
	186.9,187 186.9,233.6 233.4,233.6 233.4,187 233.4,140.5 233.4,94 233.4,47.5 "/>
<g>
	<path d="M13.2,334.8c0,1.6-0.4,2.8-1.3,3.6c-0.9,0.9-2.4,1.3-4.2,1.3H1.1V323h6.5c1.6,0,2.8,0.2,3.8,0.9c0.9,0.7,1.4,1.8,1.4,3.2
		c0,1.9-1,3.4-2.5,3.9C12.1,331.5,13.2,332.8,13.2,334.8z M3.5,325.1v4.9h5.1c1.2,0,1.8-0.7,1.8-1.8v-1.5c0-1.1-0.6-1.7-1.8-1.7H3.5
		z M10.8,333.8c0-1.1-0.7-1.7-1.9-1.7H3.5v5.5h5.2c1.2,0,2.1-0.6,2.1-1.8V333.8z"/>
	<path d="M27.8,337.8v1.9h-3.7l0-2.3H24c-0.7,1.8-2.1,2.6-3.9,2.6c-1.2,0-2.3-0.4-3-1.1c-0.6-0.7-1-1.6-1-2.6c0-2,1.3-3.5,3.7-3.8
		l4.1-0.4v-1c0-1.9-1.1-2.5-2.6-2.5c-1.5,0-2.6,0.7-2.6,2.3h-2.2c0-2.4,2.1-4,4.8-4c2.7,0,4.7,1.3,4.7,4.3v6.6H27.8z M23.8,334.4
		v-0.6l-4.4,0.4c-0.9,0.1-1,0.5-1,1.2v1.1c0,1.2,0.9,1.7,2.3,1.7C22.6,338.2,23.8,336.6,23.8,334.4z"/>
	<path d="M35.8,332.6c2.5,0.5,3.7,1.7,3.7,3.7c0,2.1-2,3.7-5,3.7c-2.8,0-5-1.4-5.1-4.2h2.2c0,1.7,1.4,2.5,2.9,2.5
		c1.5,0,2.7-0.7,2.7-1.9c0-1-0.6-1.6-2.2-1.9L33,334c-2-0.4-3.2-1.6-3.2-3.5c0-2,1.9-3.6,4.6-3.6c2.4,0,4.7,1.2,4.7,4h-2.2
		c0-1.6-1.2-2.3-2.5-2.3c-1.4,0-2.5,0.7-2.5,1.8c0,1,0.5,1.5,1.8,1.7L35.8,332.6z"/>
	<path d="M47.5,326.9c3.6,0,5.3,2.6,5.3,6v1.2h-8.4v1.3c0,1.8,1.5,2.8,3.1,2.8s2.9-0.8,3-2.5h2.2c-0.2,2.7-2.6,4.3-5.2,4.3
		c-3.6,0-5.4-2.7-5.4-6.5C42.1,329.6,44.1,326.9,47.5,326.9z M44.5,332.3h6.1v-0.7c0-1.8-1.4-2.9-3.1-2.9s-3.1,1.1-3.1,2.9V332.3z"
		/>
	<path d="M69.2,326.9c2.2,0,3.9,1.3,3.9,4.5v8.3h-2.2v-8.1c0-1.8-0.7-2.9-2.3-2.9c-1.5,0-2.8,1.5-2.8,3.7v7.3h-2.2v-8.1
		c0-1.8-0.7-2.9-2.3-2.9c-1.5,0-2.8,1.5-2.8,3.7v7.3h-2.2v-12.5h2.2v2.1c0.6-1.4,1.7-2.4,3.5-2.4c1.7,0,3,0.8,3.6,2.6
		C66,328,67.3,326.9,69.2,326.9z"/>
	<path d="M81.8,326.9c3.6,0,5.3,2.6,5.3,6v1.2h-8.4v1.3c0,1.8,1.5,2.8,3.1,2.8c1.6,0,2.9-0.8,3-2.5H87c-0.2,2.7-2.6,4.3-5.2,4.3
		c-3.6,0-5.4-2.7-5.4-6.5C76.4,329.6,78.3,326.9,81.8,326.9z M78.7,332.3h6.1v-0.7c0-1.8-1.4-2.9-3.1-2.9s-3.1,1.1-3.1,2.9V332.3z"
		/>
	<path d="M92.7,329.2c0.7-1.4,1.8-2.4,3.7-2.4c2.4,0,4.1,1.3,4.1,4.5v8.3h-2.2v-8.1c0-1.8-0.6-2.9-2.5-2.9c-1.8,0-3.1,1.5-3.1,3.7
		v7.3h-2.2v-12.5h2.2V329.2z"/>
	<path d="M107.5,337.8h2.9v1.9h-5.1v-10.6h-2.1v-1.9h2.1V323h2.2v4.2h2.9v1.9h-2.9V337.8z"/>
	<path d="M119,332.6c2.5,0.5,3.7,1.7,3.7,3.7c0,2.1-2,3.7-5,3.7c-2.8,0-5-1.4-5.1-4.2h2.2c0,1.7,1.4,2.5,2.9,2.5
		c1.5,0,2.7-0.7,2.7-1.9c0-1-0.6-1.6-2.2-1.9l-2.1-0.4c-2-0.4-3.2-1.6-3.2-3.5c0-2,1.9-3.6,4.6-3.6c2.4,0,4.7,1.2,4.7,4h-2.2
		c0-1.6-1.2-2.3-2.5-2.3c-1.4,0-2.5,0.7-2.5,1.8c0,1,0.5,1.5,1.8,1.7L119,332.6z"/>
</g>
</svg>
